M48
; DRILL file {KiCad (7.0.0)} date Sat Mar 11 15:13:30 2023
; FORMAT={-:-/ absolute / inch / decimal}
; #@! TF.CreationDate,2023-03-11T15:13:30-08:00
; #@! TF.GenerationSoftware,Kicad,Pcbnew,(7.0.0)
; #@! TF.FileFunction,MixedPlating,1,2
FMAT,2
INCH
; #@! TA.AperFunction,Plated,PTH,ViaDrill
T1C0.0120
; #@! TA.AperFunction,Plated,PTH,ComponentDrill
T2C0.0256
; #@! TA.AperFunction,Plated,PTH,ComponentDrill
T3C0.0276
; #@! TA.AperFunction,Plated,PTH,ComponentDrill
T4C0.0402
; #@! TA.AperFunction,NonPlated,NPTH,ComponentDrill
T5C0.0472
; #@! TA.AperFunction,NonPlated,NPTH,ComponentDrill
T6C0.0591
; #@! TA.AperFunction,NonPlated,NPTH,ComponentDrill
T7C0.0709
; #@! TA.AperFunction,NonPlated,NPTH,ComponentDrill
T8C0.1260
%
G90
G05
T1
X5.04Y-3.32
X5.12Y-2.84
X5.24Y-3.16
X5.325Y-2.85
X5.45Y-3.15
X5.525Y-2.85
X5.65Y-3.15
X5.725Y-2.85
X5.85Y-3.15
X5.925Y-2.85
X6.05Y-3.15
X6.125Y-2.85
T2
X6.4Y-2.6346
X6.4Y-2.6846
X6.4Y-2.7346
X6.4Y-2.7846
X6.4Y-2.8346
X6.4Y-2.8846
X6.4Y-2.9346
X6.4Y-2.9846
X6.4Y-3.0346
X6.4Y-3.0846
X6.4Y-3.1346
X6.4Y-3.1846
X6.4Y-3.2346
X6.4Y-3.2846
X6.4Y-3.3346
T3
X5.1Y-2.55
X5.1Y-3.45
X5.2Y-2.55
X5.2Y-3.45
X5.3Y-2.55
X5.3Y-3.45
X5.4Y-2.55
X5.4Y-3.45
X5.8Y-2.55
X5.8Y-3.45
X5.9Y-2.55
X5.9Y-3.45
X6.0Y-2.55
X6.0Y-3.45
X6.1Y-2.55
X6.1Y-3.45
T4
X2.85Y-2.65
X2.85Y-3.35
X2.95Y-2.65
X2.95Y-3.35
X3.05Y-2.65
X3.05Y-3.35
X3.15Y-2.65
X3.15Y-3.35
X3.25Y-2.65
X3.25Y-3.35
X3.35Y-2.65
X3.35Y-3.35
X3.45Y-2.65
X3.45Y-3.35
X3.55Y-2.65
X3.55Y-3.35
X3.65Y-2.65
X3.65Y-3.35
X3.75Y-2.65
X3.75Y-3.35
X3.85Y-2.65
X3.85Y-3.35
X3.95Y-2.65
X3.95Y-3.35
X4.05Y-2.65
X4.05Y-3.35
X4.15Y-2.65
X4.15Y-3.35
X4.25Y-2.65
X4.25Y-3.35
X4.35Y-2.65
X4.35Y-3.35
X4.45Y-2.65
X4.45Y-3.35
X4.55Y-2.65
X4.55Y-3.35
X4.65Y-2.65
X4.65Y-3.35
X4.7409Y-2.9
X4.7409Y-3.0
X4.7409Y-3.1
X4.75Y-2.65
X4.75Y-3.35
T5
X6.6843Y-2.4724
X6.6843Y-3.5276
T6
X2.9744Y-2.9045
X2.9744Y-3.0955
T7
X2.8551Y-2.8927
X2.8551Y-3.1073
T8
X6.22Y-3.0
T0
M30
