%TF.GenerationSoftware,KiCad,Pcbnew,(7.0.0)*%
%TF.CreationDate,2023-03-11T15:32:13-08:00*%
%TF.ProjectId,pico_12vrgb_controller,7069636f-5f31-4327-9672-67625f636f6e,v1*%
%TF.SameCoordinates,Original*%
%TF.FileFunction,Copper,L2,Bot*%
%TF.FilePolarity,Positive*%
%FSLAX46Y46*%
G04 Gerber Fmt 4.6, Leading zero omitted, Abs format (unit mm)*
G04 Created by KiCad (PCBNEW (7.0.0)) date 2023-03-11 15:32:13*
%MOMM*%
%LPD*%
G01*
G04 APERTURE LIST*
%TA.AperFunction,ComponentPad*%
%ADD10R,1.500000X1.500000*%
%TD*%
%TA.AperFunction,ComponentPad*%
%ADD11C,1.500000*%
%TD*%
%TA.AperFunction,ComponentPad*%
%ADD12O,1.000000X1.000000*%
%TD*%
%TA.AperFunction,ComponentPad*%
%ADD13R,1.700000X1.700000*%
%TD*%
%TA.AperFunction,ComponentPad*%
%ADD14O,1.700000X1.700000*%
%TD*%
%TA.AperFunction,ViaPad*%
%ADD15C,0.609600*%
%TD*%
G04 APERTURE END LIST*
D10*
%TO.P,J4,1,Pin_1*%
%TO.N,+12V*%
X147319999Y-64769999D03*
D11*
%TO.P,J4,2,Pin_2*%
%TO.N,/L4_G*%
X149860000Y-64770000D03*
%TO.P,J4,3,Pin_3*%
%TO.N,/L4_R*%
X152400000Y-64770000D03*
%TO.P,J4,4,Pin_4*%
%TO.N,/L4_B*%
X154940000Y-64770000D03*
%TD*%
D10*
%TO.P,J3,1,Pin_1*%
%TO.N,+12V*%
X129539999Y-64769999D03*
D11*
%TO.P,J3,2,Pin_2*%
%TO.N,/L3_G*%
X132080000Y-64770000D03*
%TO.P,J3,3,Pin_3*%
%TO.N,/L3_R*%
X134620000Y-64770000D03*
%TO.P,J3,4,Pin_4*%
%TO.N,/L3_B*%
X137160000Y-64770000D03*
%TD*%
D10*
%TO.P,J2,1,Pin_1*%
%TO.N,+12V*%
X147319999Y-87629999D03*
D11*
%TO.P,J2,2,Pin_2*%
%TO.N,/L2_G*%
X149860000Y-87630000D03*
%TO.P,J2,3,Pin_3*%
%TO.N,/L2_R*%
X152400000Y-87630000D03*
%TO.P,J2,4,Pin_4*%
%TO.N,/L2_B*%
X154940000Y-87630000D03*
%TD*%
D10*
%TO.P,J1,1,Pin_1*%
%TO.N,+12V*%
X129539999Y-87629999D03*
D11*
%TO.P,J1,2,Pin_2*%
%TO.N,/L1_G*%
X132080000Y-87630000D03*
%TO.P,J1,3,Pin_3*%
%TO.N,/L1_R*%
X134620000Y-87630000D03*
%TO.P,J1,4,Pin_4*%
%TO.N,/L1_B*%
X137160000Y-87630000D03*
%TD*%
D12*
%TO.P,J5,1,3V3*%
%TO.N,unconnected-(J5-3V3-Pad1)*%
X163054999Y-84699999D03*
%TO.P,J5,2,3V3*%
%TO.N,unconnected-(J5-3V3-Pad2)*%
X163054999Y-83429999D03*
%TO.P,J5,3,3V3*%
%TO.N,unconnected-(J5-3V3-Pad3)*%
X163054999Y-82159999D03*
%TO.P,J5,4,COM*%
%TO.N,GND*%
X163054999Y-80889999D03*
%TO.P,J5,5,COM*%
X163054999Y-79619999D03*
%TO.P,J5,6,COM*%
X163054999Y-78349999D03*
%TO.P,J5,7,5V*%
%TO.N,unconnected-(J5-5V-Pad7)*%
X163054999Y-77079999D03*
%TO.P,J5,8,5V*%
%TO.N,unconnected-(J5-5V-Pad8)*%
X163054999Y-75809999D03*
%TO.P,J5,9,5V*%
%TO.N,unconnected-(J5-5V-Pad9)*%
X163054999Y-74539999D03*
%TO.P,J5,10,COM*%
%TO.N,GND*%
X163054999Y-73269999D03*
%TO.P,J5,11,COM*%
X163054999Y-71999999D03*
%TO.P,J5,12,COM*%
X163054999Y-70729999D03*
%TO.P,J5,13,12V*%
%TO.N,+12V*%
X163054999Y-69459999D03*
%TO.P,J5,14,12V*%
X163054999Y-68189999D03*
%TO.P,J5,15,12V*%
X163054999Y-66919999D03*
%TD*%
D13*
%TO.P,U1,1,GPO*%
%TO.N,/UART_TX*%
X72389999Y-85089999D03*
D14*
%TO.P,U1,2,GP1*%
%TO.N,/UART_RX*%
X74929999Y-85089999D03*
%TO.P,U1,3,GND*%
%TO.N,GND*%
X77469999Y-85089999D03*
%TO.P,U1,4,GP2*%
%TO.N,unconnected-(U1-GP2-Pad4)*%
X80009999Y-85089999D03*
%TO.P,U1,5,GP3*%
%TO.N,unconnected-(U1-GP3-Pad5)*%
X82549999Y-85089999D03*
%TO.P,U1,6,GP4*%
%TO.N,unconnected-(U1-GP4-Pad6)*%
X85089999Y-85089999D03*
%TO.P,U1,7,GP5*%
%TO.N,unconnected-(U1-GP5-Pad7)*%
X87629999Y-85089999D03*
%TO.P,U1,8,GND*%
%TO.N,GND*%
X90169999Y-85089999D03*
%TO.P,U1,9,GP6*%
%TO.N,unconnected-(U1-GP6-Pad9)*%
X92709999Y-85089999D03*
%TO.P,U1,10,GP7*%
%TO.N,unconnected-(U1-GP7-Pad10)*%
X95249999Y-85089999D03*
%TO.P,U1,11,GP8*%
%TO.N,unconnected-(U1-GP8-Pad11)*%
X97789999Y-85089999D03*
%TO.P,U1,12,GP9*%
%TO.N,unconnected-(U1-GP9-Pad12)*%
X100329999Y-85089999D03*
%TO.P,U1,13,GND*%
%TO.N,GND*%
X102869999Y-85089999D03*
%TO.P,U1,14,GP10*%
%TO.N,/L1_PWM_G*%
X105409999Y-85089999D03*
%TO.P,U1,15,GP11*%
%TO.N,/L1_PWM_R*%
X107949999Y-85089999D03*
%TO.P,U1,16,GP12*%
%TO.N,/L1_PWM_B*%
X110489999Y-85089999D03*
%TO.P,U1,17,GP13*%
%TO.N,/L2_PWM_B*%
X113029999Y-85089999D03*
%TO.P,U1,18,GND*%
%TO.N,GND*%
X115569999Y-85089999D03*
%TO.P,U1,19,GP14*%
%TO.N,/L2_PWM_R*%
X118109999Y-85089999D03*
%TO.P,U1,20,GP15*%
%TO.N,/L2_PWM_G*%
X120649999Y-85089999D03*
%TO.P,U1,21,GP16*%
%TO.N,/L4_PWM_G*%
X120649999Y-67309999D03*
%TO.P,U1,22,GP17*%
%TO.N,/L4_PWM_R*%
X118109999Y-67309999D03*
%TO.P,U1,23,GND*%
%TO.N,GND*%
X115569999Y-67309999D03*
%TO.P,U1,24,GP18*%
%TO.N,/L4_PWM_B*%
X113029999Y-67309999D03*
%TO.P,U1,25,GP19*%
%TO.N,/L3_PWM_B*%
X110489999Y-67309999D03*
%TO.P,U1,26,GP20*%
%TO.N,/L3_PWM_R*%
X107949999Y-67309999D03*
%TO.P,U1,27,GP21*%
%TO.N,/L3_PWM_G*%
X105409999Y-67309999D03*
%TO.P,U1,28,GND*%
%TO.N,GND*%
X102869999Y-67309999D03*
%TO.P,U1,29,GP22*%
%TO.N,unconnected-(U1-GP22-Pad29)*%
X100329999Y-67309999D03*
%TO.P,U1,30,RUN*%
%TO.N,unconnected-(U1-RUN-Pad30)*%
X97789999Y-67309999D03*
%TO.P,U1,31,GP26*%
%TO.N,unconnected-(U1-GP26-Pad31)*%
X95249999Y-67309999D03*
%TO.P,U1,32,GP27*%
%TO.N,unconnected-(U1-GP27-Pad32)*%
X92709999Y-67309999D03*
%TO.P,U1,33,AGND*%
%TO.N,GND*%
X90169999Y-67309999D03*
%TO.P,U1,34,GP28*%
%TO.N,unconnected-(U1-GP28-Pad34)*%
X87629999Y-67309999D03*
%TO.P,U1,35,ADC_VREF*%
%TO.N,/ADC_VREF*%
X85089999Y-67309999D03*
%TO.P,U1,36,3V3*%
%TO.N,unconnected-(U1-3V3-Pad36)*%
X82549999Y-67309999D03*
%TO.P,U1,37,3V3_EN*%
%TO.N,unconnected-(U1-3V3_EN-Pad37)*%
X80009999Y-67309999D03*
%TO.P,U1,38,GND*%
%TO.N,GND*%
X77469999Y-67309999D03*
%TO.P,U1,39,VSYS*%
%TO.N,/VBUS*%
X74929999Y-67309999D03*
%TO.P,U1,40,VBUS*%
X72389999Y-67309999D03*
%TO.P,U1,41,SWCLK*%
%TO.N,/SWCLK*%
X120419999Y-78739999D03*
%TO.P,U1,42,GND*%
%TO.N,GND*%
X120419999Y-76199999D03*
%TO.P,U1,43,SWDIO*%
%TO.N,/SWDIO*%
X120419999Y-73659999D03*
%TD*%
D15*
%TO.N,GND*%
X155575000Y-72390000D03*
X153670000Y-80010000D03*
X150495000Y-72390000D03*
X130048000Y-72136000D03*
X135255000Y-72390000D03*
X138430000Y-80010000D03*
X145415000Y-72390000D03*
X140335000Y-72390000D03*
X133096000Y-80264000D03*
X128016000Y-84328000D03*
X148590000Y-80010000D03*
X143510000Y-80010000D03*
%TD*%
%TA.AperFunction,Conductor*%
%TO.N,GND*%
G36*
X171640500Y-60723381D02*
G01*
X171686619Y-60769500D01*
X171703500Y-60832500D01*
X171703500Y-91567500D01*
X171686619Y-91630500D01*
X171640500Y-91676619D01*
X171577500Y-91693500D01*
X70992500Y-91693500D01*
X70929500Y-91676619D01*
X70883381Y-91630500D01*
X70866500Y-91567500D01*
X70866500Y-89642588D01*
X169543786Y-89642588D01*
X169573318Y-89810070D01*
X169576222Y-89816804D01*
X169576224Y-89816808D01*
X169607844Y-89890110D01*
X169640677Y-89966226D01*
X169645058Y-89972111D01*
X169645060Y-89972114D01*
X169737854Y-90096758D01*
X169742233Y-90102640D01*
X169872511Y-90211956D01*
X170024486Y-90288281D01*
X170189967Y-90327500D01*
X170313706Y-90327500D01*
X170317376Y-90327500D01*
X170443915Y-90312710D01*
X170603724Y-90254544D01*
X170745812Y-90161092D01*
X170862518Y-90037391D01*
X170947550Y-89890110D01*
X170996325Y-89727189D01*
X171006214Y-89557412D01*
X170976682Y-89389930D01*
X170909323Y-89233774D01*
X170807767Y-89097360D01*
X170677489Y-88988044D01*
X170525514Y-88911719D01*
X170495148Y-88904522D01*
X170367171Y-88874191D01*
X170367165Y-88874190D01*
X170360033Y-88872500D01*
X170232624Y-88872500D01*
X170228981Y-88872925D01*
X170228977Y-88872926D01*
X170113377Y-88886437D01*
X170113371Y-88886438D01*
X170106085Y-88887290D01*
X170099186Y-88889800D01*
X170099186Y-88889801D01*
X169953174Y-88942945D01*
X169953171Y-88942946D01*
X169946276Y-88945456D01*
X169940147Y-88949486D01*
X169940143Y-88949489D01*
X169810322Y-89034873D01*
X169810318Y-89034875D01*
X169804188Y-89038908D01*
X169799152Y-89044245D01*
X169799147Y-89044250D01*
X169692520Y-89157268D01*
X169692516Y-89157272D01*
X169687482Y-89162609D01*
X169602450Y-89309890D01*
X169600345Y-89316919D01*
X169600344Y-89316923D01*
X169555779Y-89465780D01*
X169555777Y-89465787D01*
X169553675Y-89472811D01*
X169553248Y-89480134D01*
X169553248Y-89480137D01*
X169544212Y-89635261D01*
X169544212Y-89635267D01*
X169543786Y-89642588D01*
X70866500Y-89642588D01*
X70866500Y-88428638D01*
X128281500Y-88428638D01*
X128281859Y-88431985D01*
X128281860Y-88431988D01*
X128287168Y-88481367D01*
X128287169Y-88481373D01*
X128288011Y-88489201D01*
X128290762Y-88496578D01*
X128290763Y-88496580D01*
X128335962Y-88617763D01*
X128335964Y-88617766D01*
X128339111Y-88626204D01*
X128344508Y-88633414D01*
X128344510Y-88633417D01*
X128409999Y-88720899D01*
X128426739Y-88743261D01*
X128433950Y-88748659D01*
X128527303Y-88818543D01*
X128543796Y-88830889D01*
X128680799Y-88881989D01*
X128741362Y-88888500D01*
X130335269Y-88888500D01*
X130338638Y-88888500D01*
X130399201Y-88881989D01*
X130536204Y-88830889D01*
X130653261Y-88743261D01*
X130740889Y-88626204D01*
X130791989Y-88489201D01*
X130798500Y-88428638D01*
X130798500Y-88393577D01*
X130814298Y-88332491D01*
X130857730Y-88286723D01*
X130917905Y-88267750D01*
X130979734Y-88280329D01*
X131027713Y-88321306D01*
X131112251Y-88442038D01*
X131267962Y-88597749D01*
X131448346Y-88724056D01*
X131647924Y-88817120D01*
X131860629Y-88874115D01*
X132080000Y-88893307D01*
X132299371Y-88874115D01*
X132512076Y-88817120D01*
X132711654Y-88724056D01*
X132892038Y-88597749D01*
X133047749Y-88442038D01*
X133174056Y-88261654D01*
X133235804Y-88129232D01*
X133282300Y-88076214D01*
X133350000Y-88056481D01*
X133417700Y-88076214D01*
X133464195Y-88129232D01*
X133525944Y-88261654D01*
X133529097Y-88266157D01*
X133529100Y-88266162D01*
X133567713Y-88321306D01*
X133652251Y-88442038D01*
X133807962Y-88597749D01*
X133988346Y-88724056D01*
X134187924Y-88817120D01*
X134400629Y-88874115D01*
X134620000Y-88893307D01*
X134839371Y-88874115D01*
X135052076Y-88817120D01*
X135251654Y-88724056D01*
X135432038Y-88597749D01*
X135587749Y-88442038D01*
X135714056Y-88261654D01*
X135775804Y-88129232D01*
X135822300Y-88076214D01*
X135890000Y-88056481D01*
X135957700Y-88076214D01*
X136004195Y-88129232D01*
X136065944Y-88261654D01*
X136069097Y-88266157D01*
X136069100Y-88266162D01*
X136107713Y-88321306D01*
X136192251Y-88442038D01*
X136347962Y-88597749D01*
X136528346Y-88724056D01*
X136727924Y-88817120D01*
X136940629Y-88874115D01*
X137160000Y-88893307D01*
X137379371Y-88874115D01*
X137592076Y-88817120D01*
X137791654Y-88724056D01*
X137972038Y-88597749D01*
X138127749Y-88442038D01*
X138137132Y-88428638D01*
X146061500Y-88428638D01*
X146061859Y-88431985D01*
X146061860Y-88431988D01*
X146067168Y-88481367D01*
X146067169Y-88481373D01*
X146068011Y-88489201D01*
X146070762Y-88496578D01*
X146070763Y-88496580D01*
X146115962Y-88617763D01*
X146115964Y-88617766D01*
X146119111Y-88626204D01*
X146124508Y-88633414D01*
X146124510Y-88633417D01*
X146189999Y-88720899D01*
X146206739Y-88743261D01*
X146213950Y-88748659D01*
X146307303Y-88818543D01*
X146323796Y-88830889D01*
X146460799Y-88881989D01*
X146521362Y-88888500D01*
X148115269Y-88888500D01*
X148118638Y-88888500D01*
X148179201Y-88881989D01*
X148316204Y-88830889D01*
X148433261Y-88743261D01*
X148520889Y-88626204D01*
X148571989Y-88489201D01*
X148578500Y-88428638D01*
X148578500Y-88393577D01*
X148594298Y-88332491D01*
X148637730Y-88286723D01*
X148697905Y-88267750D01*
X148759734Y-88280329D01*
X148807713Y-88321306D01*
X148892251Y-88442038D01*
X149047962Y-88597749D01*
X149228346Y-88724056D01*
X149427924Y-88817120D01*
X149640629Y-88874115D01*
X149860000Y-88893307D01*
X150079371Y-88874115D01*
X150292076Y-88817120D01*
X150491654Y-88724056D01*
X150672038Y-88597749D01*
X150827749Y-88442038D01*
X150954056Y-88261654D01*
X151015804Y-88129232D01*
X151062300Y-88076214D01*
X151130000Y-88056481D01*
X151197700Y-88076214D01*
X151244195Y-88129232D01*
X151305944Y-88261654D01*
X151309097Y-88266157D01*
X151309100Y-88266162D01*
X151347713Y-88321306D01*
X151432251Y-88442038D01*
X151587962Y-88597749D01*
X151768346Y-88724056D01*
X151967924Y-88817120D01*
X152180629Y-88874115D01*
X152400000Y-88893307D01*
X152619371Y-88874115D01*
X152832076Y-88817120D01*
X153031654Y-88724056D01*
X153212038Y-88597749D01*
X153367749Y-88442038D01*
X153494056Y-88261654D01*
X153555804Y-88129232D01*
X153602300Y-88076214D01*
X153670000Y-88056481D01*
X153737700Y-88076214D01*
X153784195Y-88129232D01*
X153845944Y-88261654D01*
X153849097Y-88266157D01*
X153849100Y-88266162D01*
X153887713Y-88321306D01*
X153972251Y-88442038D01*
X154127962Y-88597749D01*
X154308346Y-88724056D01*
X154507924Y-88817120D01*
X154720629Y-88874115D01*
X154940000Y-88893307D01*
X155159371Y-88874115D01*
X155372076Y-88817120D01*
X155571654Y-88724056D01*
X155752038Y-88597749D01*
X155907749Y-88442038D01*
X156034056Y-88261654D01*
X156127120Y-88062076D01*
X156184115Y-87849371D01*
X156203307Y-87630000D01*
X156184115Y-87410629D01*
X156127120Y-87197924D01*
X156034056Y-86998347D01*
X156016502Y-86973278D01*
X155941682Y-86866424D01*
X155907749Y-86817962D01*
X155752038Y-86662251D01*
X155680591Y-86612223D01*
X155576162Y-86539100D01*
X155576157Y-86539097D01*
X155571654Y-86535944D01*
X155545933Y-86523950D01*
X155377061Y-86445204D01*
X155377055Y-86445202D01*
X155372076Y-86442880D01*
X155366770Y-86441458D01*
X155366764Y-86441456D01*
X155164680Y-86387307D01*
X155164673Y-86387305D01*
X155159371Y-86385885D01*
X155153903Y-86385406D01*
X155153894Y-86385405D01*
X154945475Y-86367172D01*
X154940000Y-86366693D01*
X154934525Y-86367172D01*
X154726105Y-86385405D01*
X154726094Y-86385406D01*
X154720629Y-86385885D01*
X154715328Y-86387305D01*
X154715319Y-86387307D01*
X154513235Y-86441456D01*
X154513225Y-86441459D01*
X154507924Y-86442880D01*
X154502947Y-86445200D01*
X154502938Y-86445204D01*
X154313334Y-86533618D01*
X154313329Y-86533620D01*
X154308347Y-86535944D01*
X154303848Y-86539094D01*
X154303838Y-86539100D01*
X154132473Y-86659092D01*
X154132470Y-86659094D01*
X154127962Y-86662251D01*
X154124070Y-86666142D01*
X154124064Y-86666148D01*
X153976148Y-86814064D01*
X153976142Y-86814070D01*
X153972251Y-86817962D01*
X153969094Y-86822470D01*
X153969092Y-86822473D01*
X153849100Y-86993838D01*
X153849094Y-86993848D01*
X153845944Y-86998347D01*
X153843620Y-87003329D01*
X153843618Y-87003334D01*
X153784195Y-87130768D01*
X153737700Y-87183785D01*
X153670000Y-87203518D01*
X153602300Y-87183785D01*
X153555805Y-87130768D01*
X153496381Y-87003334D01*
X153494056Y-86998347D01*
X153476502Y-86973278D01*
X153401682Y-86866424D01*
X153367749Y-86817962D01*
X153212038Y-86662251D01*
X153140591Y-86612223D01*
X153036162Y-86539100D01*
X153036157Y-86539097D01*
X153031654Y-86535944D01*
X153005933Y-86523950D01*
X152837061Y-86445204D01*
X152837055Y-86445202D01*
X152832076Y-86442880D01*
X152826770Y-86441458D01*
X152826764Y-86441456D01*
X152624680Y-86387307D01*
X152624673Y-86387305D01*
X152619371Y-86385885D01*
X152613903Y-86385406D01*
X152613894Y-86385405D01*
X152405475Y-86367172D01*
X152400000Y-86366693D01*
X152394525Y-86367172D01*
X152186105Y-86385405D01*
X152186094Y-86385406D01*
X152180629Y-86385885D01*
X152175328Y-86387305D01*
X152175319Y-86387307D01*
X151973235Y-86441456D01*
X151973225Y-86441459D01*
X151967924Y-86442880D01*
X151962947Y-86445200D01*
X151962938Y-86445204D01*
X151773334Y-86533618D01*
X151773329Y-86533620D01*
X151768347Y-86535944D01*
X151763848Y-86539094D01*
X151763838Y-86539100D01*
X151592473Y-86659092D01*
X151592470Y-86659094D01*
X151587962Y-86662251D01*
X151584070Y-86666142D01*
X151584064Y-86666148D01*
X151436148Y-86814064D01*
X151436142Y-86814070D01*
X151432251Y-86817962D01*
X151429094Y-86822470D01*
X151429092Y-86822473D01*
X151309100Y-86993838D01*
X151309094Y-86993848D01*
X151305944Y-86998347D01*
X151303620Y-87003329D01*
X151303618Y-87003334D01*
X151244195Y-87130768D01*
X151197700Y-87183785D01*
X151130000Y-87203518D01*
X151062300Y-87183785D01*
X151015805Y-87130768D01*
X150956381Y-87003334D01*
X150954056Y-86998347D01*
X150936502Y-86973278D01*
X150861682Y-86866424D01*
X150827749Y-86817962D01*
X150672038Y-86662251D01*
X150600591Y-86612223D01*
X150496162Y-86539100D01*
X150496157Y-86539097D01*
X150491654Y-86535944D01*
X150465933Y-86523950D01*
X150297061Y-86445204D01*
X150297055Y-86445202D01*
X150292076Y-86442880D01*
X150286770Y-86441458D01*
X150286764Y-86441456D01*
X150084680Y-86387307D01*
X150084673Y-86387305D01*
X150079371Y-86385885D01*
X150073903Y-86385406D01*
X150073894Y-86385405D01*
X149865475Y-86367172D01*
X149860000Y-86366693D01*
X149854525Y-86367172D01*
X149646105Y-86385405D01*
X149646094Y-86385406D01*
X149640629Y-86385885D01*
X149635328Y-86387305D01*
X149635319Y-86387307D01*
X149433235Y-86441456D01*
X149433225Y-86441459D01*
X149427924Y-86442880D01*
X149422947Y-86445200D01*
X149422938Y-86445204D01*
X149233334Y-86533618D01*
X149233329Y-86533620D01*
X149228347Y-86535944D01*
X149223848Y-86539094D01*
X149223838Y-86539100D01*
X149052473Y-86659092D01*
X149052470Y-86659094D01*
X149047962Y-86662251D01*
X149044070Y-86666142D01*
X149044064Y-86666148D01*
X148896148Y-86814064D01*
X148896142Y-86814070D01*
X148892251Y-86817962D01*
X148889094Y-86822470D01*
X148889092Y-86822473D01*
X148807713Y-86938695D01*
X148759735Y-86979672D01*
X148697906Y-86992251D01*
X148637730Y-86973278D01*
X148594298Y-86927510D01*
X148578500Y-86866424D01*
X148578500Y-86834731D01*
X148578500Y-86831362D01*
X148571989Y-86770799D01*
X148520889Y-86633796D01*
X148433261Y-86516739D01*
X148342105Y-86448500D01*
X148323417Y-86434510D01*
X148323414Y-86434508D01*
X148316204Y-86429111D01*
X148307766Y-86425964D01*
X148307763Y-86425962D01*
X148186580Y-86380763D01*
X148186578Y-86380762D01*
X148179201Y-86378011D01*
X148171373Y-86377169D01*
X148171367Y-86377168D01*
X148121988Y-86371860D01*
X148121985Y-86371859D01*
X148118638Y-86371500D01*
X146521362Y-86371500D01*
X146518015Y-86371859D01*
X146518011Y-86371860D01*
X146468632Y-86377168D01*
X146468625Y-86377169D01*
X146460799Y-86378011D01*
X146453423Y-86380761D01*
X146453419Y-86380763D01*
X146332236Y-86425962D01*
X146332230Y-86425965D01*
X146323796Y-86429111D01*
X146316588Y-86434506D01*
X146316582Y-86434510D01*
X146213950Y-86511340D01*
X146213946Y-86511343D01*
X146206739Y-86516739D01*
X146201343Y-86523946D01*
X146201340Y-86523950D01*
X146124510Y-86626582D01*
X146124506Y-86626588D01*
X146119111Y-86633796D01*
X146115965Y-86642230D01*
X146115962Y-86642236D01*
X146070763Y-86763419D01*
X146070761Y-86763423D01*
X146068011Y-86770799D01*
X146067169Y-86778625D01*
X146067168Y-86778632D01*
X146061860Y-86828011D01*
X146061500Y-86831362D01*
X146061500Y-88428638D01*
X138137132Y-88428638D01*
X138254056Y-88261654D01*
X138347120Y-88062076D01*
X138404115Y-87849371D01*
X138423307Y-87630000D01*
X138404115Y-87410629D01*
X138347120Y-87197924D01*
X138254056Y-86998347D01*
X138236502Y-86973278D01*
X138161682Y-86866424D01*
X138127749Y-86817962D01*
X137972038Y-86662251D01*
X137900591Y-86612223D01*
X137796162Y-86539100D01*
X137796157Y-86539097D01*
X137791654Y-86535944D01*
X137765933Y-86523950D01*
X137597061Y-86445204D01*
X137597055Y-86445202D01*
X137592076Y-86442880D01*
X137586770Y-86441458D01*
X137586764Y-86441456D01*
X137384680Y-86387307D01*
X137384673Y-86387305D01*
X137379371Y-86385885D01*
X137373903Y-86385406D01*
X137373894Y-86385405D01*
X137165475Y-86367172D01*
X137160000Y-86366693D01*
X137154525Y-86367172D01*
X136946105Y-86385405D01*
X136946094Y-86385406D01*
X136940629Y-86385885D01*
X136935328Y-86387305D01*
X136935319Y-86387307D01*
X136733235Y-86441456D01*
X136733225Y-86441459D01*
X136727924Y-86442880D01*
X136722947Y-86445200D01*
X136722938Y-86445204D01*
X136533334Y-86533618D01*
X136533329Y-86533620D01*
X136528347Y-86535944D01*
X136523848Y-86539094D01*
X136523838Y-86539100D01*
X136352473Y-86659092D01*
X136352470Y-86659094D01*
X136347962Y-86662251D01*
X136344070Y-86666142D01*
X136344064Y-86666148D01*
X136196148Y-86814064D01*
X136196142Y-86814070D01*
X136192251Y-86817962D01*
X136189094Y-86822470D01*
X136189092Y-86822473D01*
X136069100Y-86993838D01*
X136069094Y-86993848D01*
X136065944Y-86998347D01*
X136063620Y-87003329D01*
X136063618Y-87003334D01*
X136004195Y-87130768D01*
X135957700Y-87183785D01*
X135890000Y-87203518D01*
X135822300Y-87183785D01*
X135775805Y-87130768D01*
X135716381Y-87003334D01*
X135714056Y-86998347D01*
X135696502Y-86973278D01*
X135621682Y-86866424D01*
X135587749Y-86817962D01*
X135432038Y-86662251D01*
X135360591Y-86612223D01*
X135256162Y-86539100D01*
X135256157Y-86539097D01*
X135251654Y-86535944D01*
X135225933Y-86523950D01*
X135057061Y-86445204D01*
X135057055Y-86445202D01*
X135052076Y-86442880D01*
X135046770Y-86441458D01*
X135046764Y-86441456D01*
X134844680Y-86387307D01*
X134844673Y-86387305D01*
X134839371Y-86385885D01*
X134833903Y-86385406D01*
X134833894Y-86385405D01*
X134625475Y-86367172D01*
X134620000Y-86366693D01*
X134614525Y-86367172D01*
X134406105Y-86385405D01*
X134406094Y-86385406D01*
X134400629Y-86385885D01*
X134395328Y-86387305D01*
X134395319Y-86387307D01*
X134193235Y-86441456D01*
X134193225Y-86441459D01*
X134187924Y-86442880D01*
X134182947Y-86445200D01*
X134182938Y-86445204D01*
X133993334Y-86533618D01*
X133993329Y-86533620D01*
X133988347Y-86535944D01*
X133983848Y-86539094D01*
X133983838Y-86539100D01*
X133812473Y-86659092D01*
X133812470Y-86659094D01*
X133807962Y-86662251D01*
X133804070Y-86666142D01*
X133804064Y-86666148D01*
X133656148Y-86814064D01*
X133656142Y-86814070D01*
X133652251Y-86817962D01*
X133649094Y-86822470D01*
X133649092Y-86822473D01*
X133529100Y-86993838D01*
X133529094Y-86993848D01*
X133525944Y-86998347D01*
X133523620Y-87003329D01*
X133523618Y-87003334D01*
X133464195Y-87130768D01*
X133417700Y-87183785D01*
X133350000Y-87203518D01*
X133282300Y-87183785D01*
X133235805Y-87130768D01*
X133176381Y-87003334D01*
X133174056Y-86998347D01*
X133156502Y-86973278D01*
X133081682Y-86866424D01*
X133047749Y-86817962D01*
X132892038Y-86662251D01*
X132820591Y-86612223D01*
X132716162Y-86539100D01*
X132716157Y-86539097D01*
X132711654Y-86535944D01*
X132685933Y-86523950D01*
X132517061Y-86445204D01*
X132517055Y-86445202D01*
X132512076Y-86442880D01*
X132506770Y-86441458D01*
X132506764Y-86441456D01*
X132304680Y-86387307D01*
X132304673Y-86387305D01*
X132299371Y-86385885D01*
X132293903Y-86385406D01*
X132293894Y-86385405D01*
X132085475Y-86367172D01*
X132080000Y-86366693D01*
X132074525Y-86367172D01*
X131866105Y-86385405D01*
X131866094Y-86385406D01*
X131860629Y-86385885D01*
X131855328Y-86387305D01*
X131855319Y-86387307D01*
X131653235Y-86441456D01*
X131653225Y-86441459D01*
X131647924Y-86442880D01*
X131642947Y-86445200D01*
X131642938Y-86445204D01*
X131453334Y-86533618D01*
X131453329Y-86533620D01*
X131448347Y-86535944D01*
X131443848Y-86539094D01*
X131443838Y-86539100D01*
X131272473Y-86659092D01*
X131272470Y-86659094D01*
X131267962Y-86662251D01*
X131264070Y-86666142D01*
X131264064Y-86666148D01*
X131116148Y-86814064D01*
X131116142Y-86814070D01*
X131112251Y-86817962D01*
X131109094Y-86822470D01*
X131109092Y-86822473D01*
X131027713Y-86938695D01*
X130979735Y-86979672D01*
X130917906Y-86992251D01*
X130857730Y-86973278D01*
X130814298Y-86927510D01*
X130798500Y-86866424D01*
X130798500Y-86834731D01*
X130798500Y-86831362D01*
X130791989Y-86770799D01*
X130740889Y-86633796D01*
X130653261Y-86516739D01*
X130562105Y-86448500D01*
X130543417Y-86434510D01*
X130543414Y-86434508D01*
X130536204Y-86429111D01*
X130527766Y-86425964D01*
X130527763Y-86425962D01*
X130406580Y-86380763D01*
X130406578Y-86380762D01*
X130399201Y-86378011D01*
X130391373Y-86377169D01*
X130391367Y-86377168D01*
X130341988Y-86371860D01*
X130341985Y-86371859D01*
X130338638Y-86371500D01*
X128741362Y-86371500D01*
X128738015Y-86371859D01*
X128738011Y-86371860D01*
X128688632Y-86377168D01*
X128688625Y-86377169D01*
X128680799Y-86378011D01*
X128673423Y-86380761D01*
X128673419Y-86380763D01*
X128552236Y-86425962D01*
X128552230Y-86425965D01*
X128543796Y-86429111D01*
X128536588Y-86434506D01*
X128536582Y-86434510D01*
X128433950Y-86511340D01*
X128433946Y-86511343D01*
X128426739Y-86516739D01*
X128421343Y-86523946D01*
X128421340Y-86523950D01*
X128344510Y-86626582D01*
X128344506Y-86626588D01*
X128339111Y-86633796D01*
X128335965Y-86642230D01*
X128335962Y-86642236D01*
X128290763Y-86763419D01*
X128290761Y-86763423D01*
X128288011Y-86770799D01*
X128287169Y-86778625D01*
X128287168Y-86778632D01*
X128281860Y-86828011D01*
X128281500Y-86831362D01*
X128281500Y-88428638D01*
X70866500Y-88428638D01*
X70866500Y-86267400D01*
X70881912Y-86207015D01*
X70924379Y-86161402D01*
X70983511Y-86141721D01*
X71044842Y-86152786D01*
X71093368Y-86191891D01*
X71104690Y-86207015D01*
X71176739Y-86303261D01*
X71183950Y-86308659D01*
X71219671Y-86335400D01*
X71293796Y-86390889D01*
X71430799Y-86441989D01*
X71491362Y-86448500D01*
X73285269Y-86448500D01*
X73288638Y-86448500D01*
X73349201Y-86441989D01*
X73486204Y-86390889D01*
X73603261Y-86303261D01*
X73690889Y-86186204D01*
X73734998Y-86067943D01*
X73771530Y-86015904D01*
X73828820Y-85988328D01*
X73892282Y-85992238D01*
X73945756Y-86026638D01*
X74006760Y-86092906D01*
X74184424Y-86231189D01*
X74382426Y-86338342D01*
X74387355Y-86340034D01*
X74387357Y-86340035D01*
X74465010Y-86366693D01*
X74595365Y-86411444D01*
X74817431Y-86448500D01*
X75037358Y-86448500D01*
X75042569Y-86448500D01*
X75264635Y-86411444D01*
X75477574Y-86338342D01*
X75675576Y-86231189D01*
X75853240Y-86092906D01*
X76005722Y-85927268D01*
X76094817Y-85790896D01*
X76140328Y-85749001D01*
X76200297Y-85733814D01*
X76260267Y-85749000D01*
X76305781Y-85790898D01*
X76391822Y-85922592D01*
X76398210Y-85930799D01*
X76543567Y-86088700D01*
X76551211Y-86095737D01*
X76720588Y-86227568D01*
X76729281Y-86233247D01*
X76918042Y-86335400D01*
X76927559Y-86339575D01*
X77130557Y-86409264D01*
X77140627Y-86411814D01*
X77151661Y-86413655D01*
X77162798Y-86413079D01*
X77165200Y-86402187D01*
X77774800Y-86402187D01*
X77777201Y-86413079D01*
X77788338Y-86413655D01*
X77799372Y-86411814D01*
X77809442Y-86409264D01*
X78012440Y-86339575D01*
X78021957Y-86335400D01*
X78210718Y-86233247D01*
X78219411Y-86227568D01*
X78388788Y-86095737D01*
X78396432Y-86088700D01*
X78541789Y-85930799D01*
X78548181Y-85922587D01*
X78634218Y-85790899D01*
X78679732Y-85749000D01*
X78739701Y-85733814D01*
X78799670Y-85749000D01*
X78845183Y-85790898D01*
X78934278Y-85927268D01*
X78937806Y-85931100D01*
X79083227Y-86089069D01*
X79083231Y-86089073D01*
X79086760Y-86092906D01*
X79264424Y-86231189D01*
X79462426Y-86338342D01*
X79467355Y-86340034D01*
X79467357Y-86340035D01*
X79545010Y-86366693D01*
X79675365Y-86411444D01*
X79897431Y-86448500D01*
X80117358Y-86448500D01*
X80122569Y-86448500D01*
X80344635Y-86411444D01*
X80557574Y-86338342D01*
X80755576Y-86231189D01*
X80933240Y-86092906D01*
X81085722Y-85927268D01*
X81174518Y-85791354D01*
X81220030Y-85749457D01*
X81280000Y-85734271D01*
X81339970Y-85749457D01*
X81385481Y-85791354D01*
X81474278Y-85927268D01*
X81477806Y-85931100D01*
X81623227Y-86089069D01*
X81623231Y-86089073D01*
X81626760Y-86092906D01*
X81804424Y-86231189D01*
X82002426Y-86338342D01*
X82007355Y-86340034D01*
X82007357Y-86340035D01*
X82085010Y-86366693D01*
X82215365Y-86411444D01*
X82437431Y-86448500D01*
X82657358Y-86448500D01*
X82662569Y-86448500D01*
X82884635Y-86411444D01*
X83097574Y-86338342D01*
X83295576Y-86231189D01*
X83473240Y-86092906D01*
X83625722Y-85927268D01*
X83714518Y-85791354D01*
X83760030Y-85749457D01*
X83820000Y-85734271D01*
X83879970Y-85749457D01*
X83925481Y-85791354D01*
X84014278Y-85927268D01*
X84017806Y-85931100D01*
X84163227Y-86089069D01*
X84163231Y-86089073D01*
X84166760Y-86092906D01*
X84344424Y-86231189D01*
X84542426Y-86338342D01*
X84547355Y-86340034D01*
X84547357Y-86340035D01*
X84625010Y-86366693D01*
X84755365Y-86411444D01*
X84977431Y-86448500D01*
X85197358Y-86448500D01*
X85202569Y-86448500D01*
X85424635Y-86411444D01*
X85637574Y-86338342D01*
X85835576Y-86231189D01*
X86013240Y-86092906D01*
X86165722Y-85927268D01*
X86254518Y-85791354D01*
X86300030Y-85749457D01*
X86360000Y-85734271D01*
X86419970Y-85749457D01*
X86465481Y-85791354D01*
X86554278Y-85927268D01*
X86557806Y-85931100D01*
X86703227Y-86089069D01*
X86703231Y-86089073D01*
X86706760Y-86092906D01*
X86884424Y-86231189D01*
X87082426Y-86338342D01*
X87087355Y-86340034D01*
X87087357Y-86340035D01*
X87165010Y-86366693D01*
X87295365Y-86411444D01*
X87517431Y-86448500D01*
X87737358Y-86448500D01*
X87742569Y-86448500D01*
X87964635Y-86411444D01*
X88177574Y-86338342D01*
X88375576Y-86231189D01*
X88553240Y-86092906D01*
X88705722Y-85927268D01*
X88794817Y-85790896D01*
X88840328Y-85749001D01*
X88900297Y-85733814D01*
X88960267Y-85749000D01*
X89005781Y-85790898D01*
X89091822Y-85922592D01*
X89098210Y-85930799D01*
X89243567Y-86088700D01*
X89251211Y-86095737D01*
X89420588Y-86227568D01*
X89429281Y-86233247D01*
X89618042Y-86335400D01*
X89627559Y-86339575D01*
X89830557Y-86409264D01*
X89840627Y-86411814D01*
X89851661Y-86413655D01*
X89862798Y-86413079D01*
X89865200Y-86402187D01*
X90474800Y-86402187D01*
X90477201Y-86413079D01*
X90488338Y-86413655D01*
X90499372Y-86411814D01*
X90509442Y-86409264D01*
X90712440Y-86339575D01*
X90721957Y-86335400D01*
X90910718Y-86233247D01*
X90919411Y-86227568D01*
X91088788Y-86095737D01*
X91096432Y-86088700D01*
X91241789Y-85930799D01*
X91248181Y-85922587D01*
X91334218Y-85790899D01*
X91379732Y-85749000D01*
X91439701Y-85733814D01*
X91499670Y-85749000D01*
X91545183Y-85790898D01*
X91634278Y-85927268D01*
X91637806Y-85931100D01*
X91783227Y-86089069D01*
X91783231Y-86089073D01*
X91786760Y-86092906D01*
X91964424Y-86231189D01*
X92162426Y-86338342D01*
X92167355Y-86340034D01*
X92167357Y-86340035D01*
X92245010Y-86366693D01*
X92375365Y-86411444D01*
X92597431Y-86448500D01*
X92817358Y-86448500D01*
X92822569Y-86448500D01*
X93044635Y-86411444D01*
X93257574Y-86338342D01*
X93455576Y-86231189D01*
X93633240Y-86092906D01*
X93785722Y-85927268D01*
X93874518Y-85791354D01*
X93920030Y-85749457D01*
X93980000Y-85734271D01*
X94039970Y-85749457D01*
X94085481Y-85791354D01*
X94174278Y-85927268D01*
X94177806Y-85931100D01*
X94323227Y-86089069D01*
X94323231Y-86089073D01*
X94326760Y-86092906D01*
X94504424Y-86231189D01*
X94702426Y-86338342D01*
X94707355Y-86340034D01*
X94707357Y-86340035D01*
X94785010Y-86366693D01*
X94915365Y-86411444D01*
X95137431Y-86448500D01*
X95357358Y-86448500D01*
X95362569Y-86448500D01*
X95584635Y-86411444D01*
X95797574Y-86338342D01*
X95995576Y-86231189D01*
X96173240Y-86092906D01*
X96325722Y-85927268D01*
X96414518Y-85791354D01*
X96460030Y-85749457D01*
X96520000Y-85734271D01*
X96579970Y-85749457D01*
X96625481Y-85791354D01*
X96714278Y-85927268D01*
X96717806Y-85931100D01*
X96863227Y-86089069D01*
X96863231Y-86089073D01*
X96866760Y-86092906D01*
X97044424Y-86231189D01*
X97242426Y-86338342D01*
X97247355Y-86340034D01*
X97247357Y-86340035D01*
X97325010Y-86366693D01*
X97455365Y-86411444D01*
X97677431Y-86448500D01*
X97897358Y-86448500D01*
X97902569Y-86448500D01*
X98124635Y-86411444D01*
X98337574Y-86338342D01*
X98535576Y-86231189D01*
X98713240Y-86092906D01*
X98865722Y-85927268D01*
X98954518Y-85791354D01*
X99000030Y-85749457D01*
X99060000Y-85734271D01*
X99119970Y-85749457D01*
X99165481Y-85791354D01*
X99254278Y-85927268D01*
X99257806Y-85931100D01*
X99403227Y-86089069D01*
X99403231Y-86089073D01*
X99406760Y-86092906D01*
X99584424Y-86231189D01*
X99782426Y-86338342D01*
X99787355Y-86340034D01*
X99787357Y-86340035D01*
X99865010Y-86366693D01*
X99995365Y-86411444D01*
X100217431Y-86448500D01*
X100437358Y-86448500D01*
X100442569Y-86448500D01*
X100664635Y-86411444D01*
X100877574Y-86338342D01*
X101075576Y-86231189D01*
X101253240Y-86092906D01*
X101405722Y-85927268D01*
X101494817Y-85790896D01*
X101540328Y-85749001D01*
X101600297Y-85733814D01*
X101660267Y-85749000D01*
X101705781Y-85790898D01*
X101791822Y-85922592D01*
X101798210Y-85930799D01*
X101943567Y-86088700D01*
X101951211Y-86095737D01*
X102120588Y-86227568D01*
X102129281Y-86233247D01*
X102318042Y-86335400D01*
X102327559Y-86339575D01*
X102530557Y-86409264D01*
X102540627Y-86411814D01*
X102551661Y-86413655D01*
X102562798Y-86413079D01*
X102565200Y-86402187D01*
X103174800Y-86402187D01*
X103177201Y-86413079D01*
X103188338Y-86413655D01*
X103199372Y-86411814D01*
X103209442Y-86409264D01*
X103412440Y-86339575D01*
X103421957Y-86335400D01*
X103610718Y-86233247D01*
X103619411Y-86227568D01*
X103788788Y-86095737D01*
X103796432Y-86088700D01*
X103941789Y-85930799D01*
X103948181Y-85922587D01*
X104034218Y-85790899D01*
X104079732Y-85749000D01*
X104139701Y-85733814D01*
X104199670Y-85749000D01*
X104245183Y-85790898D01*
X104334278Y-85927268D01*
X104337806Y-85931100D01*
X104483227Y-86089069D01*
X104483231Y-86089073D01*
X104486760Y-86092906D01*
X104664424Y-86231189D01*
X104862426Y-86338342D01*
X104867355Y-86340034D01*
X104867357Y-86340035D01*
X104945010Y-86366693D01*
X105075365Y-86411444D01*
X105297431Y-86448500D01*
X105517358Y-86448500D01*
X105522569Y-86448500D01*
X105744635Y-86411444D01*
X105957574Y-86338342D01*
X106155576Y-86231189D01*
X106333240Y-86092906D01*
X106485722Y-85927268D01*
X106574518Y-85791354D01*
X106620030Y-85749457D01*
X106680000Y-85734271D01*
X106739970Y-85749457D01*
X106785481Y-85791354D01*
X106874278Y-85927268D01*
X106877806Y-85931100D01*
X107023227Y-86089069D01*
X107023231Y-86089073D01*
X107026760Y-86092906D01*
X107204424Y-86231189D01*
X107402426Y-86338342D01*
X107407355Y-86340034D01*
X107407357Y-86340035D01*
X107485010Y-86366693D01*
X107615365Y-86411444D01*
X107837431Y-86448500D01*
X108057358Y-86448500D01*
X108062569Y-86448500D01*
X108284635Y-86411444D01*
X108497574Y-86338342D01*
X108695576Y-86231189D01*
X108873240Y-86092906D01*
X109025722Y-85927268D01*
X109114518Y-85791354D01*
X109160030Y-85749457D01*
X109220000Y-85734271D01*
X109279970Y-85749457D01*
X109325481Y-85791354D01*
X109414278Y-85927268D01*
X109417806Y-85931100D01*
X109563227Y-86089069D01*
X109563231Y-86089073D01*
X109566760Y-86092906D01*
X109744424Y-86231189D01*
X109942426Y-86338342D01*
X109947355Y-86340034D01*
X109947357Y-86340035D01*
X110025010Y-86366693D01*
X110155365Y-86411444D01*
X110377431Y-86448500D01*
X110597358Y-86448500D01*
X110602569Y-86448500D01*
X110824635Y-86411444D01*
X111037574Y-86338342D01*
X111235576Y-86231189D01*
X111413240Y-86092906D01*
X111565722Y-85927268D01*
X111654518Y-85791354D01*
X111700030Y-85749457D01*
X111760000Y-85734271D01*
X111819970Y-85749457D01*
X111865481Y-85791354D01*
X111954278Y-85927268D01*
X111957806Y-85931100D01*
X112103227Y-86089069D01*
X112103231Y-86089073D01*
X112106760Y-86092906D01*
X112284424Y-86231189D01*
X112482426Y-86338342D01*
X112487355Y-86340034D01*
X112487357Y-86340035D01*
X112565010Y-86366693D01*
X112695365Y-86411444D01*
X112917431Y-86448500D01*
X113137358Y-86448500D01*
X113142569Y-86448500D01*
X113364635Y-86411444D01*
X113577574Y-86338342D01*
X113775576Y-86231189D01*
X113953240Y-86092906D01*
X114105722Y-85927268D01*
X114194817Y-85790896D01*
X114240328Y-85749001D01*
X114300297Y-85733814D01*
X114360267Y-85749000D01*
X114405781Y-85790898D01*
X114491822Y-85922592D01*
X114498210Y-85930799D01*
X114643567Y-86088700D01*
X114651211Y-86095737D01*
X114820588Y-86227568D01*
X114829281Y-86233247D01*
X115018042Y-86335400D01*
X115027559Y-86339575D01*
X115230557Y-86409264D01*
X115240627Y-86411814D01*
X115251661Y-86413655D01*
X115262798Y-86413079D01*
X115265200Y-86402187D01*
X115874800Y-86402187D01*
X115877201Y-86413079D01*
X115888338Y-86413655D01*
X115899372Y-86411814D01*
X115909442Y-86409264D01*
X116112440Y-86339575D01*
X116121957Y-86335400D01*
X116310718Y-86233247D01*
X116319411Y-86227568D01*
X116488788Y-86095737D01*
X116496432Y-86088700D01*
X116641789Y-85930799D01*
X116648181Y-85922587D01*
X116734218Y-85790899D01*
X116779732Y-85749000D01*
X116839701Y-85733814D01*
X116899670Y-85749000D01*
X116945183Y-85790898D01*
X117034278Y-85927268D01*
X117037806Y-85931100D01*
X117183227Y-86089069D01*
X117183231Y-86089073D01*
X117186760Y-86092906D01*
X117364424Y-86231189D01*
X117562426Y-86338342D01*
X117567355Y-86340034D01*
X117567357Y-86340035D01*
X117645010Y-86366693D01*
X117775365Y-86411444D01*
X117997431Y-86448500D01*
X118217358Y-86448500D01*
X118222569Y-86448500D01*
X118444635Y-86411444D01*
X118657574Y-86338342D01*
X118855576Y-86231189D01*
X119033240Y-86092906D01*
X119185722Y-85927268D01*
X119274518Y-85791354D01*
X119320030Y-85749457D01*
X119380000Y-85734271D01*
X119439970Y-85749457D01*
X119485481Y-85791354D01*
X119574278Y-85927268D01*
X119577806Y-85931100D01*
X119723227Y-86089069D01*
X119723231Y-86089073D01*
X119726760Y-86092906D01*
X119904424Y-86231189D01*
X120102426Y-86338342D01*
X120107355Y-86340034D01*
X120107357Y-86340035D01*
X120185010Y-86366693D01*
X120315365Y-86411444D01*
X120537431Y-86448500D01*
X120757358Y-86448500D01*
X120762569Y-86448500D01*
X120984635Y-86411444D01*
X121197574Y-86338342D01*
X121395576Y-86231189D01*
X121573240Y-86092906D01*
X121725722Y-85927268D01*
X121848860Y-85738791D01*
X121939296Y-85532616D01*
X121994564Y-85314368D01*
X122013156Y-85090000D01*
X121994564Y-84865632D01*
X121952620Y-84700000D01*
X162041620Y-84700000D01*
X162042227Y-84706163D01*
X162060484Y-84891538D01*
X162060485Y-84891547D01*
X162061092Y-84897701D01*
X162118759Y-85087804D01*
X162212405Y-85263004D01*
X162338432Y-85416568D01*
X162491996Y-85542595D01*
X162667196Y-85636241D01*
X162857299Y-85693908D01*
X162863460Y-85694514D01*
X162863461Y-85694515D01*
X163048837Y-85712773D01*
X163055000Y-85713380D01*
X163252701Y-85693908D01*
X163442804Y-85636241D01*
X163618004Y-85542595D01*
X163771568Y-85416568D01*
X163897595Y-85263004D01*
X163991241Y-85087804D01*
X164048908Y-84897701D01*
X164068380Y-84700000D01*
X164048908Y-84502299D01*
X163991241Y-84312196D01*
X163897595Y-84136996D01*
X163895099Y-84133954D01*
X163876718Y-84089584D01*
X163876718Y-84040416D01*
X163895099Y-83996045D01*
X163897595Y-83993004D01*
X163991241Y-83817804D01*
X164048908Y-83627701D01*
X164068380Y-83430000D01*
X164048908Y-83232299D01*
X163991241Y-83042196D01*
X163897595Y-82866996D01*
X163895099Y-82863954D01*
X163876718Y-82819584D01*
X163876718Y-82770416D01*
X163895099Y-82726045D01*
X163897595Y-82723004D01*
X163991241Y-82547804D01*
X164048908Y-82357701D01*
X164068380Y-82160000D01*
X164048908Y-81962299D01*
X163991241Y-81772196D01*
X163897595Y-81596996D01*
X163894864Y-81593669D01*
X163876416Y-81549125D01*
X163876416Y-81499963D01*
X163895231Y-81454543D01*
X163900092Y-81447266D01*
X163987857Y-81283071D01*
X163992573Y-81271685D01*
X164011612Y-81208922D01*
X164012317Y-81197454D01*
X164001142Y-81194800D01*
X163366031Y-81194800D01*
X163329455Y-81189375D01*
X163258623Y-81167888D01*
X163258619Y-81167887D01*
X163252701Y-81166092D01*
X163246547Y-81165485D01*
X163246538Y-81165484D01*
X163061163Y-81147227D01*
X163055000Y-81146620D01*
X163048837Y-81147227D01*
X162863461Y-81165484D01*
X162863450Y-81165486D01*
X162857299Y-81166092D01*
X162851382Y-81167886D01*
X162851376Y-81167888D01*
X162780545Y-81189375D01*
X162743969Y-81194800D01*
X162108858Y-81194800D01*
X162097682Y-81197454D01*
X162098387Y-81208922D01*
X162117426Y-81271685D01*
X162122142Y-81283071D01*
X162209907Y-81447266D01*
X162214769Y-81454543D01*
X162233584Y-81499963D01*
X162233584Y-81549125D01*
X162215135Y-81593669D01*
X162212405Y-81596996D01*
X162209487Y-81602454D01*
X162209485Y-81602458D01*
X162121678Y-81766734D01*
X162118759Y-81772196D01*
X162116963Y-81778116D01*
X162116962Y-81778119D01*
X162062888Y-81956376D01*
X162062886Y-81956382D01*
X162061092Y-81962299D01*
X162060486Y-81968450D01*
X162060484Y-81968461D01*
X162042227Y-82153837D01*
X162041620Y-82160000D01*
X162042227Y-82166163D01*
X162060484Y-82351538D01*
X162060485Y-82351547D01*
X162061092Y-82357701D01*
X162118759Y-82547804D01*
X162121678Y-82553265D01*
X162209488Y-82717548D01*
X162209491Y-82717553D01*
X162212405Y-82723004D01*
X162214901Y-82726046D01*
X162233280Y-82770421D01*
X162233280Y-82819579D01*
X162214901Y-82863953D01*
X162212405Y-82866996D01*
X162209494Y-82872441D01*
X162209488Y-82872451D01*
X162121678Y-83036734D01*
X162118759Y-83042196D01*
X162116963Y-83048116D01*
X162116962Y-83048119D01*
X162062888Y-83226376D01*
X162062886Y-83226382D01*
X162061092Y-83232299D01*
X162060486Y-83238450D01*
X162060484Y-83238461D01*
X162042227Y-83423837D01*
X162041620Y-83430000D01*
X162042227Y-83436163D01*
X162060484Y-83621538D01*
X162060485Y-83621547D01*
X162061092Y-83627701D01*
X162062887Y-83633619D01*
X162062888Y-83633623D01*
X162103707Y-83768185D01*
X162118759Y-83817804D01*
X162121678Y-83823265D01*
X162209488Y-83987548D01*
X162209491Y-83987553D01*
X162212405Y-83993004D01*
X162214901Y-83996046D01*
X162233280Y-84040421D01*
X162233280Y-84089579D01*
X162214901Y-84133953D01*
X162212405Y-84136996D01*
X162209494Y-84142441D01*
X162209488Y-84142451D01*
X162121678Y-84306734D01*
X162118759Y-84312196D01*
X162116963Y-84318116D01*
X162116962Y-84318119D01*
X162062888Y-84496376D01*
X162062886Y-84496382D01*
X162061092Y-84502299D01*
X162060486Y-84508450D01*
X162060484Y-84508461D01*
X162047273Y-84642606D01*
X162041620Y-84700000D01*
X121952620Y-84700000D01*
X121939296Y-84647384D01*
X121848860Y-84441209D01*
X121725722Y-84252732D01*
X121634245Y-84153362D01*
X121576772Y-84090930D01*
X121576767Y-84090925D01*
X121573240Y-84087094D01*
X121395576Y-83948811D01*
X121390997Y-83946333D01*
X121390994Y-83946331D01*
X121202159Y-83844139D01*
X121202156Y-83844137D01*
X121197574Y-83841658D01*
X121192650Y-83839967D01*
X121192642Y-83839964D01*
X120989565Y-83770248D01*
X120989559Y-83770246D01*
X120984635Y-83768556D01*
X120979498Y-83767698D01*
X120979495Y-83767698D01*
X120767706Y-83732357D01*
X120767703Y-83732356D01*
X120762569Y-83731500D01*
X120537431Y-83731500D01*
X120532297Y-83732356D01*
X120532293Y-83732357D01*
X120320504Y-83767698D01*
X120320498Y-83767699D01*
X120315365Y-83768556D01*
X120310443Y-83770245D01*
X120310434Y-83770248D01*
X120107357Y-83839964D01*
X120107344Y-83839969D01*
X120102426Y-83841658D01*
X120097847Y-83844135D01*
X120097840Y-83844139D01*
X119909005Y-83946331D01*
X119908997Y-83946336D01*
X119904424Y-83948811D01*
X119900313Y-83952010D01*
X119900311Y-83952012D01*
X119730878Y-84083888D01*
X119730872Y-84083893D01*
X119726760Y-84087094D01*
X119723237Y-84090919D01*
X119723227Y-84090930D01*
X119577806Y-84248899D01*
X119577802Y-84248902D01*
X119574278Y-84252732D01*
X119571430Y-84257090D01*
X119571427Y-84257095D01*
X119485483Y-84388643D01*
X119439969Y-84430542D01*
X119380000Y-84445728D01*
X119320031Y-84430542D01*
X119274517Y-84388643D01*
X119228441Y-84318119D01*
X119185722Y-84252732D01*
X119094245Y-84153362D01*
X119036772Y-84090930D01*
X119036767Y-84090925D01*
X119033240Y-84087094D01*
X118855576Y-83948811D01*
X118850997Y-83946333D01*
X118850994Y-83946331D01*
X118662159Y-83844139D01*
X118662156Y-83844137D01*
X118657574Y-83841658D01*
X118652650Y-83839967D01*
X118652642Y-83839964D01*
X118449565Y-83770248D01*
X118449559Y-83770246D01*
X118444635Y-83768556D01*
X118439498Y-83767698D01*
X118439495Y-83767698D01*
X118227706Y-83732357D01*
X118227703Y-83732356D01*
X118222569Y-83731500D01*
X117997431Y-83731500D01*
X117992297Y-83732356D01*
X117992293Y-83732357D01*
X117780504Y-83767698D01*
X117780498Y-83767699D01*
X117775365Y-83768556D01*
X117770443Y-83770245D01*
X117770434Y-83770248D01*
X117567357Y-83839964D01*
X117567344Y-83839969D01*
X117562426Y-83841658D01*
X117557847Y-83844135D01*
X117557840Y-83844139D01*
X117369005Y-83946331D01*
X117368997Y-83946336D01*
X117364424Y-83948811D01*
X117360313Y-83952010D01*
X117360311Y-83952012D01*
X117190878Y-84083888D01*
X117190872Y-84083893D01*
X117186760Y-84087094D01*
X117183237Y-84090919D01*
X117183227Y-84090930D01*
X117037806Y-84248899D01*
X117037802Y-84248902D01*
X117034278Y-84252732D01*
X116945184Y-84389101D01*
X116899670Y-84430999D01*
X116839701Y-84446185D01*
X116779732Y-84430999D01*
X116734218Y-84389101D01*
X116648177Y-84257407D01*
X116641789Y-84249200D01*
X116496432Y-84091299D01*
X116488788Y-84084262D01*
X116319411Y-83952431D01*
X116310718Y-83946752D01*
X116121957Y-83844599D01*
X116112440Y-83840424D01*
X115909442Y-83770735D01*
X115899372Y-83768185D01*
X115888338Y-83766344D01*
X115877201Y-83766920D01*
X115874800Y-83777813D01*
X115874800Y-86402187D01*
X115265200Y-86402187D01*
X115265200Y-83777813D01*
X115262798Y-83766920D01*
X115251661Y-83766344D01*
X115240627Y-83768185D01*
X115230557Y-83770735D01*
X115027559Y-83840424D01*
X115018042Y-83844599D01*
X114829281Y-83946752D01*
X114820588Y-83952431D01*
X114651211Y-84084262D01*
X114643567Y-84091299D01*
X114498210Y-84249200D01*
X114491816Y-84257415D01*
X114405780Y-84389101D01*
X114360267Y-84430999D01*
X114300297Y-84446185D01*
X114240328Y-84430998D01*
X114194816Y-84389101D01*
X114105722Y-84252732D01*
X114014245Y-84153362D01*
X113956772Y-84090930D01*
X113956767Y-84090925D01*
X113953240Y-84087094D01*
X113775576Y-83948811D01*
X113770997Y-83946333D01*
X113770994Y-83946331D01*
X113582159Y-83844139D01*
X113582156Y-83844137D01*
X113577574Y-83841658D01*
X113572650Y-83839967D01*
X113572642Y-83839964D01*
X113369565Y-83770248D01*
X113369559Y-83770246D01*
X113364635Y-83768556D01*
X113359498Y-83767698D01*
X113359495Y-83767698D01*
X113147706Y-83732357D01*
X113147703Y-83732356D01*
X113142569Y-83731500D01*
X112917431Y-83731500D01*
X112912297Y-83732356D01*
X112912293Y-83732357D01*
X112700504Y-83767698D01*
X112700498Y-83767699D01*
X112695365Y-83768556D01*
X112690443Y-83770245D01*
X112690434Y-83770248D01*
X112487357Y-83839964D01*
X112487344Y-83839969D01*
X112482426Y-83841658D01*
X112477847Y-83844135D01*
X112477840Y-83844139D01*
X112289005Y-83946331D01*
X112288997Y-83946336D01*
X112284424Y-83948811D01*
X112280313Y-83952010D01*
X112280311Y-83952012D01*
X112110878Y-84083888D01*
X112110872Y-84083893D01*
X112106760Y-84087094D01*
X112103237Y-84090919D01*
X112103227Y-84090930D01*
X111957806Y-84248899D01*
X111957802Y-84248902D01*
X111954278Y-84252732D01*
X111951430Y-84257090D01*
X111951427Y-84257095D01*
X111865483Y-84388643D01*
X111819969Y-84430542D01*
X111760000Y-84445728D01*
X111700031Y-84430542D01*
X111654517Y-84388643D01*
X111608441Y-84318119D01*
X111565722Y-84252732D01*
X111474245Y-84153362D01*
X111416772Y-84090930D01*
X111416767Y-84090925D01*
X111413240Y-84087094D01*
X111235576Y-83948811D01*
X111230997Y-83946333D01*
X111230994Y-83946331D01*
X111042159Y-83844139D01*
X111042156Y-83844137D01*
X111037574Y-83841658D01*
X111032650Y-83839967D01*
X111032642Y-83839964D01*
X110829565Y-83770248D01*
X110829559Y-83770246D01*
X110824635Y-83768556D01*
X110819498Y-83767698D01*
X110819495Y-83767698D01*
X110607706Y-83732357D01*
X110607703Y-83732356D01*
X110602569Y-83731500D01*
X110377431Y-83731500D01*
X110372297Y-83732356D01*
X110372293Y-83732357D01*
X110160504Y-83767698D01*
X110160498Y-83767699D01*
X110155365Y-83768556D01*
X110150443Y-83770245D01*
X110150434Y-83770248D01*
X109947357Y-83839964D01*
X109947344Y-83839969D01*
X109942426Y-83841658D01*
X109937847Y-83844135D01*
X109937840Y-83844139D01*
X109749005Y-83946331D01*
X109748997Y-83946336D01*
X109744424Y-83948811D01*
X109740313Y-83952010D01*
X109740311Y-83952012D01*
X109570878Y-84083888D01*
X109570872Y-84083893D01*
X109566760Y-84087094D01*
X109563237Y-84090919D01*
X109563227Y-84090930D01*
X109417806Y-84248899D01*
X109417802Y-84248902D01*
X109414278Y-84252732D01*
X109411430Y-84257090D01*
X109411427Y-84257095D01*
X109325483Y-84388643D01*
X109279969Y-84430542D01*
X109220000Y-84445728D01*
X109160031Y-84430542D01*
X109114517Y-84388643D01*
X109068441Y-84318119D01*
X109025722Y-84252732D01*
X108934245Y-84153362D01*
X108876772Y-84090930D01*
X108876767Y-84090925D01*
X108873240Y-84087094D01*
X108695576Y-83948811D01*
X108690997Y-83946333D01*
X108690994Y-83946331D01*
X108502159Y-83844139D01*
X108502156Y-83844137D01*
X108497574Y-83841658D01*
X108492650Y-83839967D01*
X108492642Y-83839964D01*
X108289565Y-83770248D01*
X108289559Y-83770246D01*
X108284635Y-83768556D01*
X108279498Y-83767698D01*
X108279495Y-83767698D01*
X108067706Y-83732357D01*
X108067703Y-83732356D01*
X108062569Y-83731500D01*
X107837431Y-83731500D01*
X107832297Y-83732356D01*
X107832293Y-83732357D01*
X107620504Y-83767698D01*
X107620498Y-83767699D01*
X107615365Y-83768556D01*
X107610443Y-83770245D01*
X107610434Y-83770248D01*
X107407357Y-83839964D01*
X107407344Y-83839969D01*
X107402426Y-83841658D01*
X107397847Y-83844135D01*
X107397840Y-83844139D01*
X107209005Y-83946331D01*
X107208997Y-83946336D01*
X107204424Y-83948811D01*
X107200313Y-83952010D01*
X107200311Y-83952012D01*
X107030878Y-84083888D01*
X107030872Y-84083893D01*
X107026760Y-84087094D01*
X107023237Y-84090919D01*
X107023227Y-84090930D01*
X106877806Y-84248899D01*
X106877802Y-84248902D01*
X106874278Y-84252732D01*
X106871430Y-84257090D01*
X106871427Y-84257095D01*
X106785483Y-84388643D01*
X106739969Y-84430542D01*
X106680000Y-84445728D01*
X106620031Y-84430542D01*
X106574517Y-84388643D01*
X106528441Y-84318119D01*
X106485722Y-84252732D01*
X106394245Y-84153362D01*
X106336772Y-84090930D01*
X106336767Y-84090925D01*
X106333240Y-84087094D01*
X106155576Y-83948811D01*
X106150997Y-83946333D01*
X106150994Y-83946331D01*
X105962159Y-83844139D01*
X105962156Y-83844137D01*
X105957574Y-83841658D01*
X105952650Y-83839967D01*
X105952642Y-83839964D01*
X105749565Y-83770248D01*
X105749559Y-83770246D01*
X105744635Y-83768556D01*
X105739498Y-83767698D01*
X105739495Y-83767698D01*
X105527706Y-83732357D01*
X105527703Y-83732356D01*
X105522569Y-83731500D01*
X105297431Y-83731500D01*
X105292297Y-83732356D01*
X105292293Y-83732357D01*
X105080504Y-83767698D01*
X105080498Y-83767699D01*
X105075365Y-83768556D01*
X105070443Y-83770245D01*
X105070434Y-83770248D01*
X104867357Y-83839964D01*
X104867344Y-83839969D01*
X104862426Y-83841658D01*
X104857847Y-83844135D01*
X104857840Y-83844139D01*
X104669005Y-83946331D01*
X104668997Y-83946336D01*
X104664424Y-83948811D01*
X104660313Y-83952010D01*
X104660311Y-83952012D01*
X104490878Y-84083888D01*
X104490872Y-84083893D01*
X104486760Y-84087094D01*
X104483237Y-84090919D01*
X104483227Y-84090930D01*
X104337806Y-84248899D01*
X104337802Y-84248902D01*
X104334278Y-84252732D01*
X104245184Y-84389101D01*
X104199670Y-84430999D01*
X104139701Y-84446185D01*
X104079732Y-84430999D01*
X104034218Y-84389101D01*
X103948177Y-84257407D01*
X103941789Y-84249200D01*
X103796432Y-84091299D01*
X103788788Y-84084262D01*
X103619411Y-83952431D01*
X103610718Y-83946752D01*
X103421957Y-83844599D01*
X103412440Y-83840424D01*
X103209442Y-83770735D01*
X103199372Y-83768185D01*
X103188338Y-83766344D01*
X103177201Y-83766920D01*
X103174800Y-83777813D01*
X103174800Y-86402187D01*
X102565200Y-86402187D01*
X102565200Y-83777813D01*
X102562798Y-83766920D01*
X102551661Y-83766344D01*
X102540627Y-83768185D01*
X102530557Y-83770735D01*
X102327559Y-83840424D01*
X102318042Y-83844599D01*
X102129281Y-83946752D01*
X102120588Y-83952431D01*
X101951211Y-84084262D01*
X101943567Y-84091299D01*
X101798210Y-84249200D01*
X101791816Y-84257415D01*
X101705780Y-84389101D01*
X101660267Y-84430999D01*
X101600297Y-84446185D01*
X101540328Y-84430998D01*
X101494816Y-84389101D01*
X101405722Y-84252732D01*
X101314245Y-84153362D01*
X101256772Y-84090930D01*
X101256767Y-84090925D01*
X101253240Y-84087094D01*
X101075576Y-83948811D01*
X101070997Y-83946333D01*
X101070994Y-83946331D01*
X100882159Y-83844139D01*
X100882156Y-83844137D01*
X100877574Y-83841658D01*
X100872650Y-83839967D01*
X100872642Y-83839964D01*
X100669565Y-83770248D01*
X100669559Y-83770246D01*
X100664635Y-83768556D01*
X100659498Y-83767698D01*
X100659495Y-83767698D01*
X100447706Y-83732357D01*
X100447703Y-83732356D01*
X100442569Y-83731500D01*
X100217431Y-83731500D01*
X100212297Y-83732356D01*
X100212293Y-83732357D01*
X100000504Y-83767698D01*
X100000498Y-83767699D01*
X99995365Y-83768556D01*
X99990443Y-83770245D01*
X99990434Y-83770248D01*
X99787357Y-83839964D01*
X99787344Y-83839969D01*
X99782426Y-83841658D01*
X99777847Y-83844135D01*
X99777840Y-83844139D01*
X99589005Y-83946331D01*
X99588997Y-83946336D01*
X99584424Y-83948811D01*
X99580313Y-83952010D01*
X99580311Y-83952012D01*
X99410878Y-84083888D01*
X99410872Y-84083893D01*
X99406760Y-84087094D01*
X99403237Y-84090919D01*
X99403227Y-84090930D01*
X99257806Y-84248899D01*
X99257802Y-84248902D01*
X99254278Y-84252732D01*
X99251430Y-84257090D01*
X99251427Y-84257095D01*
X99165483Y-84388643D01*
X99119969Y-84430542D01*
X99060000Y-84445728D01*
X99000031Y-84430542D01*
X98954517Y-84388643D01*
X98908441Y-84318119D01*
X98865722Y-84252732D01*
X98774245Y-84153362D01*
X98716772Y-84090930D01*
X98716767Y-84090925D01*
X98713240Y-84087094D01*
X98535576Y-83948811D01*
X98530997Y-83946333D01*
X98530994Y-83946331D01*
X98342159Y-83844139D01*
X98342156Y-83844137D01*
X98337574Y-83841658D01*
X98332650Y-83839967D01*
X98332642Y-83839964D01*
X98129565Y-83770248D01*
X98129559Y-83770246D01*
X98124635Y-83768556D01*
X98119498Y-83767698D01*
X98119495Y-83767698D01*
X97907706Y-83732357D01*
X97907703Y-83732356D01*
X97902569Y-83731500D01*
X97677431Y-83731500D01*
X97672297Y-83732356D01*
X97672293Y-83732357D01*
X97460504Y-83767698D01*
X97460498Y-83767699D01*
X97455365Y-83768556D01*
X97450443Y-83770245D01*
X97450434Y-83770248D01*
X97247357Y-83839964D01*
X97247344Y-83839969D01*
X97242426Y-83841658D01*
X97237847Y-83844135D01*
X97237840Y-83844139D01*
X97049005Y-83946331D01*
X97048997Y-83946336D01*
X97044424Y-83948811D01*
X97040313Y-83952010D01*
X97040311Y-83952012D01*
X96870878Y-84083888D01*
X96870872Y-84083893D01*
X96866760Y-84087094D01*
X96863237Y-84090919D01*
X96863227Y-84090930D01*
X96717806Y-84248899D01*
X96717802Y-84248902D01*
X96714278Y-84252732D01*
X96711430Y-84257090D01*
X96711427Y-84257095D01*
X96625483Y-84388643D01*
X96579969Y-84430542D01*
X96520000Y-84445728D01*
X96460031Y-84430542D01*
X96414517Y-84388643D01*
X96368441Y-84318119D01*
X96325722Y-84252732D01*
X96234245Y-84153362D01*
X96176772Y-84090930D01*
X96176767Y-84090925D01*
X96173240Y-84087094D01*
X95995576Y-83948811D01*
X95990997Y-83946333D01*
X95990994Y-83946331D01*
X95802159Y-83844139D01*
X95802156Y-83844137D01*
X95797574Y-83841658D01*
X95792650Y-83839967D01*
X95792642Y-83839964D01*
X95589565Y-83770248D01*
X95589559Y-83770246D01*
X95584635Y-83768556D01*
X95579498Y-83767698D01*
X95579495Y-83767698D01*
X95367706Y-83732357D01*
X95367703Y-83732356D01*
X95362569Y-83731500D01*
X95137431Y-83731500D01*
X95132297Y-83732356D01*
X95132293Y-83732357D01*
X94920504Y-83767698D01*
X94920498Y-83767699D01*
X94915365Y-83768556D01*
X94910443Y-83770245D01*
X94910434Y-83770248D01*
X94707357Y-83839964D01*
X94707344Y-83839969D01*
X94702426Y-83841658D01*
X94697847Y-83844135D01*
X94697840Y-83844139D01*
X94509005Y-83946331D01*
X94508997Y-83946336D01*
X94504424Y-83948811D01*
X94500313Y-83952010D01*
X94500311Y-83952012D01*
X94330878Y-84083888D01*
X94330872Y-84083893D01*
X94326760Y-84087094D01*
X94323237Y-84090919D01*
X94323227Y-84090930D01*
X94177806Y-84248899D01*
X94177802Y-84248902D01*
X94174278Y-84252732D01*
X94171430Y-84257090D01*
X94171427Y-84257095D01*
X94085483Y-84388643D01*
X94039969Y-84430542D01*
X93980000Y-84445728D01*
X93920031Y-84430542D01*
X93874517Y-84388643D01*
X93828441Y-84318119D01*
X93785722Y-84252732D01*
X93694245Y-84153362D01*
X93636772Y-84090930D01*
X93636767Y-84090925D01*
X93633240Y-84087094D01*
X93455576Y-83948811D01*
X93450997Y-83946333D01*
X93450994Y-83946331D01*
X93262159Y-83844139D01*
X93262156Y-83844137D01*
X93257574Y-83841658D01*
X93252650Y-83839967D01*
X93252642Y-83839964D01*
X93049565Y-83770248D01*
X93049559Y-83770246D01*
X93044635Y-83768556D01*
X93039498Y-83767698D01*
X93039495Y-83767698D01*
X92827706Y-83732357D01*
X92827703Y-83732356D01*
X92822569Y-83731500D01*
X92597431Y-83731500D01*
X92592297Y-83732356D01*
X92592293Y-83732357D01*
X92380504Y-83767698D01*
X92380498Y-83767699D01*
X92375365Y-83768556D01*
X92370443Y-83770245D01*
X92370434Y-83770248D01*
X92167357Y-83839964D01*
X92167344Y-83839969D01*
X92162426Y-83841658D01*
X92157847Y-83844135D01*
X92157840Y-83844139D01*
X91969005Y-83946331D01*
X91968997Y-83946336D01*
X91964424Y-83948811D01*
X91960313Y-83952010D01*
X91960311Y-83952012D01*
X91790878Y-84083888D01*
X91790872Y-84083893D01*
X91786760Y-84087094D01*
X91783237Y-84090919D01*
X91783227Y-84090930D01*
X91637806Y-84248899D01*
X91637802Y-84248902D01*
X91634278Y-84252732D01*
X91545184Y-84389101D01*
X91499670Y-84430999D01*
X91439701Y-84446185D01*
X91379732Y-84430999D01*
X91334218Y-84389101D01*
X91248177Y-84257407D01*
X91241789Y-84249200D01*
X91096432Y-84091299D01*
X91088788Y-84084262D01*
X90919411Y-83952431D01*
X90910718Y-83946752D01*
X90721957Y-83844599D01*
X90712440Y-83840424D01*
X90509442Y-83770735D01*
X90499372Y-83768185D01*
X90488338Y-83766344D01*
X90477201Y-83766920D01*
X90474800Y-83777813D01*
X90474800Y-86402187D01*
X89865200Y-86402187D01*
X89865200Y-83777813D01*
X89862798Y-83766920D01*
X89851661Y-83766344D01*
X89840627Y-83768185D01*
X89830557Y-83770735D01*
X89627559Y-83840424D01*
X89618042Y-83844599D01*
X89429281Y-83946752D01*
X89420588Y-83952431D01*
X89251211Y-84084262D01*
X89243567Y-84091299D01*
X89098210Y-84249200D01*
X89091816Y-84257415D01*
X89005780Y-84389101D01*
X88960267Y-84430999D01*
X88900297Y-84446185D01*
X88840328Y-84430998D01*
X88794816Y-84389101D01*
X88705722Y-84252732D01*
X88614245Y-84153362D01*
X88556772Y-84090930D01*
X88556767Y-84090925D01*
X88553240Y-84087094D01*
X88375576Y-83948811D01*
X88370997Y-83946333D01*
X88370994Y-83946331D01*
X88182159Y-83844139D01*
X88182156Y-83844137D01*
X88177574Y-83841658D01*
X88172650Y-83839967D01*
X88172642Y-83839964D01*
X87969565Y-83770248D01*
X87969559Y-83770246D01*
X87964635Y-83768556D01*
X87959498Y-83767698D01*
X87959495Y-83767698D01*
X87747706Y-83732357D01*
X87747703Y-83732356D01*
X87742569Y-83731500D01*
X87517431Y-83731500D01*
X87512297Y-83732356D01*
X87512293Y-83732357D01*
X87300504Y-83767698D01*
X87300498Y-83767699D01*
X87295365Y-83768556D01*
X87290443Y-83770245D01*
X87290434Y-83770248D01*
X87087357Y-83839964D01*
X87087344Y-83839969D01*
X87082426Y-83841658D01*
X87077847Y-83844135D01*
X87077840Y-83844139D01*
X86889005Y-83946331D01*
X86888997Y-83946336D01*
X86884424Y-83948811D01*
X86880313Y-83952010D01*
X86880311Y-83952012D01*
X86710878Y-84083888D01*
X86710872Y-84083893D01*
X86706760Y-84087094D01*
X86703237Y-84090919D01*
X86703227Y-84090930D01*
X86557806Y-84248899D01*
X86557802Y-84248902D01*
X86554278Y-84252732D01*
X86551430Y-84257090D01*
X86551427Y-84257095D01*
X86465483Y-84388643D01*
X86419969Y-84430542D01*
X86360000Y-84445728D01*
X86300031Y-84430542D01*
X86254517Y-84388643D01*
X86208441Y-84318119D01*
X86165722Y-84252732D01*
X86074245Y-84153362D01*
X86016772Y-84090930D01*
X86016767Y-84090925D01*
X86013240Y-84087094D01*
X85835576Y-83948811D01*
X85830997Y-83946333D01*
X85830994Y-83946331D01*
X85642159Y-83844139D01*
X85642156Y-83844137D01*
X85637574Y-83841658D01*
X85632650Y-83839967D01*
X85632642Y-83839964D01*
X85429565Y-83770248D01*
X85429559Y-83770246D01*
X85424635Y-83768556D01*
X85419498Y-83767698D01*
X85419495Y-83767698D01*
X85207706Y-83732357D01*
X85207703Y-83732356D01*
X85202569Y-83731500D01*
X84977431Y-83731500D01*
X84972297Y-83732356D01*
X84972293Y-83732357D01*
X84760504Y-83767698D01*
X84760498Y-83767699D01*
X84755365Y-83768556D01*
X84750443Y-83770245D01*
X84750434Y-83770248D01*
X84547357Y-83839964D01*
X84547344Y-83839969D01*
X84542426Y-83841658D01*
X84537847Y-83844135D01*
X84537840Y-83844139D01*
X84349005Y-83946331D01*
X84348997Y-83946336D01*
X84344424Y-83948811D01*
X84340313Y-83952010D01*
X84340311Y-83952012D01*
X84170878Y-84083888D01*
X84170872Y-84083893D01*
X84166760Y-84087094D01*
X84163237Y-84090919D01*
X84163227Y-84090930D01*
X84017806Y-84248899D01*
X84017802Y-84248902D01*
X84014278Y-84252732D01*
X84011430Y-84257090D01*
X84011427Y-84257095D01*
X83925483Y-84388643D01*
X83879969Y-84430542D01*
X83820000Y-84445728D01*
X83760031Y-84430542D01*
X83714517Y-84388643D01*
X83668441Y-84318119D01*
X83625722Y-84252732D01*
X83534245Y-84153362D01*
X83476772Y-84090930D01*
X83476767Y-84090925D01*
X83473240Y-84087094D01*
X83295576Y-83948811D01*
X83290997Y-83946333D01*
X83290994Y-83946331D01*
X83102159Y-83844139D01*
X83102156Y-83844137D01*
X83097574Y-83841658D01*
X83092650Y-83839967D01*
X83092642Y-83839964D01*
X82889565Y-83770248D01*
X82889559Y-83770246D01*
X82884635Y-83768556D01*
X82879498Y-83767698D01*
X82879495Y-83767698D01*
X82667706Y-83732357D01*
X82667703Y-83732356D01*
X82662569Y-83731500D01*
X82437431Y-83731500D01*
X82432297Y-83732356D01*
X82432293Y-83732357D01*
X82220504Y-83767698D01*
X82220498Y-83767699D01*
X82215365Y-83768556D01*
X82210443Y-83770245D01*
X82210434Y-83770248D01*
X82007357Y-83839964D01*
X82007344Y-83839969D01*
X82002426Y-83841658D01*
X81997847Y-83844135D01*
X81997840Y-83844139D01*
X81809005Y-83946331D01*
X81808997Y-83946336D01*
X81804424Y-83948811D01*
X81800313Y-83952010D01*
X81800311Y-83952012D01*
X81630878Y-84083888D01*
X81630872Y-84083893D01*
X81626760Y-84087094D01*
X81623237Y-84090919D01*
X81623227Y-84090930D01*
X81477806Y-84248899D01*
X81477802Y-84248902D01*
X81474278Y-84252732D01*
X81471430Y-84257090D01*
X81471427Y-84257095D01*
X81385483Y-84388643D01*
X81339969Y-84430542D01*
X81280000Y-84445728D01*
X81220031Y-84430542D01*
X81174517Y-84388643D01*
X81128441Y-84318119D01*
X81085722Y-84252732D01*
X80994245Y-84153362D01*
X80936772Y-84090930D01*
X80936767Y-84090925D01*
X80933240Y-84087094D01*
X80755576Y-83948811D01*
X80750997Y-83946333D01*
X80750994Y-83946331D01*
X80562159Y-83844139D01*
X80562156Y-83844137D01*
X80557574Y-83841658D01*
X80552650Y-83839967D01*
X80552642Y-83839964D01*
X80349565Y-83770248D01*
X80349559Y-83770246D01*
X80344635Y-83768556D01*
X80339498Y-83767698D01*
X80339495Y-83767698D01*
X80127706Y-83732357D01*
X80127703Y-83732356D01*
X80122569Y-83731500D01*
X79897431Y-83731500D01*
X79892297Y-83732356D01*
X79892293Y-83732357D01*
X79680504Y-83767698D01*
X79680498Y-83767699D01*
X79675365Y-83768556D01*
X79670443Y-83770245D01*
X79670434Y-83770248D01*
X79467357Y-83839964D01*
X79467344Y-83839969D01*
X79462426Y-83841658D01*
X79457847Y-83844135D01*
X79457840Y-83844139D01*
X79269005Y-83946331D01*
X79268997Y-83946336D01*
X79264424Y-83948811D01*
X79260313Y-83952010D01*
X79260311Y-83952012D01*
X79090878Y-84083888D01*
X79090872Y-84083893D01*
X79086760Y-84087094D01*
X79083237Y-84090919D01*
X79083227Y-84090930D01*
X78937806Y-84248899D01*
X78937802Y-84248902D01*
X78934278Y-84252732D01*
X78845184Y-84389101D01*
X78799670Y-84430999D01*
X78739701Y-84446185D01*
X78679732Y-84430999D01*
X78634218Y-84389101D01*
X78548177Y-84257407D01*
X78541789Y-84249200D01*
X78396432Y-84091299D01*
X78388788Y-84084262D01*
X78219411Y-83952431D01*
X78210718Y-83946752D01*
X78021957Y-83844599D01*
X78012440Y-83840424D01*
X77809442Y-83770735D01*
X77799372Y-83768185D01*
X77788338Y-83766344D01*
X77777201Y-83766920D01*
X77774800Y-83777813D01*
X77774800Y-86402187D01*
X77165200Y-86402187D01*
X77165200Y-83777813D01*
X77162798Y-83766920D01*
X77151661Y-83766344D01*
X77140627Y-83768185D01*
X77130557Y-83770735D01*
X76927559Y-83840424D01*
X76918042Y-83844599D01*
X76729281Y-83946752D01*
X76720588Y-83952431D01*
X76551211Y-84084262D01*
X76543567Y-84091299D01*
X76398210Y-84249200D01*
X76391816Y-84257415D01*
X76305780Y-84389101D01*
X76260267Y-84430999D01*
X76200297Y-84446185D01*
X76140328Y-84430998D01*
X76094816Y-84389101D01*
X76005722Y-84252732D01*
X75914245Y-84153362D01*
X75856772Y-84090930D01*
X75856767Y-84090925D01*
X75853240Y-84087094D01*
X75675576Y-83948811D01*
X75670997Y-83946333D01*
X75670994Y-83946331D01*
X75482159Y-83844139D01*
X75482156Y-83844137D01*
X75477574Y-83841658D01*
X75472650Y-83839967D01*
X75472642Y-83839964D01*
X75269565Y-83770248D01*
X75269559Y-83770246D01*
X75264635Y-83768556D01*
X75259498Y-83767698D01*
X75259495Y-83767698D01*
X75047706Y-83732357D01*
X75047703Y-83732356D01*
X75042569Y-83731500D01*
X74817431Y-83731500D01*
X74812297Y-83732356D01*
X74812293Y-83732357D01*
X74600504Y-83767698D01*
X74600498Y-83767699D01*
X74595365Y-83768556D01*
X74590443Y-83770245D01*
X74590434Y-83770248D01*
X74387357Y-83839964D01*
X74387344Y-83839969D01*
X74382426Y-83841658D01*
X74377847Y-83844135D01*
X74377840Y-83844139D01*
X74189005Y-83946331D01*
X74188997Y-83946336D01*
X74184424Y-83948811D01*
X74180313Y-83952010D01*
X74180311Y-83952012D01*
X74010878Y-84083888D01*
X74010872Y-84083893D01*
X74006760Y-84087094D01*
X74003237Y-84090920D01*
X74003226Y-84090931D01*
X73945754Y-84153362D01*
X73892281Y-84187761D01*
X73828820Y-84191671D01*
X73771530Y-84164095D01*
X73734998Y-84112056D01*
X73726614Y-84089579D01*
X73690889Y-83993796D01*
X73659923Y-83952431D01*
X73608659Y-83883950D01*
X73603261Y-83876739D01*
X73596049Y-83871340D01*
X73493417Y-83794510D01*
X73493414Y-83794508D01*
X73486204Y-83789111D01*
X73477766Y-83785964D01*
X73477763Y-83785962D01*
X73356580Y-83740763D01*
X73356578Y-83740762D01*
X73349201Y-83738011D01*
X73341373Y-83737169D01*
X73341367Y-83737168D01*
X73291988Y-83731860D01*
X73291985Y-83731859D01*
X73288638Y-83731500D01*
X71491362Y-83731500D01*
X71488015Y-83731859D01*
X71488011Y-83731860D01*
X71438632Y-83737168D01*
X71438625Y-83737169D01*
X71430799Y-83738011D01*
X71423423Y-83740761D01*
X71423419Y-83740763D01*
X71302236Y-83785962D01*
X71302230Y-83785965D01*
X71293796Y-83789111D01*
X71286588Y-83794506D01*
X71286582Y-83794510D01*
X71183950Y-83871340D01*
X71183946Y-83871343D01*
X71176739Y-83876739D01*
X71171343Y-83883946D01*
X71171340Y-83883950D01*
X71093368Y-83988109D01*
X71044842Y-84027214D01*
X70983511Y-84038279D01*
X70924379Y-84018598D01*
X70881912Y-83972985D01*
X70866500Y-83912600D01*
X70866500Y-80582545D01*
X162097682Y-80582545D01*
X162108858Y-80585200D01*
X162733610Y-80585200D01*
X162746693Y-80581693D01*
X162750200Y-80568610D01*
X163359800Y-80568610D01*
X163363306Y-80581693D01*
X163376390Y-80585200D01*
X164001142Y-80585200D01*
X164012317Y-80582545D01*
X164011612Y-80571077D01*
X163992573Y-80508314D01*
X163987857Y-80496928D01*
X163900092Y-80332733D01*
X163894927Y-80325002D01*
X163876112Y-80279578D01*
X163876113Y-80230411D01*
X163894932Y-80184989D01*
X163900093Y-80177265D01*
X163987857Y-80013071D01*
X163992573Y-80001685D01*
X164011612Y-79938922D01*
X164012317Y-79927454D01*
X164001142Y-79924800D01*
X163376390Y-79924800D01*
X163363306Y-79928306D01*
X163359800Y-79941390D01*
X163359800Y-80568610D01*
X162750200Y-80568610D01*
X162750200Y-79941390D01*
X162746693Y-79928306D01*
X162733610Y-79924800D01*
X162108858Y-79924800D01*
X162097682Y-79927454D01*
X162098387Y-79938922D01*
X162117426Y-80001685D01*
X162122142Y-80013071D01*
X162209910Y-80177273D01*
X162215076Y-80185005D01*
X162233886Y-80230421D01*
X162233886Y-80279579D01*
X162215076Y-80324995D01*
X162209910Y-80332726D01*
X162122142Y-80496928D01*
X162117426Y-80508314D01*
X162098387Y-80571077D01*
X162097682Y-80582545D01*
X70866500Y-80582545D01*
X70866500Y-79114030D01*
X70882068Y-79053360D01*
X70924926Y-79007683D01*
X70984483Y-78988285D01*
X71046020Y-78999962D01*
X71094332Y-79039826D01*
X71117480Y-79098028D01*
X71117629Y-79099196D01*
X71117857Y-79104551D01*
X71122138Y-79124418D01*
X71124533Y-79140543D01*
X71125949Y-79157626D01*
X71127225Y-79162668D01*
X71127227Y-79162675D01*
X71147865Y-79244174D01*
X71148892Y-79248557D01*
X71149563Y-79251671D01*
X71168370Y-79338932D01*
X71170365Y-79343898D01*
X71170368Y-79343906D01*
X71174659Y-79354584D01*
X71179889Y-79370629D01*
X71181970Y-79378851D01*
X71183251Y-79383907D01*
X71220490Y-79468803D01*
X71222014Y-79472431D01*
X71257767Y-79561404D01*
X71260575Y-79565965D01*
X71260577Y-79565968D01*
X71264802Y-79572830D01*
X71272896Y-79588277D01*
X71277016Y-79597669D01*
X71329622Y-79678189D01*
X71331363Y-79680933D01*
X71383476Y-79765569D01*
X71387006Y-79769580D01*
X71387012Y-79769588D01*
X71390066Y-79773058D01*
X71400955Y-79787374D01*
X71401834Y-79788720D01*
X71401842Y-79788731D01*
X71404686Y-79793083D01*
X71408208Y-79796909D01*
X71408216Y-79796919D01*
X71472124Y-79866340D01*
X71473982Y-79868403D01*
X71491500Y-79888307D01*
X71536046Y-79938922D01*
X71541881Y-79945551D01*
X71546949Y-79949642D01*
X71555352Y-79957518D01*
X71555414Y-79957452D01*
X71559251Y-79960984D01*
X71562780Y-79964818D01*
X71566893Y-79968019D01*
X71566896Y-79968022D01*
X71644083Y-80028099D01*
X71645762Y-80029429D01*
X71728424Y-80096175D01*
X71733094Y-80098784D01*
X71734333Y-80099621D01*
X71738678Y-80102249D01*
X71742865Y-80104984D01*
X71746983Y-80108190D01*
X71751566Y-80110670D01*
X71751574Y-80110675D01*
X71840581Y-80158842D01*
X71842063Y-80159657D01*
X71896133Y-80189862D01*
X71937740Y-80213105D01*
X71942781Y-80214886D01*
X71944002Y-80215438D01*
X71948301Y-80217137D01*
X71952273Y-80219287D01*
X72056364Y-80255022D01*
X72057121Y-80255285D01*
X72163806Y-80292980D01*
X72169091Y-80293885D01*
X72170587Y-80294275D01*
X72170897Y-80294340D01*
X72173049Y-80295080D01*
X72284961Y-80313754D01*
X72285397Y-80313829D01*
X72394841Y-80332595D01*
X72400119Y-80333500D01*
X72403288Y-80333500D01*
X72579827Y-80333500D01*
X72631504Y-80333500D01*
X72636712Y-80333500D01*
X72690929Y-80324452D01*
X72700976Y-80323188D01*
X72758898Y-80318259D01*
X72808494Y-80305344D01*
X72819505Y-80302996D01*
X72866951Y-80295080D01*
X72895851Y-80285158D01*
X72922185Y-80276118D01*
X72931346Y-80273356D01*
X72990924Y-80257844D01*
X73034504Y-80238144D01*
X73045491Y-80233786D01*
X73087727Y-80219287D01*
X73142117Y-80189851D01*
X73150149Y-80185869D01*
X73209402Y-80159086D01*
X73246181Y-80134226D01*
X73256755Y-80127812D01*
X73293017Y-80108190D01*
X73344527Y-80068096D01*
X73351354Y-80063142D01*
X73403606Y-80027827D01*
X73403609Y-80027824D01*
X73408047Y-80024825D01*
X73437630Y-79996471D01*
X73447396Y-79988030D01*
X73477220Y-79964818D01*
X73523751Y-79914270D01*
X73529235Y-79908675D01*
X73581144Y-79858925D01*
X73603450Y-79828763D01*
X73612056Y-79818348D01*
X73631775Y-79796927D01*
X73635314Y-79793083D01*
X73674774Y-79732682D01*
X73678941Y-79726693D01*
X73723715Y-79666157D01*
X73739055Y-79635730D01*
X73746084Y-79623535D01*
X73747339Y-79621615D01*
X73762984Y-79597669D01*
X73784828Y-79547869D01*
X73793334Y-79528477D01*
X73796214Y-79522362D01*
X73804510Y-79505909D01*
X73831657Y-79452067D01*
X73840630Y-79422765D01*
X73845716Y-79409058D01*
X73856749Y-79383907D01*
X73876143Y-79307314D01*
X73877807Y-79301367D01*
X73890119Y-79261164D01*
X73901864Y-79222815D01*
X73905317Y-79195840D01*
X73908151Y-79180920D01*
X73914051Y-79157626D01*
X73920860Y-79075443D01*
X73921445Y-79069895D01*
X73932318Y-78984995D01*
X73931310Y-78961270D01*
X73931627Y-78945518D01*
X73932897Y-78930197D01*
X73932897Y-78930189D01*
X73933327Y-78925000D01*
X73926233Y-78839392D01*
X73925922Y-78834434D01*
X73922143Y-78745449D01*
X73917863Y-78725593D01*
X73915465Y-78709445D01*
X73914481Y-78697569D01*
X73914051Y-78692374D01*
X73896989Y-78625000D01*
X74286693Y-78625000D01*
X74287172Y-78630477D01*
X74287172Y-78630479D01*
X74288304Y-78643425D01*
X74288656Y-78660049D01*
X74287938Y-78676038D01*
X74287938Y-78676045D01*
X74287685Y-78681691D01*
X74288442Y-78687284D01*
X74288443Y-78687292D01*
X74298487Y-78761434D01*
X74299148Y-78767366D01*
X74300019Y-78777327D01*
X74305885Y-78844371D01*
X74311569Y-78865585D01*
X74314720Y-78881273D01*
X74318094Y-78906175D01*
X74319844Y-78911561D01*
X74341895Y-78979428D01*
X74343768Y-78985752D01*
X74358257Y-79039826D01*
X74362880Y-79057076D01*
X74370152Y-79072672D01*
X74373622Y-79080112D01*
X74379258Y-79094422D01*
X74386344Y-79116231D01*
X74386350Y-79116246D01*
X74388097Y-79121621D01*
X74390777Y-79126602D01*
X74390780Y-79126608D01*
X74422957Y-79186403D01*
X74426195Y-79192857D01*
X74455944Y-79256654D01*
X74459102Y-79261164D01*
X74472511Y-79280315D01*
X74480251Y-79292874D01*
X74492265Y-79315200D01*
X74495444Y-79321106D01*
X74498969Y-79325527D01*
X74498971Y-79325529D01*
X74539159Y-79375923D01*
X74543861Y-79382212D01*
X74582251Y-79437038D01*
X74586147Y-79440934D01*
X74586148Y-79440935D01*
X74605116Y-79459903D01*
X74614531Y-79470438D01*
X74633153Y-79493790D01*
X74633163Y-79493801D01*
X74636686Y-79498218D01*
X74640945Y-79501938D01*
X74640946Y-79501940D01*
X74686887Y-79542077D01*
X74693081Y-79547868D01*
X74737962Y-79592749D01*
X74742470Y-79595906D01*
X74742472Y-79595907D01*
X74767294Y-79613287D01*
X74777926Y-79621615D01*
X74807282Y-79647263D01*
X74812143Y-79650167D01*
X74861533Y-79679677D01*
X74869178Y-79684628D01*
X74897861Y-79704712D01*
X74918346Y-79719056D01*
X74923330Y-79721380D01*
X74953935Y-79735651D01*
X74965313Y-79741682D01*
X75001750Y-79763453D01*
X75007046Y-79765440D01*
X75007049Y-79765442D01*
X75057682Y-79784444D01*
X75066662Y-79788216D01*
X75112933Y-79809793D01*
X75112936Y-79809794D01*
X75117924Y-79812120D01*
X75159214Y-79823183D01*
X75170858Y-79826919D01*
X75213839Y-79843051D01*
X75219402Y-79844060D01*
X75219404Y-79844061D01*
X75241858Y-79848135D01*
X75269207Y-79853098D01*
X75279319Y-79855367D01*
X75325308Y-79867690D01*
X75325316Y-79867691D01*
X75330629Y-79869115D01*
X75376663Y-79873142D01*
X75388159Y-79874685D01*
X75436733Y-79883500D01*
X75489548Y-79883500D01*
X75500529Y-79883979D01*
X75550000Y-79888307D01*
X75555475Y-79887828D01*
X75555484Y-79887828D01*
X75603609Y-79883617D01*
X75605377Y-79883500D01*
X75606522Y-79883500D01*
X75609358Y-79883244D01*
X75609373Y-79883244D01*
X75661247Y-79878574D01*
X75661379Y-79878561D01*
X75769371Y-79869115D01*
X75770896Y-79868706D01*
X75775622Y-79868281D01*
X75880108Y-79839443D01*
X75880602Y-79839309D01*
X75982076Y-79812120D01*
X75985177Y-79810673D01*
X75987073Y-79810068D01*
X75988525Y-79809522D01*
X75993993Y-79808014D01*
X76088435Y-79762531D01*
X76089590Y-79761984D01*
X76181654Y-79719056D01*
X76186177Y-79715888D01*
X76186540Y-79715679D01*
X76191718Y-79712942D01*
X76192987Y-79712183D01*
X76198093Y-79709725D01*
X76280002Y-79650213D01*
X76281762Y-79648959D01*
X76357528Y-79595907D01*
X76357528Y-79595906D01*
X76362038Y-79592749D01*
X76365933Y-79588854D01*
X76370145Y-79585320D01*
X76370336Y-79585548D01*
X76372553Y-79583653D01*
X76372523Y-79583619D01*
X76376777Y-79579902D01*
X76381363Y-79576571D01*
X76448966Y-79505862D01*
X76450855Y-79503930D01*
X76517749Y-79437038D01*
X76520908Y-79432526D01*
X76524441Y-79428316D01*
X76524446Y-79428320D01*
X76532531Y-79418460D01*
X76537912Y-79412834D01*
X76589865Y-79334126D01*
X76591778Y-79331312D01*
X76644056Y-79256654D01*
X76647471Y-79249329D01*
X76656515Y-79233156D01*
X76662709Y-79223774D01*
X76698435Y-79140185D01*
X76700041Y-79136590D01*
X76737120Y-79057076D01*
X76740108Y-79045925D01*
X76745955Y-79029011D01*
X76751743Y-79015470D01*
X76771205Y-78930197D01*
X76772308Y-78925747D01*
X76794115Y-78844371D01*
X76795424Y-78829392D01*
X76798104Y-78812341D01*
X76802151Y-78794615D01*
X76804603Y-78740000D01*
X119056844Y-78740000D01*
X119057274Y-78745189D01*
X119074525Y-78953381D01*
X119075436Y-78964368D01*
X119087772Y-79013083D01*
X119119025Y-79136499D01*
X119130704Y-79182616D01*
X119132797Y-79187389D01*
X119132799Y-79187393D01*
X119184092Y-79304329D01*
X119221140Y-79388791D01*
X119344278Y-79577268D01*
X119358662Y-79592893D01*
X119493227Y-79739069D01*
X119493231Y-79739073D01*
X119496760Y-79742906D01*
X119674424Y-79881189D01*
X119872426Y-79988342D01*
X119877355Y-79990034D01*
X119877357Y-79990035D01*
X119944459Y-80013071D01*
X120085365Y-80061444D01*
X120307431Y-80098500D01*
X120527358Y-80098500D01*
X120532569Y-80098500D01*
X120754635Y-80061444D01*
X120967574Y-79988342D01*
X121165576Y-79881189D01*
X121343240Y-79742906D01*
X121495722Y-79577268D01*
X121618860Y-79388791D01*
X121652304Y-79312545D01*
X162097682Y-79312545D01*
X162108858Y-79315200D01*
X162733610Y-79315200D01*
X162746693Y-79311693D01*
X162750200Y-79298610D01*
X163359800Y-79298610D01*
X163363306Y-79311693D01*
X163376390Y-79315200D01*
X164001142Y-79315200D01*
X164012317Y-79312545D01*
X164011612Y-79301077D01*
X163992573Y-79238314D01*
X163987857Y-79226928D01*
X163900096Y-79062740D01*
X163894929Y-79055007D01*
X163876112Y-79009583D01*
X163876112Y-78960417D01*
X163894929Y-78914993D01*
X163900096Y-78907259D01*
X163987857Y-78743071D01*
X163992573Y-78731685D01*
X164011612Y-78668922D01*
X164012317Y-78657454D01*
X164001142Y-78654800D01*
X163376390Y-78654800D01*
X163363306Y-78658306D01*
X163359800Y-78671390D01*
X163359800Y-79298610D01*
X162750200Y-79298610D01*
X162750200Y-78671390D01*
X162746693Y-78658306D01*
X162733610Y-78654800D01*
X162108858Y-78654800D01*
X162097682Y-78657454D01*
X162098387Y-78668922D01*
X162117426Y-78731685D01*
X162122142Y-78743071D01*
X162209906Y-78907266D01*
X162215074Y-78915000D01*
X162233886Y-78960416D01*
X162233887Y-79009573D01*
X162215079Y-79054991D01*
X162209907Y-79062732D01*
X162122142Y-79226928D01*
X162117426Y-79238314D01*
X162098387Y-79301077D01*
X162097682Y-79312545D01*
X121652304Y-79312545D01*
X121709296Y-79182616D01*
X121764564Y-78964368D01*
X121783156Y-78740000D01*
X121764564Y-78515632D01*
X121709296Y-78297384D01*
X121618860Y-78091209D01*
X121495722Y-77902732D01*
X121420691Y-77821227D01*
X121346772Y-77740930D01*
X121346767Y-77740925D01*
X121343240Y-77737094D01*
X121165576Y-77598811D01*
X121161000Y-77596334D01*
X121160990Y-77596328D01*
X121131794Y-77580529D01*
X121083521Y-77534213D01*
X121065762Y-77469715D01*
X121083522Y-77405217D01*
X121131794Y-77358900D01*
X121160723Y-77343244D01*
X121169411Y-77337568D01*
X121338788Y-77205737D01*
X121346432Y-77198700D01*
X121491789Y-77040799D01*
X121498177Y-77032593D01*
X121615568Y-76852913D01*
X121620511Y-76843778D01*
X121706729Y-76647223D01*
X121710099Y-76637407D01*
X121740149Y-76518743D01*
X121740384Y-76507365D01*
X121729296Y-76504800D01*
X119110704Y-76504800D01*
X119099615Y-76507365D01*
X119099850Y-76518743D01*
X119129900Y-76637407D01*
X119133270Y-76647223D01*
X119219488Y-76843778D01*
X119224431Y-76852913D01*
X119341822Y-77032593D01*
X119348210Y-77040799D01*
X119493567Y-77198700D01*
X119501211Y-77205737D01*
X119670588Y-77337568D01*
X119679281Y-77343247D01*
X119708206Y-77358901D01*
X119756478Y-77405217D01*
X119774237Y-77469715D01*
X119756478Y-77534212D01*
X119708207Y-77580528D01*
X119696701Y-77586755D01*
X119679000Y-77596334D01*
X119678994Y-77596337D01*
X119674424Y-77598811D01*
X119670313Y-77602010D01*
X119670311Y-77602012D01*
X119500878Y-77733888D01*
X119500872Y-77733893D01*
X119496760Y-77737094D01*
X119493237Y-77740919D01*
X119493227Y-77740930D01*
X119347806Y-77898899D01*
X119347802Y-77898902D01*
X119344278Y-77902732D01*
X119341430Y-77907090D01*
X119341427Y-77907095D01*
X119230460Y-78076943D01*
X119221140Y-78091209D01*
X119219048Y-78095978D01*
X119219046Y-78095982D01*
X119132799Y-78292606D01*
X119132796Y-78292614D01*
X119130704Y-78297384D01*
X119129423Y-78302440D01*
X119129422Y-78302445D01*
X119082542Y-78487570D01*
X119075436Y-78515632D01*
X119075006Y-78520820D01*
X119075005Y-78520827D01*
X119058700Y-78717601D01*
X119056844Y-78740000D01*
X76804603Y-78740000D01*
X76805917Y-78710739D01*
X76806266Y-78705466D01*
X76813307Y-78625000D01*
X76812827Y-78619513D01*
X76811696Y-78606579D01*
X76811343Y-78589940D01*
X76812315Y-78568309D01*
X76801513Y-78488579D01*
X76800852Y-78482646D01*
X76799846Y-78471148D01*
X76794115Y-78405629D01*
X76788430Y-78384415D01*
X76785278Y-78368720D01*
X76782666Y-78349438D01*
X76781906Y-78343825D01*
X76758103Y-78270568D01*
X76756232Y-78264252D01*
X76754317Y-78257104D01*
X76737120Y-78192924D01*
X76726372Y-78169875D01*
X76720740Y-78155578D01*
X76711903Y-78128379D01*
X76677030Y-78063574D01*
X76673820Y-78057178D01*
X76644056Y-77993347D01*
X76627490Y-77969689D01*
X76619746Y-77957122D01*
X76607236Y-77933874D01*
X76607234Y-77933871D01*
X76604556Y-77928894D01*
X76601031Y-77924475D01*
X76601028Y-77924469D01*
X76560832Y-77874065D01*
X76556148Y-77867803D01*
X76517749Y-77812962D01*
X76494881Y-77790094D01*
X76485466Y-77779559D01*
X76466844Y-77756208D01*
X76466841Y-77756205D01*
X76463314Y-77751782D01*
X76413111Y-77707921D01*
X76406916Y-77702129D01*
X76365928Y-77661141D01*
X76362038Y-77657251D01*
X76332697Y-77636707D01*
X76322078Y-77628389D01*
X76292718Y-77602737D01*
X76287858Y-77599833D01*
X76287855Y-77599831D01*
X76238469Y-77570324D01*
X76230825Y-77565373D01*
X76186168Y-77534104D01*
X76186161Y-77534100D01*
X76181654Y-77530944D01*
X76176667Y-77528618D01*
X76176661Y-77528615D01*
X76146053Y-77514342D01*
X76134687Y-77508317D01*
X76098250Y-77486547D01*
X76092949Y-77484557D01*
X76092944Y-77484555D01*
X76042309Y-77465551D01*
X76033334Y-77461781D01*
X75987066Y-77440206D01*
X75987057Y-77440202D01*
X75982076Y-77437880D01*
X75976770Y-77436458D01*
X75976764Y-77436456D01*
X75940800Y-77426820D01*
X75929139Y-77423079D01*
X75886161Y-77406949D01*
X75880602Y-77405940D01*
X75880598Y-77405939D01*
X75830781Y-77396898D01*
X75820672Y-77394630D01*
X75774685Y-77382308D01*
X75774675Y-77382306D01*
X75769371Y-77380885D01*
X75763896Y-77380405D01*
X75763891Y-77380405D01*
X75723344Y-77376857D01*
X75711836Y-77375313D01*
X75694313Y-77372133D01*
X75668834Y-77367510D01*
X75668832Y-77367509D01*
X75663267Y-77366500D01*
X75657603Y-77366500D01*
X75610452Y-77366500D01*
X75599471Y-77366021D01*
X75555475Y-77362172D01*
X75550000Y-77361693D01*
X75544525Y-77362172D01*
X75544523Y-77362172D01*
X75496386Y-77366383D01*
X75494619Y-77366500D01*
X75493478Y-77366500D01*
X75490675Y-77366752D01*
X75490657Y-77366753D01*
X75438887Y-77371412D01*
X75438578Y-77371439D01*
X75333959Y-77380592D01*
X75333922Y-77380596D01*
X75330629Y-77380885D01*
X75329103Y-77381293D01*
X75324378Y-77381719D01*
X75318933Y-77383221D01*
X75318931Y-77383222D01*
X75220123Y-77410491D01*
X75219217Y-77410737D01*
X75123238Y-77436456D01*
X75117924Y-77437880D01*
X75114820Y-77439326D01*
X75112893Y-77439942D01*
X75111455Y-77440481D01*
X75106007Y-77441986D01*
X75100924Y-77444433D01*
X75100910Y-77444439D01*
X75011633Y-77487431D01*
X75010218Y-77488102D01*
X74923323Y-77528623D01*
X74923317Y-77528626D01*
X74918347Y-77530944D01*
X74913851Y-77534090D01*
X74913429Y-77534335D01*
X74908290Y-77537051D01*
X74906997Y-77537823D01*
X74901907Y-77540275D01*
X74897340Y-77543592D01*
X74897325Y-77543602D01*
X74819992Y-77599787D01*
X74818206Y-77601062D01*
X74742460Y-77654101D01*
X74742457Y-77654103D01*
X74737962Y-77657251D01*
X74734077Y-77661134D01*
X74729860Y-77664674D01*
X74729673Y-77664451D01*
X74727445Y-77666353D01*
X74727472Y-77666384D01*
X74723216Y-77670101D01*
X74718637Y-77673429D01*
X74714731Y-77677513D01*
X74714722Y-77677522D01*
X74651077Y-77744089D01*
X74649103Y-77746108D01*
X74586137Y-77809075D01*
X74586132Y-77809080D01*
X74582251Y-77812962D01*
X74579099Y-77817462D01*
X74575562Y-77821678D01*
X74575558Y-77821675D01*
X74567473Y-77831533D01*
X74565998Y-77833075D01*
X74565993Y-77833080D01*
X74562088Y-77837166D01*
X74558971Y-77841887D01*
X74558967Y-77841893D01*
X74510144Y-77915855D01*
X74508203Y-77918710D01*
X74459096Y-77988843D01*
X74459088Y-77988856D01*
X74455944Y-77993347D01*
X74453625Y-77998318D01*
X74453620Y-77998328D01*
X74452520Y-78000687D01*
X74443494Y-78016827D01*
X74440412Y-78021496D01*
X74440407Y-78021503D01*
X74437291Y-78026226D01*
X74435069Y-78031423D01*
X74435066Y-78031430D01*
X74401582Y-78109769D01*
X74399918Y-78113494D01*
X74373625Y-78169880D01*
X74362880Y-78192924D01*
X74361459Y-78198225D01*
X74361455Y-78198237D01*
X74359886Y-78204092D01*
X74354051Y-78220970D01*
X74350481Y-78229324D01*
X74350478Y-78229332D01*
X74348257Y-78234530D01*
X74346998Y-78240042D01*
X74346998Y-78240045D01*
X74328816Y-78319708D01*
X74327682Y-78324281D01*
X74307309Y-78400311D01*
X74307307Y-78400321D01*
X74305885Y-78405629D01*
X74305406Y-78411108D01*
X74305405Y-78411114D01*
X74304575Y-78420600D01*
X74301896Y-78437648D01*
X74297849Y-78455385D01*
X74297595Y-78461033D01*
X74297594Y-78461043D01*
X74294083Y-78539218D01*
X74293731Y-78544543D01*
X74292143Y-78562697D01*
X74286693Y-78625000D01*
X73896989Y-78625000D01*
X73892129Y-78605808D01*
X73891109Y-78601453D01*
X73890424Y-78598276D01*
X73871630Y-78511068D01*
X73865338Y-78495411D01*
X73860107Y-78479357D01*
X73856749Y-78466093D01*
X73819502Y-78381181D01*
X73817982Y-78377561D01*
X73784229Y-78293562D01*
X73784226Y-78293557D01*
X73782233Y-78288596D01*
X73775197Y-78277169D01*
X73767102Y-78261720D01*
X73765077Y-78257104D01*
X73762984Y-78252331D01*
X73747953Y-78229324D01*
X73710412Y-78171863D01*
X73708602Y-78169011D01*
X73659331Y-78088990D01*
X73656524Y-78084431D01*
X73649927Y-78076936D01*
X73639042Y-78062622D01*
X73638167Y-78061283D01*
X73638163Y-78061278D01*
X73635314Y-78056917D01*
X73631783Y-78053081D01*
X73631779Y-78053076D01*
X73567874Y-77983658D01*
X73566020Y-77981600D01*
X73498119Y-77904449D01*
X73493039Y-77900347D01*
X73484644Y-77892479D01*
X73484583Y-77892546D01*
X73480750Y-77889017D01*
X73477220Y-77885182D01*
X73473110Y-77881983D01*
X73473108Y-77881981D01*
X73395914Y-77821899D01*
X73394149Y-77820499D01*
X73377401Y-77806976D01*
X73311576Y-77753825D01*
X73306906Y-77751216D01*
X73305672Y-77750382D01*
X73301319Y-77747749D01*
X73297134Y-77745014D01*
X73293017Y-77741810D01*
X73199383Y-77691138D01*
X73197904Y-77690324D01*
X73106931Y-77639504D01*
X73106927Y-77639502D01*
X73102260Y-77636895D01*
X73097214Y-77635112D01*
X73095989Y-77634558D01*
X73091695Y-77632860D01*
X73087727Y-77630713D01*
X73082808Y-77629024D01*
X73082803Y-77629022D01*
X72983781Y-77595027D01*
X72982719Y-77594657D01*
X72881236Y-77558801D01*
X72881231Y-77558799D01*
X72876194Y-77557020D01*
X72870925Y-77556116D01*
X72869452Y-77555733D01*
X72869103Y-77555659D01*
X72866951Y-77554920D01*
X72861816Y-77554063D01*
X72861812Y-77554062D01*
X72755300Y-77536288D01*
X72754747Y-77536195D01*
X72645151Y-77517403D01*
X72645144Y-77517402D01*
X72639881Y-77516500D01*
X72636712Y-77516500D01*
X72403288Y-77516500D01*
X72398156Y-77517356D01*
X72398147Y-77517357D01*
X72349068Y-77525547D01*
X72339018Y-77526811D01*
X72286434Y-77531287D01*
X72286432Y-77531287D01*
X72281102Y-77531741D01*
X72269841Y-77534672D01*
X72231496Y-77544657D01*
X72220490Y-77547003D01*
X72178194Y-77554061D01*
X72178188Y-77554062D01*
X72173049Y-77554920D01*
X72168123Y-77556610D01*
X72168115Y-77556613D01*
X72117814Y-77573881D01*
X72108657Y-77576641D01*
X72054253Y-77590807D01*
X72054242Y-77590810D01*
X72049076Y-77592156D01*
X72010918Y-77609403D01*
X72005492Y-77611856D01*
X71994512Y-77616211D01*
X71984653Y-77619596D01*
X71952273Y-77630713D01*
X71947708Y-77633182D01*
X71947695Y-77633189D01*
X71897886Y-77660144D01*
X71889820Y-77664143D01*
X71835478Y-77688707D01*
X71835468Y-77688712D01*
X71830598Y-77690914D01*
X71826165Y-77693909D01*
X71826158Y-77693914D01*
X71793814Y-77715774D01*
X71783232Y-77722192D01*
X71751566Y-77739329D01*
X71751559Y-77739333D01*
X71746983Y-77741810D01*
X71742872Y-77745009D01*
X71742873Y-77745009D01*
X71695476Y-77781898D01*
X71688648Y-77786854D01*
X71636389Y-77822176D01*
X71636383Y-77822180D01*
X71631953Y-77825175D01*
X71628094Y-77828872D01*
X71628087Y-77828879D01*
X71602382Y-77853515D01*
X71592594Y-77861975D01*
X71566888Y-77881983D01*
X71566877Y-77881992D01*
X71562780Y-77885182D01*
X71559266Y-77888998D01*
X71559254Y-77889010D01*
X71516254Y-77935720D01*
X71510741Y-77941344D01*
X71462720Y-77987369D01*
X71462705Y-77987385D01*
X71458856Y-77991075D01*
X71455681Y-77995367D01*
X71455678Y-77995371D01*
X71436544Y-78021240D01*
X71427950Y-78031643D01*
X71408216Y-78053081D01*
X71408209Y-78053088D01*
X71404686Y-78056917D01*
X71401843Y-78061268D01*
X71401834Y-78061280D01*
X71365231Y-78117305D01*
X71361054Y-78123310D01*
X71319467Y-78179539D01*
X71319461Y-78179548D01*
X71316285Y-78183843D01*
X71313875Y-78188621D01*
X71313871Y-78188629D01*
X71300940Y-78214274D01*
X71293920Y-78226455D01*
X71279869Y-78247964D01*
X71277016Y-78252331D01*
X71274930Y-78257085D01*
X71274921Y-78257103D01*
X71246663Y-78321524D01*
X71243787Y-78327632D01*
X71208343Y-78397933D01*
X71206779Y-78403039D01*
X71206776Y-78403047D01*
X71199371Y-78427225D01*
X71194286Y-78440930D01*
X71185344Y-78461318D01*
X71185339Y-78461332D01*
X71183251Y-78466093D01*
X71181975Y-78471129D01*
X71181972Y-78471140D01*
X71163859Y-78542668D01*
X71162192Y-78548630D01*
X71139705Y-78622058D01*
X71139702Y-78622069D01*
X71138136Y-78627185D01*
X71137455Y-78632495D01*
X71137456Y-78632495D01*
X71134681Y-78654159D01*
X71131848Y-78669074D01*
X71127227Y-78687323D01*
X71127225Y-78687334D01*
X71125949Y-78692374D01*
X71125519Y-78697557D01*
X71125519Y-78697560D01*
X71119141Y-78774523D01*
X71118552Y-78780112D01*
X71117481Y-78788480D01*
X71094335Y-78846683D01*
X71046024Y-78886551D01*
X70984486Y-78898229D01*
X70924928Y-78878833D01*
X70882069Y-78833155D01*
X70866500Y-78772484D01*
X70866500Y-76133637D01*
X156066187Y-76133637D01*
X156066371Y-76138463D01*
X156066372Y-76138463D01*
X156075152Y-76367539D01*
X156076347Y-76398699D01*
X156077266Y-76403437D01*
X156125929Y-76654358D01*
X156125931Y-76654367D01*
X156126850Y-76659103D01*
X156128479Y-76663640D01*
X156128482Y-76663649D01*
X156214878Y-76904201D01*
X156214881Y-76904208D01*
X156216511Y-76908746D01*
X156218817Y-76912987D01*
X156218819Y-76912991D01*
X156340916Y-77137524D01*
X156340921Y-77137531D01*
X156343229Y-77141776D01*
X156504034Y-77352733D01*
X156507517Y-77356085D01*
X156644691Y-77488102D01*
X156695157Y-77536670D01*
X156912117Y-77689277D01*
X157149831Y-77806976D01*
X157402725Y-77887009D01*
X157664872Y-77927500D01*
X157861314Y-77927500D01*
X157863720Y-77927500D01*
X158061978Y-77912279D01*
X158320256Y-77851839D01*
X158566282Y-77752682D01*
X158794288Y-77617131D01*
X158998930Y-77448364D01*
X159175412Y-77250336D01*
X159285720Y-77080000D01*
X162041620Y-77080000D01*
X162042227Y-77086163D01*
X162060484Y-77271538D01*
X162060485Y-77271547D01*
X162061092Y-77277701D01*
X162062887Y-77283619D01*
X162062888Y-77283623D01*
X162106327Y-77426820D01*
X162118759Y-77467804D01*
X162121678Y-77473265D01*
X162209486Y-77637544D01*
X162209488Y-77637548D01*
X162212405Y-77643004D01*
X162215134Y-77646329D01*
X162233583Y-77690871D01*
X162233584Y-77740029D01*
X162214775Y-77785446D01*
X162209908Y-77792730D01*
X162122142Y-77956928D01*
X162117426Y-77968314D01*
X162098387Y-78031077D01*
X162097682Y-78042545D01*
X162108858Y-78045200D01*
X162743969Y-78045200D01*
X162780545Y-78050625D01*
X162857299Y-78073908D01*
X162863460Y-78074514D01*
X162863461Y-78074515D01*
X163048837Y-78092773D01*
X163055000Y-78093380D01*
X163252701Y-78073908D01*
X163329454Y-78050625D01*
X163366031Y-78045200D01*
X164001142Y-78045200D01*
X164012317Y-78042545D01*
X164011612Y-78031077D01*
X163992573Y-77968314D01*
X163987857Y-77956928D01*
X163900094Y-77792736D01*
X163895231Y-77785458D01*
X163876415Y-77740034D01*
X163876416Y-77690867D01*
X163894868Y-77646326D01*
X163897595Y-77643004D01*
X163991241Y-77467804D01*
X164048908Y-77277701D01*
X164068380Y-77080000D01*
X164048908Y-76882299D01*
X163991241Y-76692196D01*
X163897595Y-76516996D01*
X163895099Y-76513954D01*
X163876718Y-76469584D01*
X163876718Y-76420416D01*
X163895099Y-76376045D01*
X163897595Y-76373004D01*
X163991241Y-76197804D01*
X164048908Y-76007701D01*
X164068380Y-75810000D01*
X164048908Y-75612299D01*
X163991241Y-75422196D01*
X163897595Y-75246996D01*
X163895099Y-75243954D01*
X163876719Y-75199581D01*
X163876719Y-75150419D01*
X163895099Y-75106044D01*
X163897595Y-75103004D01*
X163991241Y-74927804D01*
X164048908Y-74737701D01*
X164068380Y-74540000D01*
X164063231Y-74487721D01*
X164049515Y-74348461D01*
X164049514Y-74348460D01*
X164048908Y-74342299D01*
X163991241Y-74152196D01*
X163897595Y-73976996D01*
X163894864Y-73973669D01*
X163876416Y-73929125D01*
X163876416Y-73879963D01*
X163895231Y-73834543D01*
X163900092Y-73827266D01*
X163987857Y-73663071D01*
X163992573Y-73651685D01*
X164011612Y-73588922D01*
X164012317Y-73577454D01*
X164001142Y-73574800D01*
X163366031Y-73574800D01*
X163329455Y-73569375D01*
X163258623Y-73547888D01*
X163258619Y-73547887D01*
X163252701Y-73546092D01*
X163246547Y-73545485D01*
X163246538Y-73545484D01*
X163061163Y-73527227D01*
X163055000Y-73526620D01*
X163048837Y-73527227D01*
X162863461Y-73545484D01*
X162863450Y-73545486D01*
X162857299Y-73546092D01*
X162851382Y-73547886D01*
X162851376Y-73547888D01*
X162780545Y-73569375D01*
X162743969Y-73574800D01*
X162108858Y-73574800D01*
X162097682Y-73577454D01*
X162098387Y-73588922D01*
X162117426Y-73651685D01*
X162122142Y-73663071D01*
X162209907Y-73827266D01*
X162214769Y-73834543D01*
X162233584Y-73879963D01*
X162233584Y-73929125D01*
X162215135Y-73973669D01*
X162212405Y-73976996D01*
X162209487Y-73982454D01*
X162209485Y-73982458D01*
X162123731Y-74142894D01*
X162118759Y-74152196D01*
X162116963Y-74158116D01*
X162116962Y-74158119D01*
X162062888Y-74336376D01*
X162062886Y-74336382D01*
X162061092Y-74342299D01*
X162060486Y-74348450D01*
X162060484Y-74348461D01*
X162043006Y-74525923D01*
X162041620Y-74540000D01*
X162042227Y-74546163D01*
X162060484Y-74731538D01*
X162060485Y-74731547D01*
X162061092Y-74737701D01*
X162062887Y-74743619D01*
X162062888Y-74743623D01*
X162112855Y-74908342D01*
X162118759Y-74927804D01*
X162212405Y-75103004D01*
X162214901Y-75106046D01*
X162233280Y-75150415D01*
X162233281Y-75199573D01*
X162214903Y-75243951D01*
X162212405Y-75246996D01*
X162209491Y-75252446D01*
X162209488Y-75252452D01*
X162143068Y-75376716D01*
X162118759Y-75422196D01*
X162116963Y-75428116D01*
X162116962Y-75428119D01*
X162062888Y-75606376D01*
X162062886Y-75606382D01*
X162061092Y-75612299D01*
X162060486Y-75618450D01*
X162060484Y-75618461D01*
X162048874Y-75736350D01*
X162041620Y-75810000D01*
X162042227Y-75816163D01*
X162060484Y-76001538D01*
X162060485Y-76001547D01*
X162061092Y-76007701D01*
X162118759Y-76197804D01*
X162121678Y-76203265D01*
X162209488Y-76367548D01*
X162209491Y-76367553D01*
X162212405Y-76373004D01*
X162214901Y-76376046D01*
X162233280Y-76420421D01*
X162233280Y-76469579D01*
X162214901Y-76513953D01*
X162212405Y-76516996D01*
X162209494Y-76522441D01*
X162209488Y-76522451D01*
X162121678Y-76686734D01*
X162118759Y-76692196D01*
X162116963Y-76698116D01*
X162116962Y-76698119D01*
X162062888Y-76876376D01*
X162062886Y-76876382D01*
X162061092Y-76882299D01*
X162060486Y-76888450D01*
X162060484Y-76888461D01*
X162047206Y-77023283D01*
X162041620Y-77080000D01*
X159285720Y-77080000D01*
X159319596Y-77027690D01*
X159428104Y-76785643D01*
X159498392Y-76529869D01*
X159528813Y-76266363D01*
X159518653Y-76001301D01*
X159468150Y-75740897D01*
X159378489Y-75491254D01*
X159311605Y-75368256D01*
X159254083Y-75262475D01*
X159254080Y-75262471D01*
X159251771Y-75258224D01*
X159090966Y-75047267D01*
X159060848Y-75018281D01*
X158903323Y-74866679D01*
X158903321Y-74866678D01*
X158899843Y-74863330D01*
X158888489Y-74855344D01*
X158789813Y-74785936D01*
X158682883Y-74710723D01*
X158678558Y-74708581D01*
X158678552Y-74708578D01*
X158449503Y-74595170D01*
X158449504Y-74595170D01*
X158445169Y-74593024D01*
X158397148Y-74577827D01*
X158196876Y-74514447D01*
X158196875Y-74514446D01*
X158192275Y-74512991D01*
X158187511Y-74512255D01*
X158187502Y-74512253D01*
X157934902Y-74473237D01*
X157934897Y-74473236D01*
X157930128Y-74472500D01*
X157731280Y-74472500D01*
X157728889Y-74472683D01*
X157728877Y-74472684D01*
X157537838Y-74487351D01*
X157537834Y-74487351D01*
X157533022Y-74487721D01*
X157528330Y-74488818D01*
X157528323Y-74488820D01*
X157279439Y-74547062D01*
X157279435Y-74547063D01*
X157274744Y-74548161D01*
X157270275Y-74549962D01*
X157270266Y-74549965D01*
X157033202Y-74645510D01*
X157033193Y-74645514D01*
X157028718Y-74647318D01*
X157024564Y-74649787D01*
X157024563Y-74649788D01*
X156804859Y-74780403D01*
X156804853Y-74780406D01*
X156800712Y-74782869D01*
X156796999Y-74785931D01*
X156796992Y-74785936D01*
X156599789Y-74948568D01*
X156599782Y-74948574D01*
X156596070Y-74951636D01*
X156592865Y-74955231D01*
X156592860Y-74955237D01*
X156422802Y-75146057D01*
X156422798Y-75146061D01*
X156419588Y-75149664D01*
X156416966Y-75153712D01*
X156416959Y-75153722D01*
X156278028Y-75368256D01*
X156278020Y-75368268D01*
X156275404Y-75372310D01*
X156273432Y-75376707D01*
X156273428Y-75376716D01*
X156168874Y-75609943D01*
X156168870Y-75609951D01*
X156166896Y-75614357D01*
X156165615Y-75619016D01*
X156165615Y-75619018D01*
X156097886Y-75865477D01*
X156097883Y-75865488D01*
X156096608Y-75870131D01*
X156096055Y-75874915D01*
X156096054Y-75874924D01*
X156081437Y-76001538D01*
X156066187Y-76133637D01*
X70866500Y-76133637D01*
X70866500Y-73664030D01*
X70882068Y-73603360D01*
X70924926Y-73557683D01*
X70984483Y-73538285D01*
X71046020Y-73549962D01*
X71094332Y-73589826D01*
X71117480Y-73648028D01*
X71117629Y-73649196D01*
X71117857Y-73654551D01*
X71122138Y-73674418D01*
X71124533Y-73690543D01*
X71124864Y-73694543D01*
X71125949Y-73707626D01*
X71127225Y-73712668D01*
X71127227Y-73712675D01*
X71147865Y-73794174D01*
X71148892Y-73798557D01*
X71168370Y-73888932D01*
X71170365Y-73893898D01*
X71170368Y-73893906D01*
X71174659Y-73904584D01*
X71179889Y-73920629D01*
X71181970Y-73928851D01*
X71183251Y-73933907D01*
X71212105Y-73999687D01*
X71220490Y-74018803D01*
X71222014Y-74022431D01*
X71257767Y-74111404D01*
X71260575Y-74115965D01*
X71260577Y-74115968D01*
X71264802Y-74122830D01*
X71272896Y-74138277D01*
X71277016Y-74147669D01*
X71329622Y-74228189D01*
X71331363Y-74230933D01*
X71383476Y-74315569D01*
X71387006Y-74319580D01*
X71387012Y-74319588D01*
X71390066Y-74323058D01*
X71400955Y-74337374D01*
X71401834Y-74338720D01*
X71401842Y-74338731D01*
X71404686Y-74343083D01*
X71408208Y-74346909D01*
X71408216Y-74346919D01*
X71472124Y-74416340D01*
X71473982Y-74418403D01*
X71509410Y-74458657D01*
X71534989Y-74487721D01*
X71541881Y-74495551D01*
X71546949Y-74499642D01*
X71555352Y-74507518D01*
X71555414Y-74507452D01*
X71559251Y-74510984D01*
X71562780Y-74514818D01*
X71566893Y-74518019D01*
X71566896Y-74518022D01*
X71644083Y-74578099D01*
X71645762Y-74579429D01*
X71728424Y-74646175D01*
X71733094Y-74648784D01*
X71734333Y-74649621D01*
X71738678Y-74652249D01*
X71742865Y-74654984D01*
X71746983Y-74658190D01*
X71751566Y-74660670D01*
X71751574Y-74660675D01*
X71840581Y-74708842D01*
X71842063Y-74709657D01*
X71906954Y-74745907D01*
X71937740Y-74763105D01*
X71942781Y-74764886D01*
X71944002Y-74765438D01*
X71948301Y-74767137D01*
X71952273Y-74769287D01*
X72056364Y-74805022D01*
X72057121Y-74805285D01*
X72163806Y-74842980D01*
X72169091Y-74843885D01*
X72170587Y-74844275D01*
X72170897Y-74844340D01*
X72173049Y-74845080D01*
X72284961Y-74863754D01*
X72285397Y-74863829D01*
X72342487Y-74873618D01*
X72400119Y-74883500D01*
X72403288Y-74883500D01*
X72579827Y-74883500D01*
X72631504Y-74883500D01*
X72636712Y-74883500D01*
X72690929Y-74874452D01*
X72700976Y-74873188D01*
X72758898Y-74868259D01*
X72808494Y-74855344D01*
X72819505Y-74852996D01*
X72866951Y-74845080D01*
X72905013Y-74832013D01*
X72922185Y-74826118D01*
X72931346Y-74823356D01*
X72990924Y-74807844D01*
X73034504Y-74788144D01*
X73045491Y-74783786D01*
X73087727Y-74769287D01*
X73142117Y-74739851D01*
X73150149Y-74735869D01*
X73209402Y-74709086D01*
X73246181Y-74684226D01*
X73256755Y-74677812D01*
X73293017Y-74658190D01*
X73344527Y-74618096D01*
X73351354Y-74613142D01*
X73403606Y-74577827D01*
X73403609Y-74577824D01*
X73408047Y-74574825D01*
X73437630Y-74546471D01*
X73447396Y-74538030D01*
X73477220Y-74514818D01*
X73523751Y-74464270D01*
X73529235Y-74458675D01*
X73581144Y-74408925D01*
X73603450Y-74378763D01*
X73612056Y-74368348D01*
X73631775Y-74346927D01*
X73635314Y-74343083D01*
X73674774Y-74282682D01*
X73678941Y-74276693D01*
X73679004Y-74276608D01*
X73723715Y-74216157D01*
X73739055Y-74185730D01*
X73746084Y-74173535D01*
X73760133Y-74152033D01*
X73760134Y-74152030D01*
X73762984Y-74147669D01*
X73784966Y-74097554D01*
X73793334Y-74078477D01*
X73796214Y-74072362D01*
X73801660Y-74061561D01*
X73831657Y-74002067D01*
X73840630Y-73972765D01*
X73845716Y-73959058D01*
X73849633Y-73950129D01*
X73856749Y-73933907D01*
X73876143Y-73857314D01*
X73877807Y-73851367D01*
X73901195Y-73775000D01*
X74286693Y-73775000D01*
X74287172Y-73780477D01*
X74287172Y-73780479D01*
X74288304Y-73793425D01*
X74288656Y-73810049D01*
X74287938Y-73826038D01*
X74287938Y-73826045D01*
X74287685Y-73831691D01*
X74288442Y-73837284D01*
X74288443Y-73837292D01*
X74298487Y-73911434D01*
X74299148Y-73917366D01*
X74304150Y-73974546D01*
X74305885Y-73994371D01*
X74311569Y-74015585D01*
X74314720Y-74031273D01*
X74318094Y-74056175D01*
X74319844Y-74061561D01*
X74341895Y-74129428D01*
X74343768Y-74135752D01*
X74357569Y-74187258D01*
X74362880Y-74207076D01*
X74367114Y-74216157D01*
X74373622Y-74230112D01*
X74379258Y-74244422D01*
X74386344Y-74266231D01*
X74386350Y-74266246D01*
X74388097Y-74271621D01*
X74390777Y-74276602D01*
X74390780Y-74276608D01*
X74422957Y-74336403D01*
X74426195Y-74342857D01*
X74455944Y-74406654D01*
X74472511Y-74430315D01*
X74480251Y-74442874D01*
X74488744Y-74458657D01*
X74495444Y-74471106D01*
X74498969Y-74475527D01*
X74498971Y-74475529D01*
X74539159Y-74525923D01*
X74543861Y-74532212D01*
X74550717Y-74542003D01*
X74582251Y-74587038D01*
X74586148Y-74590935D01*
X74605116Y-74609903D01*
X74614531Y-74620438D01*
X74633153Y-74643790D01*
X74633163Y-74643801D01*
X74636686Y-74648218D01*
X74640945Y-74651938D01*
X74640946Y-74651940D01*
X74686887Y-74692077D01*
X74693082Y-74697869D01*
X74737962Y-74742749D01*
X74742470Y-74745906D01*
X74742472Y-74745907D01*
X74767294Y-74763287D01*
X74777926Y-74771615D01*
X74807282Y-74797263D01*
X74824992Y-74807844D01*
X74861533Y-74829677D01*
X74869178Y-74834628D01*
X74885333Y-74845940D01*
X74918346Y-74869056D01*
X74923330Y-74871380D01*
X74953935Y-74885651D01*
X74965313Y-74891682D01*
X75001750Y-74913453D01*
X75007046Y-74915440D01*
X75007049Y-74915442D01*
X75057682Y-74934444D01*
X75066662Y-74938216D01*
X75112933Y-74959793D01*
X75112936Y-74959794D01*
X75117924Y-74962120D01*
X75159214Y-74973183D01*
X75170858Y-74976919D01*
X75213839Y-74993051D01*
X75219402Y-74994060D01*
X75219404Y-74994061D01*
X75241858Y-74998135D01*
X75269207Y-75003098D01*
X75279319Y-75005367D01*
X75325308Y-75017690D01*
X75325316Y-75017691D01*
X75330629Y-75019115D01*
X75376663Y-75023142D01*
X75388159Y-75024685D01*
X75436733Y-75033500D01*
X75489548Y-75033500D01*
X75500529Y-75033979D01*
X75550000Y-75038307D01*
X75555475Y-75037828D01*
X75555484Y-75037828D01*
X75603609Y-75033617D01*
X75605377Y-75033500D01*
X75606522Y-75033500D01*
X75609358Y-75033244D01*
X75609373Y-75033244D01*
X75661247Y-75028574D01*
X75661379Y-75028561D01*
X75769371Y-75019115D01*
X75770896Y-75018706D01*
X75775622Y-75018281D01*
X75880108Y-74989443D01*
X75880602Y-74989309D01*
X75982076Y-74962120D01*
X75985177Y-74960673D01*
X75987073Y-74960068D01*
X75988525Y-74959522D01*
X75993993Y-74958014D01*
X76088435Y-74912531D01*
X76089590Y-74911984D01*
X76181654Y-74869056D01*
X76186177Y-74865888D01*
X76186540Y-74865679D01*
X76191718Y-74862942D01*
X76192987Y-74862183D01*
X76198093Y-74859725D01*
X76280002Y-74800213D01*
X76281762Y-74798959D01*
X76357528Y-74745907D01*
X76357528Y-74745906D01*
X76362038Y-74742749D01*
X76365933Y-74738854D01*
X76370145Y-74735320D01*
X76370336Y-74735548D01*
X76372553Y-74733653D01*
X76372523Y-74733619D01*
X76376777Y-74729902D01*
X76381363Y-74726571D01*
X76448966Y-74655862D01*
X76450855Y-74653930D01*
X76517749Y-74587038D01*
X76520908Y-74582526D01*
X76524441Y-74578316D01*
X76524446Y-74578320D01*
X76532531Y-74568460D01*
X76537912Y-74562834D01*
X76589865Y-74484126D01*
X76591778Y-74481312D01*
X76644056Y-74406654D01*
X76647471Y-74399329D01*
X76656515Y-74383156D01*
X76662709Y-74373774D01*
X76698435Y-74290185D01*
X76700041Y-74286590D01*
X76737120Y-74207076D01*
X76740108Y-74195925D01*
X76745955Y-74179011D01*
X76751743Y-74165470D01*
X76771201Y-74080210D01*
X76772308Y-74075747D01*
X76794115Y-73994371D01*
X76795424Y-73979392D01*
X76798104Y-73962341D01*
X76802151Y-73944615D01*
X76805917Y-73860739D01*
X76806266Y-73855466D01*
X76813307Y-73775000D01*
X76812651Y-73767505D01*
X76811696Y-73756579D01*
X76811343Y-73739940D01*
X76811417Y-73738295D01*
X76812315Y-73718309D01*
X76804415Y-73660000D01*
X119056844Y-73660000D01*
X119057274Y-73665189D01*
X119073259Y-73858105D01*
X119075436Y-73884368D01*
X119082290Y-73911434D01*
X119118943Y-74056175D01*
X119130704Y-74102616D01*
X119132797Y-74107389D01*
X119132799Y-74107393D01*
X119180507Y-74216157D01*
X119221140Y-74308791D01*
X119344278Y-74497268D01*
X119381794Y-74538021D01*
X119493227Y-74659069D01*
X119493231Y-74659073D01*
X119496760Y-74662906D01*
X119674424Y-74801189D01*
X119679000Y-74803665D01*
X119679004Y-74803668D01*
X119682645Y-74805638D01*
X119708205Y-74819470D01*
X119756476Y-74865784D01*
X119774237Y-74930281D01*
X119756479Y-74994779D01*
X119708209Y-75041096D01*
X119679285Y-75056749D01*
X119670588Y-75062431D01*
X119501211Y-75194262D01*
X119493567Y-75201299D01*
X119348210Y-75359200D01*
X119341822Y-75367406D01*
X119224431Y-75547086D01*
X119219488Y-75556221D01*
X119133270Y-75752776D01*
X119129900Y-75762592D01*
X119099850Y-75881256D01*
X119099615Y-75892634D01*
X119110704Y-75895200D01*
X121729296Y-75895200D01*
X121740384Y-75892634D01*
X121740149Y-75881256D01*
X121710099Y-75762592D01*
X121706729Y-75752776D01*
X121620511Y-75556221D01*
X121615568Y-75547086D01*
X121498177Y-75367406D01*
X121491789Y-75359200D01*
X121346432Y-75201299D01*
X121338788Y-75194262D01*
X121169411Y-75062431D01*
X121160713Y-75056749D01*
X121131792Y-75041097D01*
X121083520Y-74994780D01*
X121065762Y-74930281D01*
X121083523Y-74865784D01*
X121131791Y-74819472D01*
X121165576Y-74801189D01*
X121343240Y-74662906D01*
X121495722Y-74497268D01*
X121618860Y-74308791D01*
X121709296Y-74102616D01*
X121764564Y-73884368D01*
X121783156Y-73660000D01*
X121764564Y-73435632D01*
X121709296Y-73217384D01*
X121618860Y-73011209D01*
X121587066Y-72962545D01*
X162097682Y-72962545D01*
X162108858Y-72965200D01*
X162733610Y-72965200D01*
X162746693Y-72961693D01*
X162750200Y-72948610D01*
X163359800Y-72948610D01*
X163363306Y-72961693D01*
X163376390Y-72965200D01*
X164001142Y-72965200D01*
X164012317Y-72962545D01*
X164011612Y-72951077D01*
X163992573Y-72888314D01*
X163987857Y-72876928D01*
X163900096Y-72712740D01*
X163894929Y-72705007D01*
X163876112Y-72659583D01*
X163876112Y-72610417D01*
X163894929Y-72564993D01*
X163900096Y-72557259D01*
X163987857Y-72393071D01*
X163992573Y-72381685D01*
X164011612Y-72318922D01*
X164012317Y-72307454D01*
X164001142Y-72304800D01*
X163376390Y-72304800D01*
X163363306Y-72308306D01*
X163359800Y-72321390D01*
X163359800Y-72948610D01*
X162750200Y-72948610D01*
X162750200Y-72321390D01*
X162746693Y-72308306D01*
X162733610Y-72304800D01*
X162108858Y-72304800D01*
X162097682Y-72307454D01*
X162098387Y-72318922D01*
X162117426Y-72381685D01*
X162122142Y-72393071D01*
X162209905Y-72557263D01*
X162215071Y-72564994D01*
X162233886Y-72610413D01*
X162233888Y-72659576D01*
X162215076Y-72704996D01*
X162209908Y-72712730D01*
X162122142Y-72876928D01*
X162117426Y-72888314D01*
X162098387Y-72951077D01*
X162097682Y-72962545D01*
X121587066Y-72962545D01*
X121495722Y-72822732D01*
X121431286Y-72752737D01*
X121346772Y-72660930D01*
X121346767Y-72660925D01*
X121343240Y-72657094D01*
X121165576Y-72518811D01*
X121160997Y-72516333D01*
X121160994Y-72516331D01*
X120972159Y-72414139D01*
X120972156Y-72414137D01*
X120967574Y-72411658D01*
X120962650Y-72409967D01*
X120962642Y-72409964D01*
X120759565Y-72340248D01*
X120759559Y-72340246D01*
X120754635Y-72338556D01*
X120749498Y-72337698D01*
X120749495Y-72337698D01*
X120537706Y-72302357D01*
X120537703Y-72302356D01*
X120532569Y-72301500D01*
X120307431Y-72301500D01*
X120302297Y-72302356D01*
X120302293Y-72302357D01*
X120090504Y-72337698D01*
X120090498Y-72337699D01*
X120085365Y-72338556D01*
X120080443Y-72340245D01*
X120080434Y-72340248D01*
X119877357Y-72409964D01*
X119877344Y-72409969D01*
X119872426Y-72411658D01*
X119867847Y-72414135D01*
X119867840Y-72414139D01*
X119679005Y-72516331D01*
X119678997Y-72516336D01*
X119674424Y-72518811D01*
X119670313Y-72522010D01*
X119670311Y-72522012D01*
X119500878Y-72653888D01*
X119500872Y-72653893D01*
X119496760Y-72657094D01*
X119493237Y-72660919D01*
X119493227Y-72660930D01*
X119347806Y-72818899D01*
X119347802Y-72818902D01*
X119344278Y-72822732D01*
X119341430Y-72827090D01*
X119341427Y-72827095D01*
X119223992Y-73006843D01*
X119221140Y-73011209D01*
X119219048Y-73015978D01*
X119219046Y-73015982D01*
X119132799Y-73212606D01*
X119132796Y-73212614D01*
X119130704Y-73217384D01*
X119129423Y-73222440D01*
X119129422Y-73222445D01*
X119087138Y-73389421D01*
X119075436Y-73435632D01*
X119075006Y-73440820D01*
X119075005Y-73440827D01*
X119064252Y-73570600D01*
X119056844Y-73660000D01*
X76804415Y-73660000D01*
X76801513Y-73638579D01*
X76800852Y-73632646D01*
X76800224Y-73625466D01*
X76794115Y-73555629D01*
X76788430Y-73534415D01*
X76785278Y-73518720D01*
X76782666Y-73499438D01*
X76781906Y-73493825D01*
X76758103Y-73420568D01*
X76756232Y-73414252D01*
X76737120Y-73342924D01*
X76726372Y-73319875D01*
X76720740Y-73305578D01*
X76711903Y-73278379D01*
X76677030Y-73213574D01*
X76673820Y-73207178D01*
X76644056Y-73143347D01*
X76627490Y-73119689D01*
X76619746Y-73107122D01*
X76607236Y-73083874D01*
X76607234Y-73083871D01*
X76604556Y-73078894D01*
X76601031Y-73074475D01*
X76601028Y-73074469D01*
X76560832Y-73024065D01*
X76556148Y-73017803D01*
X76517749Y-72962962D01*
X76494881Y-72940094D01*
X76485466Y-72929559D01*
X76466844Y-72906208D01*
X76466841Y-72906205D01*
X76463314Y-72901782D01*
X76413111Y-72857921D01*
X76406916Y-72852129D01*
X76365928Y-72811141D01*
X76362038Y-72807251D01*
X76332697Y-72786707D01*
X76322078Y-72778389D01*
X76292718Y-72752737D01*
X76287858Y-72749833D01*
X76287855Y-72749831D01*
X76238469Y-72720324D01*
X76230825Y-72715373D01*
X76186168Y-72684104D01*
X76186161Y-72684100D01*
X76181654Y-72680944D01*
X76176667Y-72678618D01*
X76176661Y-72678615D01*
X76146053Y-72664342D01*
X76134687Y-72658317D01*
X76098250Y-72636547D01*
X76092949Y-72634557D01*
X76092944Y-72634555D01*
X76042309Y-72615551D01*
X76033334Y-72611781D01*
X75987066Y-72590206D01*
X75987057Y-72590202D01*
X75982076Y-72587880D01*
X75976770Y-72586458D01*
X75976764Y-72586456D01*
X75940800Y-72576820D01*
X75929139Y-72573079D01*
X75924239Y-72571240D01*
X75886161Y-72556949D01*
X75880602Y-72555940D01*
X75880598Y-72555939D01*
X75830781Y-72546898D01*
X75820672Y-72544630D01*
X75774685Y-72532308D01*
X75774675Y-72532306D01*
X75769371Y-72530885D01*
X75763896Y-72530405D01*
X75763891Y-72530405D01*
X75723344Y-72526857D01*
X75711836Y-72525313D01*
X75693643Y-72522012D01*
X75668834Y-72517510D01*
X75668832Y-72517509D01*
X75663267Y-72516500D01*
X75657603Y-72516500D01*
X75610452Y-72516500D01*
X75599471Y-72516021D01*
X75555475Y-72512172D01*
X75550000Y-72511693D01*
X75544525Y-72512172D01*
X75544523Y-72512172D01*
X75496386Y-72516383D01*
X75494619Y-72516500D01*
X75493478Y-72516500D01*
X75490675Y-72516752D01*
X75490657Y-72516753D01*
X75438887Y-72521412D01*
X75438578Y-72521439D01*
X75333959Y-72530592D01*
X75333922Y-72530596D01*
X75330629Y-72530885D01*
X75329103Y-72531293D01*
X75324378Y-72531719D01*
X75318933Y-72533221D01*
X75318931Y-72533222D01*
X75220123Y-72560491D01*
X75219217Y-72560737D01*
X75123238Y-72586456D01*
X75117924Y-72587880D01*
X75114820Y-72589326D01*
X75112893Y-72589942D01*
X75111455Y-72590481D01*
X75106007Y-72591986D01*
X75100924Y-72594433D01*
X75100910Y-72594439D01*
X75011633Y-72637431D01*
X75010218Y-72638102D01*
X74923323Y-72678623D01*
X74923317Y-72678626D01*
X74918347Y-72680944D01*
X74913851Y-72684090D01*
X74913429Y-72684335D01*
X74908290Y-72687051D01*
X74906997Y-72687823D01*
X74901907Y-72690275D01*
X74897340Y-72693592D01*
X74897325Y-72693602D01*
X74819992Y-72749787D01*
X74818206Y-72751062D01*
X74742460Y-72804101D01*
X74742457Y-72804103D01*
X74737962Y-72807251D01*
X74734077Y-72811134D01*
X74729860Y-72814674D01*
X74729673Y-72814451D01*
X74727445Y-72816353D01*
X74727472Y-72816384D01*
X74723216Y-72820101D01*
X74718637Y-72823429D01*
X74714731Y-72827513D01*
X74714722Y-72827522D01*
X74651077Y-72894089D01*
X74649103Y-72896108D01*
X74586137Y-72959075D01*
X74586132Y-72959080D01*
X74582251Y-72962962D01*
X74579099Y-72967462D01*
X74575562Y-72971678D01*
X74575558Y-72971675D01*
X74567473Y-72981533D01*
X74565998Y-72983075D01*
X74565993Y-72983080D01*
X74562088Y-72987166D01*
X74558971Y-72991887D01*
X74558967Y-72991893D01*
X74510144Y-73065855D01*
X74508203Y-73068710D01*
X74459096Y-73138843D01*
X74459088Y-73138856D01*
X74455944Y-73143347D01*
X74453625Y-73148318D01*
X74453620Y-73148328D01*
X74452520Y-73150687D01*
X74443494Y-73166827D01*
X74440412Y-73171496D01*
X74440407Y-73171503D01*
X74437291Y-73176226D01*
X74435069Y-73181423D01*
X74435066Y-73181430D01*
X74401582Y-73259769D01*
X74399918Y-73263494D01*
X74373625Y-73319880D01*
X74362880Y-73342924D01*
X74361459Y-73348225D01*
X74361455Y-73348237D01*
X74359886Y-73354092D01*
X74354051Y-73370970D01*
X74350481Y-73379324D01*
X74350478Y-73379332D01*
X74348257Y-73384530D01*
X74346998Y-73390042D01*
X74346998Y-73390045D01*
X74328816Y-73469708D01*
X74327682Y-73474281D01*
X74307309Y-73550311D01*
X74307307Y-73550321D01*
X74305885Y-73555629D01*
X74305406Y-73561108D01*
X74305405Y-73561114D01*
X74304575Y-73570600D01*
X74301896Y-73587648D01*
X74297849Y-73605385D01*
X74297595Y-73611033D01*
X74297594Y-73611043D01*
X74294083Y-73689218D01*
X74293731Y-73694543D01*
X74286693Y-73775000D01*
X73901195Y-73775000D01*
X73901864Y-73772815D01*
X73905317Y-73745840D01*
X73908151Y-73730920D01*
X73914051Y-73707626D01*
X73920860Y-73625443D01*
X73921445Y-73619895D01*
X73932318Y-73534995D01*
X73931310Y-73511270D01*
X73931627Y-73495518D01*
X73932897Y-73480197D01*
X73932897Y-73480189D01*
X73933327Y-73475000D01*
X73926233Y-73389392D01*
X73925922Y-73384434D01*
X73922143Y-73295449D01*
X73917863Y-73275593D01*
X73915465Y-73259445D01*
X73914481Y-73247569D01*
X73914051Y-73242374D01*
X73892129Y-73155808D01*
X73891109Y-73151453D01*
X73888391Y-73138843D01*
X73871630Y-73061068D01*
X73865338Y-73045411D01*
X73860107Y-73029357D01*
X73856749Y-73016093D01*
X73819502Y-72931181D01*
X73817982Y-72927561D01*
X73784229Y-72843562D01*
X73784226Y-72843557D01*
X73782233Y-72838596D01*
X73775197Y-72827169D01*
X73767102Y-72811720D01*
X73766848Y-72811141D01*
X73762984Y-72802331D01*
X73747336Y-72778380D01*
X73710412Y-72721863D01*
X73708602Y-72719011D01*
X73659331Y-72638990D01*
X73656524Y-72634431D01*
X73649927Y-72626936D01*
X73639042Y-72612622D01*
X73638167Y-72611283D01*
X73638163Y-72611278D01*
X73635314Y-72606917D01*
X73631783Y-72603081D01*
X73631779Y-72603076D01*
X73567874Y-72533658D01*
X73566020Y-72531600D01*
X73498119Y-72454449D01*
X73493039Y-72450347D01*
X73484644Y-72442479D01*
X73484583Y-72442546D01*
X73480750Y-72439017D01*
X73477220Y-72435182D01*
X73473110Y-72431983D01*
X73473108Y-72431981D01*
X73395914Y-72371899D01*
X73394149Y-72370499D01*
X73356684Y-72340248D01*
X73311576Y-72303825D01*
X73306906Y-72301216D01*
X73305672Y-72300382D01*
X73301319Y-72297749D01*
X73297134Y-72295014D01*
X73293017Y-72291810D01*
X73199383Y-72241138D01*
X73197904Y-72240324D01*
X73106931Y-72189504D01*
X73106927Y-72189502D01*
X73102260Y-72186895D01*
X73097214Y-72185112D01*
X73095989Y-72184558D01*
X73091695Y-72182860D01*
X73087727Y-72180713D01*
X73082808Y-72179024D01*
X73082803Y-72179022D01*
X72983781Y-72145027D01*
X72982719Y-72144657D01*
X72881236Y-72108801D01*
X72881231Y-72108799D01*
X72876194Y-72107020D01*
X72870925Y-72106116D01*
X72869452Y-72105733D01*
X72869103Y-72105659D01*
X72866951Y-72104920D01*
X72861816Y-72104063D01*
X72861812Y-72104062D01*
X72755300Y-72086288D01*
X72754747Y-72086195D01*
X72645151Y-72067403D01*
X72645144Y-72067402D01*
X72639881Y-72066500D01*
X72636712Y-72066500D01*
X72403288Y-72066500D01*
X72398156Y-72067356D01*
X72398147Y-72067357D01*
X72349068Y-72075547D01*
X72339018Y-72076811D01*
X72286434Y-72081287D01*
X72286432Y-72081287D01*
X72281102Y-72081741D01*
X72275924Y-72083089D01*
X72275925Y-72083089D01*
X72231496Y-72094657D01*
X72220490Y-72097003D01*
X72178194Y-72104061D01*
X72178188Y-72104062D01*
X72173049Y-72104920D01*
X72168123Y-72106610D01*
X72168115Y-72106613D01*
X72117814Y-72123881D01*
X72108657Y-72126641D01*
X72054253Y-72140807D01*
X72054242Y-72140810D01*
X72049076Y-72142156D01*
X72010918Y-72159403D01*
X72005492Y-72161856D01*
X71994512Y-72166211D01*
X71971285Y-72174185D01*
X71952273Y-72180713D01*
X71947708Y-72183182D01*
X71947695Y-72183189D01*
X71897886Y-72210144D01*
X71889820Y-72214143D01*
X71835478Y-72238707D01*
X71835468Y-72238712D01*
X71830598Y-72240914D01*
X71826165Y-72243909D01*
X71826158Y-72243914D01*
X71793814Y-72265774D01*
X71783232Y-72272192D01*
X71751566Y-72289329D01*
X71751559Y-72289333D01*
X71746983Y-72291810D01*
X71742872Y-72295009D01*
X71742873Y-72295009D01*
X71695476Y-72331898D01*
X71688648Y-72336854D01*
X71636389Y-72372176D01*
X71636383Y-72372180D01*
X71631953Y-72375175D01*
X71628094Y-72378872D01*
X71628087Y-72378879D01*
X71602382Y-72403515D01*
X71592594Y-72411975D01*
X71566888Y-72431983D01*
X71566877Y-72431992D01*
X71562780Y-72435182D01*
X71559266Y-72438998D01*
X71559254Y-72439010D01*
X71516254Y-72485720D01*
X71510741Y-72491344D01*
X71462720Y-72537369D01*
X71462705Y-72537385D01*
X71458856Y-72541075D01*
X71455681Y-72545367D01*
X71455678Y-72545371D01*
X71436544Y-72571240D01*
X71427950Y-72581643D01*
X71408216Y-72603081D01*
X71408209Y-72603088D01*
X71404686Y-72606917D01*
X71401843Y-72611268D01*
X71401834Y-72611280D01*
X71365231Y-72667305D01*
X71361054Y-72673310D01*
X71319467Y-72729539D01*
X71319461Y-72729548D01*
X71316285Y-72733843D01*
X71313875Y-72738621D01*
X71313871Y-72738629D01*
X71300940Y-72764274D01*
X71293920Y-72776455D01*
X71279869Y-72797964D01*
X71277016Y-72802331D01*
X71274930Y-72807085D01*
X71274921Y-72807103D01*
X71246663Y-72871524D01*
X71243787Y-72877632D01*
X71235490Y-72894089D01*
X71208343Y-72947933D01*
X71206779Y-72953039D01*
X71206776Y-72953047D01*
X71199371Y-72977225D01*
X71194286Y-72990930D01*
X71185344Y-73011318D01*
X71185339Y-73011332D01*
X71183251Y-73016093D01*
X71181975Y-73021129D01*
X71181972Y-73021140D01*
X71163859Y-73092668D01*
X71162192Y-73098630D01*
X71139705Y-73172058D01*
X71139702Y-73172069D01*
X71138136Y-73177185D01*
X71137455Y-73182495D01*
X71137456Y-73182495D01*
X71134681Y-73204159D01*
X71131848Y-73219074D01*
X71127227Y-73237323D01*
X71127225Y-73237334D01*
X71125949Y-73242374D01*
X71125519Y-73247557D01*
X71125519Y-73247560D01*
X71119141Y-73324523D01*
X71118552Y-73330112D01*
X71117481Y-73338480D01*
X71094335Y-73396683D01*
X71046024Y-73436551D01*
X70984486Y-73448229D01*
X70924928Y-73428833D01*
X70882069Y-73383155D01*
X70866500Y-73322484D01*
X70866500Y-71692545D01*
X162097682Y-71692545D01*
X162108858Y-71695200D01*
X162733610Y-71695200D01*
X162746693Y-71691693D01*
X162750200Y-71678610D01*
X163359800Y-71678610D01*
X163363306Y-71691693D01*
X163376390Y-71695200D01*
X164001142Y-71695200D01*
X164012317Y-71692545D01*
X164011612Y-71681077D01*
X163992573Y-71618314D01*
X163987857Y-71606928D01*
X163900096Y-71442740D01*
X163894929Y-71435007D01*
X163876112Y-71389583D01*
X163876112Y-71340417D01*
X163894929Y-71294993D01*
X163900096Y-71287259D01*
X163987857Y-71123071D01*
X163992573Y-71111685D01*
X164011612Y-71048922D01*
X164012317Y-71037454D01*
X164001142Y-71034800D01*
X163376390Y-71034800D01*
X163363306Y-71038306D01*
X163359800Y-71051390D01*
X163359800Y-71678610D01*
X162750200Y-71678610D01*
X162750200Y-71051390D01*
X162746693Y-71038306D01*
X162733610Y-71034800D01*
X162108858Y-71034800D01*
X162097682Y-71037454D01*
X162098387Y-71048922D01*
X162117426Y-71111685D01*
X162122142Y-71123071D01*
X162209906Y-71287266D01*
X162215074Y-71295000D01*
X162233886Y-71340416D01*
X162233887Y-71389573D01*
X162215079Y-71434991D01*
X162209907Y-71442732D01*
X162122142Y-71606928D01*
X162117426Y-71618314D01*
X162098387Y-71681077D01*
X162097682Y-71692545D01*
X70866500Y-71692545D01*
X70866500Y-69460000D01*
X162041620Y-69460000D01*
X162042227Y-69466163D01*
X162060484Y-69651538D01*
X162060485Y-69651547D01*
X162061092Y-69657701D01*
X162118759Y-69847804D01*
X162121678Y-69853265D01*
X162209486Y-70017544D01*
X162209488Y-70017548D01*
X162212405Y-70023004D01*
X162215134Y-70026329D01*
X162233583Y-70070871D01*
X162233584Y-70120029D01*
X162214775Y-70165446D01*
X162209908Y-70172730D01*
X162122142Y-70336928D01*
X162117426Y-70348314D01*
X162098387Y-70411077D01*
X162097682Y-70422545D01*
X162108858Y-70425200D01*
X162743969Y-70425200D01*
X162780545Y-70430625D01*
X162857299Y-70453908D01*
X162863460Y-70454514D01*
X162863461Y-70454515D01*
X163048837Y-70472773D01*
X163055000Y-70473380D01*
X163252701Y-70453908D01*
X163329454Y-70430625D01*
X163366031Y-70425200D01*
X164001142Y-70425200D01*
X164012317Y-70422545D01*
X164011612Y-70411077D01*
X163992573Y-70348314D01*
X163987857Y-70336928D01*
X163900094Y-70172736D01*
X163895231Y-70165458D01*
X163876415Y-70120034D01*
X163876416Y-70070867D01*
X163894868Y-70026326D01*
X163897595Y-70023004D01*
X163991241Y-69847804D01*
X164048908Y-69657701D01*
X164068380Y-69460000D01*
X164048908Y-69262299D01*
X163991241Y-69072196D01*
X163897595Y-68896996D01*
X163895099Y-68893954D01*
X163876718Y-68849584D01*
X163876718Y-68800416D01*
X163895099Y-68756045D01*
X163897595Y-68753004D01*
X163991241Y-68577804D01*
X164048908Y-68387701D01*
X164068380Y-68190000D01*
X164048908Y-67992299D01*
X163991241Y-67802196D01*
X163897595Y-67626996D01*
X163895099Y-67623954D01*
X163876718Y-67579584D01*
X163876718Y-67530416D01*
X163895099Y-67486045D01*
X163897595Y-67483004D01*
X163991241Y-67307804D01*
X164048908Y-67117701D01*
X164068380Y-66920000D01*
X164048908Y-66722299D01*
X163991241Y-66532196D01*
X163897595Y-66356996D01*
X163771568Y-66203432D01*
X163726873Y-66166752D01*
X163622788Y-66081331D01*
X163622787Y-66081330D01*
X163618004Y-66077405D01*
X163525833Y-66028139D01*
X163448265Y-65986678D01*
X163442804Y-65983759D01*
X163354987Y-65957120D01*
X163258623Y-65927888D01*
X163258619Y-65927887D01*
X163252701Y-65926092D01*
X163246547Y-65925485D01*
X163246538Y-65925484D01*
X163061163Y-65907227D01*
X163055000Y-65906620D01*
X163048837Y-65907227D01*
X162863461Y-65925484D01*
X162863450Y-65925486D01*
X162857299Y-65926092D01*
X162851382Y-65927886D01*
X162851376Y-65927888D01*
X162673119Y-65981962D01*
X162673116Y-65981963D01*
X162667196Y-65983759D01*
X162661738Y-65986676D01*
X162661734Y-65986678D01*
X162497454Y-66074487D01*
X162497449Y-66074490D01*
X162491996Y-66077405D01*
X162487217Y-66081326D01*
X162487211Y-66081331D01*
X162343211Y-66199509D01*
X162343205Y-66199514D01*
X162338432Y-66203432D01*
X162334514Y-66208205D01*
X162334509Y-66208211D01*
X162216331Y-66352211D01*
X162216326Y-66352217D01*
X162212405Y-66356996D01*
X162209490Y-66362449D01*
X162209487Y-66362454D01*
X162121678Y-66526734D01*
X162118759Y-66532196D01*
X162116963Y-66538116D01*
X162116962Y-66538119D01*
X162062888Y-66716376D01*
X162062886Y-66716382D01*
X162061092Y-66722299D01*
X162060486Y-66728450D01*
X162060484Y-66728461D01*
X162048415Y-66851006D01*
X162041620Y-66920000D01*
X162042227Y-66926163D01*
X162060484Y-67111538D01*
X162060485Y-67111547D01*
X162061092Y-67117701D01*
X162118759Y-67307804D01*
X162121678Y-67313265D01*
X162209488Y-67477548D01*
X162209491Y-67477553D01*
X162212405Y-67483004D01*
X162214901Y-67486046D01*
X162233280Y-67530421D01*
X162233280Y-67579579D01*
X162214901Y-67623953D01*
X162212405Y-67626996D01*
X162209494Y-67632441D01*
X162209488Y-67632451D01*
X162121678Y-67796734D01*
X162118759Y-67802196D01*
X162116963Y-67808116D01*
X162116962Y-67808119D01*
X162062888Y-67986376D01*
X162062886Y-67986382D01*
X162061092Y-67992299D01*
X162060486Y-67998450D01*
X162060484Y-67998461D01*
X162046258Y-68142909D01*
X162041620Y-68190000D01*
X162042227Y-68196163D01*
X162060484Y-68381538D01*
X162060485Y-68381547D01*
X162061092Y-68387701D01*
X162062887Y-68393619D01*
X162062888Y-68393623D01*
X162080351Y-68451189D01*
X162118759Y-68577804D01*
X162121678Y-68583265D01*
X162209488Y-68747548D01*
X162209491Y-68747553D01*
X162212405Y-68753004D01*
X162214901Y-68756046D01*
X162233280Y-68800421D01*
X162233280Y-68849579D01*
X162214901Y-68893953D01*
X162212405Y-68896996D01*
X162209494Y-68902441D01*
X162209488Y-68902451D01*
X162121678Y-69066734D01*
X162118759Y-69072196D01*
X162116963Y-69078116D01*
X162116962Y-69078119D01*
X162062888Y-69256376D01*
X162062886Y-69256382D01*
X162061092Y-69262299D01*
X162060486Y-69268450D01*
X162060484Y-69268461D01*
X162042227Y-69453837D01*
X162041620Y-69460000D01*
X70866500Y-69460000D01*
X70866500Y-67819607D01*
X70884796Y-67754217D01*
X70934371Y-67707817D01*
X71000828Y-67693882D01*
X71064866Y-67716460D01*
X71107887Y-67768993D01*
X71191140Y-67958791D01*
X71314278Y-68147268D01*
X71353616Y-68190000D01*
X71463227Y-68309069D01*
X71463231Y-68309073D01*
X71466760Y-68312906D01*
X71644424Y-68451189D01*
X71842426Y-68558342D01*
X71847355Y-68560034D01*
X71847357Y-68560035D01*
X71881861Y-68571880D01*
X72055365Y-68631444D01*
X72277431Y-68668500D01*
X72497358Y-68668500D01*
X72502569Y-68668500D01*
X72724635Y-68631444D01*
X72937574Y-68558342D01*
X73135576Y-68451189D01*
X73313240Y-68312906D01*
X73465722Y-68147268D01*
X73554521Y-68011349D01*
X73600029Y-67969458D01*
X73659998Y-67954271D01*
X73719968Y-67969457D01*
X73765481Y-68011354D01*
X73854278Y-68147268D01*
X73893616Y-68190000D01*
X74003227Y-68309069D01*
X74003231Y-68309073D01*
X74006760Y-68312906D01*
X74184424Y-68451189D01*
X74382426Y-68558342D01*
X74387355Y-68560034D01*
X74387357Y-68560035D01*
X74421861Y-68571880D01*
X74595365Y-68631444D01*
X74817431Y-68668500D01*
X75037358Y-68668500D01*
X75042569Y-68668500D01*
X75264635Y-68631444D01*
X75477574Y-68558342D01*
X75675576Y-68451189D01*
X75853240Y-68312906D01*
X76005722Y-68147268D01*
X76094817Y-68010896D01*
X76140328Y-67969001D01*
X76200297Y-67953814D01*
X76260267Y-67969000D01*
X76305781Y-68010898D01*
X76391822Y-68142592D01*
X76398210Y-68150799D01*
X76543567Y-68308700D01*
X76551211Y-68315737D01*
X76720588Y-68447568D01*
X76729281Y-68453247D01*
X76918042Y-68555400D01*
X76927559Y-68559575D01*
X77130557Y-68629264D01*
X77140627Y-68631814D01*
X77151661Y-68633655D01*
X77162798Y-68633079D01*
X77165200Y-68622187D01*
X77774800Y-68622187D01*
X77777201Y-68633079D01*
X77788338Y-68633655D01*
X77799372Y-68631814D01*
X77809442Y-68629264D01*
X78012440Y-68559575D01*
X78021957Y-68555400D01*
X78210718Y-68453247D01*
X78219411Y-68447568D01*
X78388788Y-68315737D01*
X78396432Y-68308700D01*
X78541789Y-68150799D01*
X78548181Y-68142587D01*
X78634218Y-68010899D01*
X78679732Y-67969000D01*
X78739701Y-67953814D01*
X78799670Y-67969000D01*
X78845183Y-68010898D01*
X78934278Y-68147268D01*
X78973616Y-68190000D01*
X79083227Y-68309069D01*
X79083231Y-68309073D01*
X79086760Y-68312906D01*
X79264424Y-68451189D01*
X79462426Y-68558342D01*
X79467355Y-68560034D01*
X79467357Y-68560035D01*
X79501861Y-68571880D01*
X79675365Y-68631444D01*
X79897431Y-68668500D01*
X80117358Y-68668500D01*
X80122569Y-68668500D01*
X80344635Y-68631444D01*
X80557574Y-68558342D01*
X80755576Y-68451189D01*
X80933240Y-68312906D01*
X81085722Y-68147268D01*
X81174521Y-68011349D01*
X81220029Y-67969458D01*
X81279998Y-67954271D01*
X81339968Y-67969457D01*
X81385481Y-68011354D01*
X81474278Y-68147268D01*
X81513616Y-68190000D01*
X81623227Y-68309069D01*
X81623231Y-68309073D01*
X81626760Y-68312906D01*
X81804424Y-68451189D01*
X82002426Y-68558342D01*
X82007355Y-68560034D01*
X82007357Y-68560035D01*
X82041861Y-68571880D01*
X82215365Y-68631444D01*
X82437431Y-68668500D01*
X82657358Y-68668500D01*
X82662569Y-68668500D01*
X82884635Y-68631444D01*
X83097574Y-68558342D01*
X83295576Y-68451189D01*
X83473240Y-68312906D01*
X83625722Y-68147268D01*
X83714521Y-68011349D01*
X83760029Y-67969458D01*
X83819998Y-67954271D01*
X83879968Y-67969457D01*
X83925481Y-68011354D01*
X84014278Y-68147268D01*
X84053616Y-68190000D01*
X84163227Y-68309069D01*
X84163231Y-68309073D01*
X84166760Y-68312906D01*
X84344424Y-68451189D01*
X84542426Y-68558342D01*
X84547355Y-68560034D01*
X84547357Y-68560035D01*
X84581861Y-68571880D01*
X84755365Y-68631444D01*
X84977431Y-68668500D01*
X85197358Y-68668500D01*
X85202569Y-68668500D01*
X85424635Y-68631444D01*
X85637574Y-68558342D01*
X85835576Y-68451189D01*
X86013240Y-68312906D01*
X86165722Y-68147268D01*
X86254521Y-68011349D01*
X86300029Y-67969458D01*
X86359998Y-67954271D01*
X86419968Y-67969457D01*
X86465481Y-68011354D01*
X86554278Y-68147268D01*
X86593616Y-68190000D01*
X86703227Y-68309069D01*
X86703231Y-68309073D01*
X86706760Y-68312906D01*
X86884424Y-68451189D01*
X87082426Y-68558342D01*
X87087355Y-68560034D01*
X87087357Y-68560035D01*
X87121861Y-68571880D01*
X87295365Y-68631444D01*
X87517431Y-68668500D01*
X87737358Y-68668500D01*
X87742569Y-68668500D01*
X87964635Y-68631444D01*
X88177574Y-68558342D01*
X88375576Y-68451189D01*
X88553240Y-68312906D01*
X88705722Y-68147268D01*
X88794817Y-68010896D01*
X88840328Y-67969001D01*
X88900297Y-67953814D01*
X88960267Y-67969000D01*
X89005781Y-68010898D01*
X89091822Y-68142592D01*
X89098210Y-68150799D01*
X89243567Y-68308700D01*
X89251211Y-68315737D01*
X89420588Y-68447568D01*
X89429281Y-68453247D01*
X89618042Y-68555400D01*
X89627559Y-68559575D01*
X89830557Y-68629264D01*
X89840627Y-68631814D01*
X89851661Y-68633655D01*
X89862798Y-68633079D01*
X89865200Y-68622187D01*
X90474800Y-68622187D01*
X90477201Y-68633079D01*
X90488338Y-68633655D01*
X90499372Y-68631814D01*
X90509442Y-68629264D01*
X90712440Y-68559575D01*
X90721957Y-68555400D01*
X90910718Y-68453247D01*
X90919411Y-68447568D01*
X91088788Y-68315737D01*
X91096432Y-68308700D01*
X91241789Y-68150799D01*
X91248181Y-68142587D01*
X91334218Y-68010899D01*
X91379732Y-67969000D01*
X91439701Y-67953814D01*
X91499670Y-67969000D01*
X91545183Y-68010898D01*
X91634278Y-68147268D01*
X91673616Y-68190000D01*
X91783227Y-68309069D01*
X91783231Y-68309073D01*
X91786760Y-68312906D01*
X91964424Y-68451189D01*
X92162426Y-68558342D01*
X92167355Y-68560034D01*
X92167357Y-68560035D01*
X92201861Y-68571880D01*
X92375365Y-68631444D01*
X92597431Y-68668500D01*
X92817358Y-68668500D01*
X92822569Y-68668500D01*
X93044635Y-68631444D01*
X93257574Y-68558342D01*
X93455576Y-68451189D01*
X93633240Y-68312906D01*
X93785722Y-68147268D01*
X93874521Y-68011349D01*
X93920029Y-67969458D01*
X93979998Y-67954271D01*
X94039968Y-67969457D01*
X94085481Y-68011354D01*
X94174278Y-68147268D01*
X94213616Y-68190000D01*
X94323227Y-68309069D01*
X94323231Y-68309073D01*
X94326760Y-68312906D01*
X94504424Y-68451189D01*
X94702426Y-68558342D01*
X94707355Y-68560034D01*
X94707357Y-68560035D01*
X94741861Y-68571880D01*
X94915365Y-68631444D01*
X95137431Y-68668500D01*
X95357358Y-68668500D01*
X95362569Y-68668500D01*
X95584635Y-68631444D01*
X95797574Y-68558342D01*
X95995576Y-68451189D01*
X96173240Y-68312906D01*
X96325722Y-68147268D01*
X96414521Y-68011349D01*
X96460029Y-67969458D01*
X96519998Y-67954271D01*
X96579968Y-67969457D01*
X96625481Y-68011354D01*
X96714278Y-68147268D01*
X96753616Y-68190000D01*
X96863227Y-68309069D01*
X96863231Y-68309073D01*
X96866760Y-68312906D01*
X97044424Y-68451189D01*
X97242426Y-68558342D01*
X97247355Y-68560034D01*
X97247357Y-68560035D01*
X97281861Y-68571880D01*
X97455365Y-68631444D01*
X97677431Y-68668500D01*
X97897358Y-68668500D01*
X97902569Y-68668500D01*
X98124635Y-68631444D01*
X98337574Y-68558342D01*
X98535576Y-68451189D01*
X98713240Y-68312906D01*
X98865722Y-68147268D01*
X98954521Y-68011349D01*
X99000029Y-67969458D01*
X99059998Y-67954271D01*
X99119968Y-67969457D01*
X99165481Y-68011354D01*
X99254278Y-68147268D01*
X99293616Y-68190000D01*
X99403227Y-68309069D01*
X99403231Y-68309073D01*
X99406760Y-68312906D01*
X99584424Y-68451189D01*
X99782426Y-68558342D01*
X99787355Y-68560034D01*
X99787357Y-68560035D01*
X99821861Y-68571880D01*
X99995365Y-68631444D01*
X100217431Y-68668500D01*
X100437358Y-68668500D01*
X100442569Y-68668500D01*
X100664635Y-68631444D01*
X100877574Y-68558342D01*
X101075576Y-68451189D01*
X101253240Y-68312906D01*
X101405722Y-68147268D01*
X101494817Y-68010896D01*
X101540328Y-67969001D01*
X101600297Y-67953814D01*
X101660267Y-67969000D01*
X101705781Y-68010898D01*
X101791822Y-68142592D01*
X101798210Y-68150799D01*
X101943567Y-68308700D01*
X101951211Y-68315737D01*
X102120588Y-68447568D01*
X102129281Y-68453247D01*
X102318042Y-68555400D01*
X102327559Y-68559575D01*
X102530557Y-68629264D01*
X102540627Y-68631814D01*
X102551661Y-68633655D01*
X102562798Y-68633079D01*
X102565200Y-68622187D01*
X103174800Y-68622187D01*
X103177201Y-68633079D01*
X103188338Y-68633655D01*
X103199372Y-68631814D01*
X103209442Y-68629264D01*
X103412440Y-68559575D01*
X103421957Y-68555400D01*
X103610718Y-68453247D01*
X103619411Y-68447568D01*
X103788788Y-68315737D01*
X103796432Y-68308700D01*
X103941789Y-68150799D01*
X103948181Y-68142587D01*
X104034218Y-68010899D01*
X104079732Y-67969000D01*
X104139701Y-67953814D01*
X104199670Y-67969000D01*
X104245183Y-68010898D01*
X104334278Y-68147268D01*
X104373616Y-68190000D01*
X104483227Y-68309069D01*
X104483231Y-68309073D01*
X104486760Y-68312906D01*
X104664424Y-68451189D01*
X104862426Y-68558342D01*
X104867355Y-68560034D01*
X104867357Y-68560035D01*
X104901861Y-68571880D01*
X105075365Y-68631444D01*
X105297431Y-68668500D01*
X105517358Y-68668500D01*
X105522569Y-68668500D01*
X105744635Y-68631444D01*
X105957574Y-68558342D01*
X106155576Y-68451189D01*
X106333240Y-68312906D01*
X106485722Y-68147268D01*
X106574521Y-68011349D01*
X106620029Y-67969458D01*
X106679998Y-67954271D01*
X106739968Y-67969457D01*
X106785481Y-68011354D01*
X106874278Y-68147268D01*
X106913616Y-68190000D01*
X107023227Y-68309069D01*
X107023231Y-68309073D01*
X107026760Y-68312906D01*
X107204424Y-68451189D01*
X107402426Y-68558342D01*
X107407355Y-68560034D01*
X107407357Y-68560035D01*
X107441861Y-68571880D01*
X107615365Y-68631444D01*
X107837431Y-68668500D01*
X108057358Y-68668500D01*
X108062569Y-68668500D01*
X108284635Y-68631444D01*
X108497574Y-68558342D01*
X108695576Y-68451189D01*
X108873240Y-68312906D01*
X109025722Y-68147268D01*
X109114521Y-68011349D01*
X109160029Y-67969458D01*
X109219998Y-67954271D01*
X109279968Y-67969457D01*
X109325481Y-68011354D01*
X109414278Y-68147268D01*
X109453616Y-68190000D01*
X109563227Y-68309069D01*
X109563231Y-68309073D01*
X109566760Y-68312906D01*
X109744424Y-68451189D01*
X109942426Y-68558342D01*
X109947355Y-68560034D01*
X109947357Y-68560035D01*
X109981861Y-68571880D01*
X110155365Y-68631444D01*
X110377431Y-68668500D01*
X110597358Y-68668500D01*
X110602569Y-68668500D01*
X110824635Y-68631444D01*
X111037574Y-68558342D01*
X111235576Y-68451189D01*
X111413240Y-68312906D01*
X111565722Y-68147268D01*
X111654518Y-68011354D01*
X111700030Y-67969457D01*
X111760000Y-67954271D01*
X111819970Y-67969457D01*
X111865481Y-68011354D01*
X111954278Y-68147268D01*
X111993616Y-68190000D01*
X112103227Y-68309069D01*
X112103231Y-68309073D01*
X112106760Y-68312906D01*
X112284424Y-68451189D01*
X112482426Y-68558342D01*
X112487355Y-68560034D01*
X112487357Y-68560035D01*
X112521861Y-68571880D01*
X112695365Y-68631444D01*
X112917431Y-68668500D01*
X113137358Y-68668500D01*
X113142569Y-68668500D01*
X113364635Y-68631444D01*
X113577574Y-68558342D01*
X113775576Y-68451189D01*
X113953240Y-68312906D01*
X114105722Y-68147268D01*
X114194817Y-68010896D01*
X114240328Y-67969001D01*
X114300297Y-67953814D01*
X114360267Y-67969000D01*
X114405781Y-68010898D01*
X114491822Y-68142592D01*
X114498210Y-68150799D01*
X114643567Y-68308700D01*
X114651211Y-68315737D01*
X114820588Y-68447568D01*
X114829281Y-68453247D01*
X115018042Y-68555400D01*
X115027559Y-68559575D01*
X115230557Y-68629264D01*
X115240627Y-68631814D01*
X115251661Y-68633655D01*
X115262798Y-68633079D01*
X115265200Y-68622187D01*
X115874800Y-68622187D01*
X115877201Y-68633079D01*
X115888338Y-68633655D01*
X115899372Y-68631814D01*
X115909442Y-68629264D01*
X116112440Y-68559575D01*
X116121957Y-68555400D01*
X116310718Y-68453247D01*
X116319411Y-68447568D01*
X116488788Y-68315737D01*
X116496432Y-68308700D01*
X116641789Y-68150799D01*
X116648181Y-68142587D01*
X116734218Y-68010899D01*
X116779732Y-67969000D01*
X116839701Y-67953814D01*
X116899670Y-67969000D01*
X116945183Y-68010898D01*
X117034278Y-68147268D01*
X117073616Y-68190000D01*
X117183227Y-68309069D01*
X117183231Y-68309073D01*
X117186760Y-68312906D01*
X117364424Y-68451189D01*
X117562426Y-68558342D01*
X117567355Y-68560034D01*
X117567357Y-68560035D01*
X117601861Y-68571880D01*
X117775365Y-68631444D01*
X117997431Y-68668500D01*
X118217358Y-68668500D01*
X118222569Y-68668500D01*
X118444635Y-68631444D01*
X118657574Y-68558342D01*
X118855576Y-68451189D01*
X119033240Y-68312906D01*
X119185722Y-68147268D01*
X119274518Y-68011354D01*
X119320030Y-67969457D01*
X119380000Y-67954271D01*
X119439970Y-67969457D01*
X119485481Y-68011354D01*
X119574278Y-68147268D01*
X119613616Y-68190000D01*
X119723227Y-68309069D01*
X119723231Y-68309073D01*
X119726760Y-68312906D01*
X119904424Y-68451189D01*
X120102426Y-68558342D01*
X120107355Y-68560034D01*
X120107357Y-68560035D01*
X120141861Y-68571880D01*
X120315365Y-68631444D01*
X120537431Y-68668500D01*
X120757358Y-68668500D01*
X120762569Y-68668500D01*
X120984635Y-68631444D01*
X121197574Y-68558342D01*
X121395576Y-68451189D01*
X121573240Y-68312906D01*
X121725722Y-68147268D01*
X121848860Y-67958791D01*
X121939296Y-67752616D01*
X121994564Y-67534368D01*
X122013156Y-67310000D01*
X121994564Y-67085632D01*
X121939296Y-66867384D01*
X121848860Y-66661209D01*
X121725722Y-66472732D01*
X121624203Y-66362454D01*
X121576772Y-66310930D01*
X121576767Y-66310925D01*
X121573240Y-66307094D01*
X121395576Y-66168811D01*
X121390997Y-66166333D01*
X121390994Y-66166331D01*
X121202159Y-66064139D01*
X121202156Y-66064137D01*
X121197574Y-66061658D01*
X121192650Y-66059967D01*
X121192642Y-66059964D01*
X120989565Y-65990248D01*
X120989559Y-65990246D01*
X120984635Y-65988556D01*
X120979498Y-65987698D01*
X120979495Y-65987698D01*
X120767706Y-65952357D01*
X120767703Y-65952356D01*
X120762569Y-65951500D01*
X120537431Y-65951500D01*
X120532297Y-65952356D01*
X120532293Y-65952357D01*
X120320504Y-65987698D01*
X120320498Y-65987699D01*
X120315365Y-65988556D01*
X120310443Y-65990245D01*
X120310434Y-65990248D01*
X120107357Y-66059964D01*
X120107344Y-66059969D01*
X120102426Y-66061658D01*
X120097847Y-66064135D01*
X120097840Y-66064139D01*
X119909005Y-66166331D01*
X119908997Y-66166336D01*
X119904424Y-66168811D01*
X119900313Y-66172010D01*
X119900311Y-66172012D01*
X119730878Y-66303888D01*
X119730872Y-66303893D01*
X119726760Y-66307094D01*
X119723237Y-66310919D01*
X119723227Y-66310930D01*
X119577806Y-66468899D01*
X119577802Y-66468902D01*
X119574278Y-66472732D01*
X119571430Y-66477090D01*
X119571427Y-66477095D01*
X119485483Y-66608643D01*
X119439969Y-66650542D01*
X119380000Y-66665728D01*
X119320031Y-66650542D01*
X119274517Y-66608643D01*
X119228441Y-66538119D01*
X119185722Y-66472732D01*
X119084203Y-66362454D01*
X119036772Y-66310930D01*
X119036767Y-66310925D01*
X119033240Y-66307094D01*
X118855576Y-66168811D01*
X118850997Y-66166333D01*
X118850994Y-66166331D01*
X118662159Y-66064139D01*
X118662156Y-66064137D01*
X118657574Y-66061658D01*
X118652650Y-66059967D01*
X118652642Y-66059964D01*
X118449565Y-65990248D01*
X118449559Y-65990246D01*
X118444635Y-65988556D01*
X118439498Y-65987698D01*
X118439495Y-65987698D01*
X118227706Y-65952357D01*
X118227703Y-65952356D01*
X118222569Y-65951500D01*
X117997431Y-65951500D01*
X117992297Y-65952356D01*
X117992293Y-65952357D01*
X117780504Y-65987698D01*
X117780498Y-65987699D01*
X117775365Y-65988556D01*
X117770443Y-65990245D01*
X117770434Y-65990248D01*
X117567357Y-66059964D01*
X117567344Y-66059969D01*
X117562426Y-66061658D01*
X117557847Y-66064135D01*
X117557840Y-66064139D01*
X117369005Y-66166331D01*
X117368997Y-66166336D01*
X117364424Y-66168811D01*
X117360313Y-66172010D01*
X117360311Y-66172012D01*
X117190878Y-66303888D01*
X117190872Y-66303893D01*
X117186760Y-66307094D01*
X117183237Y-66310919D01*
X117183227Y-66310930D01*
X117037806Y-66468899D01*
X117037802Y-66468902D01*
X117034278Y-66472732D01*
X116945184Y-66609101D01*
X116899670Y-66650999D01*
X116839701Y-66666185D01*
X116779732Y-66650999D01*
X116734218Y-66609101D01*
X116648177Y-66477407D01*
X116641789Y-66469200D01*
X116496432Y-66311299D01*
X116488788Y-66304262D01*
X116319411Y-66172431D01*
X116310718Y-66166752D01*
X116121957Y-66064599D01*
X116112440Y-66060424D01*
X115909442Y-65990735D01*
X115899372Y-65988185D01*
X115888338Y-65986344D01*
X115877201Y-65986920D01*
X115874800Y-65997813D01*
X115874800Y-68622187D01*
X115265200Y-68622187D01*
X115265200Y-65997813D01*
X115262798Y-65986920D01*
X115251661Y-65986344D01*
X115240627Y-65988185D01*
X115230557Y-65990735D01*
X115027559Y-66060424D01*
X115018042Y-66064599D01*
X114829281Y-66166752D01*
X114820588Y-66172431D01*
X114651211Y-66304262D01*
X114643567Y-66311299D01*
X114498210Y-66469200D01*
X114491816Y-66477415D01*
X114405780Y-66609101D01*
X114360267Y-66650999D01*
X114300297Y-66666185D01*
X114240328Y-66650998D01*
X114194816Y-66609101D01*
X114105722Y-66472732D01*
X114004203Y-66362454D01*
X113956772Y-66310930D01*
X113956767Y-66310925D01*
X113953240Y-66307094D01*
X113775576Y-66168811D01*
X113770997Y-66166333D01*
X113770994Y-66166331D01*
X113582159Y-66064139D01*
X113582156Y-66064137D01*
X113577574Y-66061658D01*
X113572650Y-66059967D01*
X113572642Y-66059964D01*
X113369565Y-65990248D01*
X113369559Y-65990246D01*
X113364635Y-65988556D01*
X113359498Y-65987698D01*
X113359495Y-65987698D01*
X113147706Y-65952357D01*
X113147703Y-65952356D01*
X113142569Y-65951500D01*
X112917431Y-65951500D01*
X112912297Y-65952356D01*
X112912293Y-65952357D01*
X112700504Y-65987698D01*
X112700498Y-65987699D01*
X112695365Y-65988556D01*
X112690443Y-65990245D01*
X112690434Y-65990248D01*
X112487357Y-66059964D01*
X112487344Y-66059969D01*
X112482426Y-66061658D01*
X112477847Y-66064135D01*
X112477840Y-66064139D01*
X112289005Y-66166331D01*
X112288997Y-66166336D01*
X112284424Y-66168811D01*
X112280313Y-66172010D01*
X112280311Y-66172012D01*
X112110878Y-66303888D01*
X112110872Y-66303893D01*
X112106760Y-66307094D01*
X112103237Y-66310919D01*
X112103227Y-66310930D01*
X111957806Y-66468899D01*
X111957802Y-66468902D01*
X111954278Y-66472732D01*
X111951430Y-66477090D01*
X111951427Y-66477095D01*
X111865483Y-66608643D01*
X111819969Y-66650542D01*
X111760000Y-66665728D01*
X111700031Y-66650542D01*
X111654517Y-66608643D01*
X111608441Y-66538119D01*
X111565722Y-66472732D01*
X111464203Y-66362454D01*
X111416772Y-66310930D01*
X111416767Y-66310925D01*
X111413240Y-66307094D01*
X111235576Y-66168811D01*
X111230997Y-66166333D01*
X111230994Y-66166331D01*
X111042159Y-66064139D01*
X111042156Y-66064137D01*
X111037574Y-66061658D01*
X111032650Y-66059967D01*
X111032642Y-66059964D01*
X110829565Y-65990248D01*
X110829559Y-65990246D01*
X110824635Y-65988556D01*
X110819498Y-65987698D01*
X110819495Y-65987698D01*
X110607706Y-65952357D01*
X110607703Y-65952356D01*
X110602569Y-65951500D01*
X110377431Y-65951500D01*
X110372297Y-65952356D01*
X110372293Y-65952357D01*
X110160504Y-65987698D01*
X110160498Y-65987699D01*
X110155365Y-65988556D01*
X110150443Y-65990245D01*
X110150434Y-65990248D01*
X109947357Y-66059964D01*
X109947344Y-66059969D01*
X109942426Y-66061658D01*
X109937847Y-66064135D01*
X109937840Y-66064139D01*
X109749005Y-66166331D01*
X109748997Y-66166336D01*
X109744424Y-66168811D01*
X109740313Y-66172010D01*
X109740311Y-66172012D01*
X109570878Y-66303888D01*
X109570872Y-66303893D01*
X109566760Y-66307094D01*
X109563237Y-66310919D01*
X109563227Y-66310930D01*
X109417806Y-66468899D01*
X109417802Y-66468902D01*
X109414278Y-66472732D01*
X109411430Y-66477090D01*
X109411427Y-66477095D01*
X109325483Y-66608643D01*
X109279969Y-66650542D01*
X109220000Y-66665728D01*
X109160031Y-66650542D01*
X109114517Y-66608643D01*
X109068441Y-66538119D01*
X109025722Y-66472732D01*
X108924203Y-66362454D01*
X108876772Y-66310930D01*
X108876767Y-66310925D01*
X108873240Y-66307094D01*
X108695576Y-66168811D01*
X108690997Y-66166333D01*
X108690994Y-66166331D01*
X108502159Y-66064139D01*
X108502156Y-66064137D01*
X108497574Y-66061658D01*
X108492650Y-66059967D01*
X108492642Y-66059964D01*
X108289565Y-65990248D01*
X108289559Y-65990246D01*
X108284635Y-65988556D01*
X108279498Y-65987698D01*
X108279495Y-65987698D01*
X108067706Y-65952357D01*
X108067703Y-65952356D01*
X108062569Y-65951500D01*
X107837431Y-65951500D01*
X107832297Y-65952356D01*
X107832293Y-65952357D01*
X107620504Y-65987698D01*
X107620498Y-65987699D01*
X107615365Y-65988556D01*
X107610443Y-65990245D01*
X107610434Y-65990248D01*
X107407357Y-66059964D01*
X107407344Y-66059969D01*
X107402426Y-66061658D01*
X107397847Y-66064135D01*
X107397840Y-66064139D01*
X107209005Y-66166331D01*
X107208997Y-66166336D01*
X107204424Y-66168811D01*
X107200313Y-66172010D01*
X107200311Y-66172012D01*
X107030878Y-66303888D01*
X107030872Y-66303893D01*
X107026760Y-66307094D01*
X107023237Y-66310919D01*
X107023227Y-66310930D01*
X106877806Y-66468899D01*
X106877802Y-66468902D01*
X106874278Y-66472732D01*
X106871430Y-66477090D01*
X106871427Y-66477095D01*
X106785483Y-66608643D01*
X106739969Y-66650542D01*
X106680000Y-66665728D01*
X106620031Y-66650542D01*
X106574517Y-66608643D01*
X106528441Y-66538119D01*
X106485722Y-66472732D01*
X106384203Y-66362454D01*
X106336772Y-66310930D01*
X106336767Y-66310925D01*
X106333240Y-66307094D01*
X106155576Y-66168811D01*
X106150997Y-66166333D01*
X106150994Y-66166331D01*
X105962159Y-66064139D01*
X105962156Y-66064137D01*
X105957574Y-66061658D01*
X105952650Y-66059967D01*
X105952642Y-66059964D01*
X105749565Y-65990248D01*
X105749559Y-65990246D01*
X105744635Y-65988556D01*
X105739498Y-65987698D01*
X105739495Y-65987698D01*
X105527706Y-65952357D01*
X105527703Y-65952356D01*
X105522569Y-65951500D01*
X105297431Y-65951500D01*
X105292297Y-65952356D01*
X105292293Y-65952357D01*
X105080504Y-65987698D01*
X105080498Y-65987699D01*
X105075365Y-65988556D01*
X105070443Y-65990245D01*
X105070434Y-65990248D01*
X104867357Y-66059964D01*
X104867344Y-66059969D01*
X104862426Y-66061658D01*
X104857847Y-66064135D01*
X104857840Y-66064139D01*
X104669005Y-66166331D01*
X104668997Y-66166336D01*
X104664424Y-66168811D01*
X104660313Y-66172010D01*
X104660311Y-66172012D01*
X104490878Y-66303888D01*
X104490872Y-66303893D01*
X104486760Y-66307094D01*
X104483237Y-66310919D01*
X104483227Y-66310930D01*
X104337806Y-66468899D01*
X104337802Y-66468902D01*
X104334278Y-66472732D01*
X104245184Y-66609101D01*
X104199670Y-66650999D01*
X104139701Y-66666185D01*
X104079732Y-66650999D01*
X104034218Y-66609101D01*
X103948177Y-66477407D01*
X103941789Y-66469200D01*
X103796432Y-66311299D01*
X103788788Y-66304262D01*
X103619411Y-66172431D01*
X103610718Y-66166752D01*
X103421957Y-66064599D01*
X103412440Y-66060424D01*
X103209442Y-65990735D01*
X103199372Y-65988185D01*
X103188338Y-65986344D01*
X103177201Y-65986920D01*
X103174800Y-65997813D01*
X103174800Y-68622187D01*
X102565200Y-68622187D01*
X102565200Y-65997813D01*
X102562798Y-65986920D01*
X102551661Y-65986344D01*
X102540627Y-65988185D01*
X102530557Y-65990735D01*
X102327559Y-66060424D01*
X102318042Y-66064599D01*
X102129281Y-66166752D01*
X102120588Y-66172431D01*
X101951211Y-66304262D01*
X101943567Y-66311299D01*
X101798210Y-66469200D01*
X101791816Y-66477415D01*
X101705780Y-66609101D01*
X101660267Y-66650999D01*
X101600297Y-66666185D01*
X101540328Y-66650998D01*
X101494816Y-66609101D01*
X101405722Y-66472732D01*
X101304203Y-66362454D01*
X101256772Y-66310930D01*
X101256767Y-66310925D01*
X101253240Y-66307094D01*
X101075576Y-66168811D01*
X101070997Y-66166333D01*
X101070994Y-66166331D01*
X100882159Y-66064139D01*
X100882156Y-66064137D01*
X100877574Y-66061658D01*
X100872650Y-66059967D01*
X100872642Y-66059964D01*
X100669565Y-65990248D01*
X100669559Y-65990246D01*
X100664635Y-65988556D01*
X100659498Y-65987698D01*
X100659495Y-65987698D01*
X100447706Y-65952357D01*
X100447703Y-65952356D01*
X100442569Y-65951500D01*
X100217431Y-65951500D01*
X100212297Y-65952356D01*
X100212293Y-65952357D01*
X100000504Y-65987698D01*
X100000498Y-65987699D01*
X99995365Y-65988556D01*
X99990443Y-65990245D01*
X99990434Y-65990248D01*
X99787357Y-66059964D01*
X99787344Y-66059969D01*
X99782426Y-66061658D01*
X99777847Y-66064135D01*
X99777840Y-66064139D01*
X99589005Y-66166331D01*
X99588997Y-66166336D01*
X99584424Y-66168811D01*
X99580313Y-66172010D01*
X99580311Y-66172012D01*
X99410878Y-66303888D01*
X99410872Y-66303893D01*
X99406760Y-66307094D01*
X99403237Y-66310919D01*
X99403227Y-66310930D01*
X99257806Y-66468899D01*
X99257802Y-66468902D01*
X99254278Y-66472732D01*
X99251430Y-66477090D01*
X99251427Y-66477095D01*
X99165483Y-66608643D01*
X99119969Y-66650542D01*
X99060000Y-66665728D01*
X99000031Y-66650542D01*
X98954517Y-66608643D01*
X98908441Y-66538119D01*
X98865722Y-66472732D01*
X98764203Y-66362454D01*
X98716772Y-66310930D01*
X98716767Y-66310925D01*
X98713240Y-66307094D01*
X98535576Y-66168811D01*
X98530997Y-66166333D01*
X98530994Y-66166331D01*
X98342159Y-66064139D01*
X98342156Y-66064137D01*
X98337574Y-66061658D01*
X98332650Y-66059967D01*
X98332642Y-66059964D01*
X98129565Y-65990248D01*
X98129559Y-65990246D01*
X98124635Y-65988556D01*
X98119498Y-65987698D01*
X98119495Y-65987698D01*
X97907706Y-65952357D01*
X97907703Y-65952356D01*
X97902569Y-65951500D01*
X97677431Y-65951500D01*
X97672297Y-65952356D01*
X97672293Y-65952357D01*
X97460504Y-65987698D01*
X97460498Y-65987699D01*
X97455365Y-65988556D01*
X97450443Y-65990245D01*
X97450434Y-65990248D01*
X97247357Y-66059964D01*
X97247344Y-66059969D01*
X97242426Y-66061658D01*
X97237847Y-66064135D01*
X97237840Y-66064139D01*
X97049005Y-66166331D01*
X97048997Y-66166336D01*
X97044424Y-66168811D01*
X97040313Y-66172010D01*
X97040311Y-66172012D01*
X96870878Y-66303888D01*
X96870872Y-66303893D01*
X96866760Y-66307094D01*
X96863237Y-66310919D01*
X96863227Y-66310930D01*
X96717806Y-66468899D01*
X96717802Y-66468902D01*
X96714278Y-66472732D01*
X96711430Y-66477090D01*
X96711427Y-66477095D01*
X96625483Y-66608643D01*
X96579969Y-66650542D01*
X96520000Y-66665728D01*
X96460031Y-66650542D01*
X96414517Y-66608643D01*
X96368441Y-66538119D01*
X96325722Y-66472732D01*
X96224203Y-66362454D01*
X96176772Y-66310930D01*
X96176767Y-66310925D01*
X96173240Y-66307094D01*
X95995576Y-66168811D01*
X95990997Y-66166333D01*
X95990994Y-66166331D01*
X95802159Y-66064139D01*
X95802156Y-66064137D01*
X95797574Y-66061658D01*
X95792650Y-66059967D01*
X95792642Y-66059964D01*
X95589565Y-65990248D01*
X95589559Y-65990246D01*
X95584635Y-65988556D01*
X95579498Y-65987698D01*
X95579495Y-65987698D01*
X95367706Y-65952357D01*
X95367703Y-65952356D01*
X95362569Y-65951500D01*
X95137431Y-65951500D01*
X95132297Y-65952356D01*
X95132293Y-65952357D01*
X94920504Y-65987698D01*
X94920498Y-65987699D01*
X94915365Y-65988556D01*
X94910443Y-65990245D01*
X94910434Y-65990248D01*
X94707357Y-66059964D01*
X94707344Y-66059969D01*
X94702426Y-66061658D01*
X94697847Y-66064135D01*
X94697840Y-66064139D01*
X94509005Y-66166331D01*
X94508997Y-66166336D01*
X94504424Y-66168811D01*
X94500313Y-66172010D01*
X94500311Y-66172012D01*
X94330878Y-66303888D01*
X94330872Y-66303893D01*
X94326760Y-66307094D01*
X94323237Y-66310919D01*
X94323227Y-66310930D01*
X94177806Y-66468899D01*
X94177802Y-66468902D01*
X94174278Y-66472732D01*
X94171430Y-66477090D01*
X94171427Y-66477095D01*
X94085483Y-66608643D01*
X94039969Y-66650542D01*
X93980000Y-66665728D01*
X93920031Y-66650542D01*
X93874517Y-66608643D01*
X93828441Y-66538119D01*
X93785722Y-66472732D01*
X93684203Y-66362454D01*
X93636772Y-66310930D01*
X93636767Y-66310925D01*
X93633240Y-66307094D01*
X93455576Y-66168811D01*
X93450997Y-66166333D01*
X93450994Y-66166331D01*
X93262159Y-66064139D01*
X93262156Y-66064137D01*
X93257574Y-66061658D01*
X93252650Y-66059967D01*
X93252642Y-66059964D01*
X93049565Y-65990248D01*
X93049559Y-65990246D01*
X93044635Y-65988556D01*
X93039498Y-65987698D01*
X93039495Y-65987698D01*
X92827706Y-65952357D01*
X92827703Y-65952356D01*
X92822569Y-65951500D01*
X92597431Y-65951500D01*
X92592297Y-65952356D01*
X92592293Y-65952357D01*
X92380504Y-65987698D01*
X92380498Y-65987699D01*
X92375365Y-65988556D01*
X92370443Y-65990245D01*
X92370434Y-65990248D01*
X92167357Y-66059964D01*
X92167344Y-66059969D01*
X92162426Y-66061658D01*
X92157847Y-66064135D01*
X92157840Y-66064139D01*
X91969005Y-66166331D01*
X91968997Y-66166336D01*
X91964424Y-66168811D01*
X91960313Y-66172010D01*
X91960311Y-66172012D01*
X91790878Y-66303888D01*
X91790872Y-66303893D01*
X91786760Y-66307094D01*
X91783237Y-66310919D01*
X91783227Y-66310930D01*
X91637806Y-66468899D01*
X91637802Y-66468902D01*
X91634278Y-66472732D01*
X91545184Y-66609101D01*
X91499670Y-66650999D01*
X91439701Y-66666185D01*
X91379732Y-66650999D01*
X91334218Y-66609101D01*
X91248177Y-66477407D01*
X91241789Y-66469200D01*
X91096432Y-66311299D01*
X91088788Y-66304262D01*
X90919411Y-66172431D01*
X90910718Y-66166752D01*
X90721957Y-66064599D01*
X90712440Y-66060424D01*
X90509442Y-65990735D01*
X90499372Y-65988185D01*
X90488338Y-65986344D01*
X90477201Y-65986920D01*
X90474800Y-65997813D01*
X90474800Y-68622187D01*
X89865200Y-68622187D01*
X89865200Y-65997813D01*
X89862798Y-65986920D01*
X89851661Y-65986344D01*
X89840627Y-65988185D01*
X89830557Y-65990735D01*
X89627559Y-66060424D01*
X89618042Y-66064599D01*
X89429281Y-66166752D01*
X89420588Y-66172431D01*
X89251211Y-66304262D01*
X89243567Y-66311299D01*
X89098210Y-66469200D01*
X89091816Y-66477415D01*
X89005780Y-66609101D01*
X88960267Y-66650999D01*
X88900297Y-66666185D01*
X88840328Y-66650998D01*
X88794816Y-66609101D01*
X88705722Y-66472732D01*
X88604203Y-66362454D01*
X88556772Y-66310930D01*
X88556767Y-66310925D01*
X88553240Y-66307094D01*
X88375576Y-66168811D01*
X88370997Y-66166333D01*
X88370994Y-66166331D01*
X88182159Y-66064139D01*
X88182156Y-66064137D01*
X88177574Y-66061658D01*
X88172650Y-66059967D01*
X88172642Y-66059964D01*
X87969565Y-65990248D01*
X87969559Y-65990246D01*
X87964635Y-65988556D01*
X87959498Y-65987698D01*
X87959495Y-65987698D01*
X87747706Y-65952357D01*
X87747703Y-65952356D01*
X87742569Y-65951500D01*
X87517431Y-65951500D01*
X87512297Y-65952356D01*
X87512293Y-65952357D01*
X87300504Y-65987698D01*
X87300498Y-65987699D01*
X87295365Y-65988556D01*
X87290443Y-65990245D01*
X87290434Y-65990248D01*
X87087357Y-66059964D01*
X87087344Y-66059969D01*
X87082426Y-66061658D01*
X87077847Y-66064135D01*
X87077840Y-66064139D01*
X86889005Y-66166331D01*
X86888997Y-66166336D01*
X86884424Y-66168811D01*
X86880313Y-66172010D01*
X86880311Y-66172012D01*
X86710878Y-66303888D01*
X86710872Y-66303893D01*
X86706760Y-66307094D01*
X86703237Y-66310919D01*
X86703227Y-66310930D01*
X86557806Y-66468899D01*
X86557802Y-66468902D01*
X86554278Y-66472732D01*
X86551430Y-66477090D01*
X86551427Y-66477095D01*
X86465483Y-66608643D01*
X86419969Y-66650542D01*
X86360000Y-66665728D01*
X86300031Y-66650542D01*
X86254517Y-66608643D01*
X86208441Y-66538119D01*
X86165722Y-66472732D01*
X86064203Y-66362454D01*
X86016772Y-66310930D01*
X86016767Y-66310925D01*
X86013240Y-66307094D01*
X85835576Y-66168811D01*
X85830997Y-66166333D01*
X85830994Y-66166331D01*
X85642159Y-66064139D01*
X85642156Y-66064137D01*
X85637574Y-66061658D01*
X85632650Y-66059967D01*
X85632642Y-66059964D01*
X85429565Y-65990248D01*
X85429559Y-65990246D01*
X85424635Y-65988556D01*
X85419498Y-65987698D01*
X85419495Y-65987698D01*
X85207706Y-65952357D01*
X85207703Y-65952356D01*
X85202569Y-65951500D01*
X84977431Y-65951500D01*
X84972297Y-65952356D01*
X84972293Y-65952357D01*
X84760504Y-65987698D01*
X84760498Y-65987699D01*
X84755365Y-65988556D01*
X84750443Y-65990245D01*
X84750434Y-65990248D01*
X84547357Y-66059964D01*
X84547344Y-66059969D01*
X84542426Y-66061658D01*
X84537847Y-66064135D01*
X84537840Y-66064139D01*
X84349005Y-66166331D01*
X84348997Y-66166336D01*
X84344424Y-66168811D01*
X84340313Y-66172010D01*
X84340311Y-66172012D01*
X84170878Y-66303888D01*
X84170872Y-66303893D01*
X84166760Y-66307094D01*
X84163237Y-66310919D01*
X84163227Y-66310930D01*
X84017806Y-66468899D01*
X84017802Y-66468902D01*
X84014278Y-66472732D01*
X84011430Y-66477090D01*
X84011427Y-66477095D01*
X83925483Y-66608643D01*
X83879969Y-66650542D01*
X83820000Y-66665728D01*
X83760031Y-66650542D01*
X83714517Y-66608643D01*
X83668441Y-66538119D01*
X83625722Y-66472732D01*
X83524203Y-66362454D01*
X83476772Y-66310930D01*
X83476767Y-66310925D01*
X83473240Y-66307094D01*
X83295576Y-66168811D01*
X83290997Y-66166333D01*
X83290994Y-66166331D01*
X83102159Y-66064139D01*
X83102156Y-66064137D01*
X83097574Y-66061658D01*
X83092650Y-66059967D01*
X83092642Y-66059964D01*
X82889565Y-65990248D01*
X82889559Y-65990246D01*
X82884635Y-65988556D01*
X82879498Y-65987698D01*
X82879495Y-65987698D01*
X82667706Y-65952357D01*
X82667703Y-65952356D01*
X82662569Y-65951500D01*
X82437431Y-65951500D01*
X82432297Y-65952356D01*
X82432293Y-65952357D01*
X82220504Y-65987698D01*
X82220498Y-65987699D01*
X82215365Y-65988556D01*
X82210443Y-65990245D01*
X82210434Y-65990248D01*
X82007357Y-66059964D01*
X82007344Y-66059969D01*
X82002426Y-66061658D01*
X81997847Y-66064135D01*
X81997840Y-66064139D01*
X81809005Y-66166331D01*
X81808997Y-66166336D01*
X81804424Y-66168811D01*
X81800313Y-66172010D01*
X81800311Y-66172012D01*
X81630878Y-66303888D01*
X81630872Y-66303893D01*
X81626760Y-66307094D01*
X81623237Y-66310919D01*
X81623227Y-66310930D01*
X81477806Y-66468899D01*
X81477802Y-66468902D01*
X81474278Y-66472732D01*
X81471430Y-66477090D01*
X81471427Y-66477095D01*
X81385483Y-66608643D01*
X81339969Y-66650542D01*
X81280000Y-66665728D01*
X81220031Y-66650542D01*
X81174517Y-66608643D01*
X81128441Y-66538119D01*
X81085722Y-66472732D01*
X80984203Y-66362454D01*
X80936772Y-66310930D01*
X80936767Y-66310925D01*
X80933240Y-66307094D01*
X80755576Y-66168811D01*
X80750997Y-66166333D01*
X80750994Y-66166331D01*
X80562159Y-66064139D01*
X80562156Y-66064137D01*
X80557574Y-66061658D01*
X80552650Y-66059967D01*
X80552642Y-66059964D01*
X80349565Y-65990248D01*
X80349559Y-65990246D01*
X80344635Y-65988556D01*
X80339498Y-65987698D01*
X80339495Y-65987698D01*
X80127706Y-65952357D01*
X80127703Y-65952356D01*
X80122569Y-65951500D01*
X79897431Y-65951500D01*
X79892297Y-65952356D01*
X79892293Y-65952357D01*
X79680504Y-65987698D01*
X79680498Y-65987699D01*
X79675365Y-65988556D01*
X79670443Y-65990245D01*
X79670434Y-65990248D01*
X79467357Y-66059964D01*
X79467344Y-66059969D01*
X79462426Y-66061658D01*
X79457847Y-66064135D01*
X79457840Y-66064139D01*
X79269005Y-66166331D01*
X79268997Y-66166336D01*
X79264424Y-66168811D01*
X79260313Y-66172010D01*
X79260311Y-66172012D01*
X79090878Y-66303888D01*
X79090872Y-66303893D01*
X79086760Y-66307094D01*
X79083237Y-66310919D01*
X79083227Y-66310930D01*
X78937806Y-66468899D01*
X78937802Y-66468902D01*
X78934278Y-66472732D01*
X78845184Y-66609101D01*
X78799670Y-66650999D01*
X78739701Y-66666185D01*
X78679732Y-66650999D01*
X78634218Y-66609101D01*
X78548177Y-66477407D01*
X78541789Y-66469200D01*
X78396432Y-66311299D01*
X78388788Y-66304262D01*
X78219411Y-66172431D01*
X78210718Y-66166752D01*
X78021957Y-66064599D01*
X78012440Y-66060424D01*
X77809442Y-65990735D01*
X77799372Y-65988185D01*
X77788338Y-65986344D01*
X77777201Y-65986920D01*
X77774800Y-65997813D01*
X77774800Y-68622187D01*
X77165200Y-68622187D01*
X77165200Y-65997813D01*
X77162798Y-65986920D01*
X77151661Y-65986344D01*
X77140627Y-65988185D01*
X77130557Y-65990735D01*
X76927559Y-66060424D01*
X76918042Y-66064599D01*
X76729281Y-66166752D01*
X76720588Y-66172431D01*
X76551211Y-66304262D01*
X76543567Y-66311299D01*
X76398210Y-66469200D01*
X76391816Y-66477415D01*
X76305780Y-66609101D01*
X76260267Y-66650999D01*
X76200297Y-66666185D01*
X76140328Y-66650998D01*
X76094816Y-66609101D01*
X76005722Y-66472732D01*
X75904203Y-66362454D01*
X75856772Y-66310930D01*
X75856767Y-66310925D01*
X75853240Y-66307094D01*
X75675576Y-66168811D01*
X75670997Y-66166333D01*
X75670994Y-66166331D01*
X75482159Y-66064139D01*
X75482156Y-66064137D01*
X75477574Y-66061658D01*
X75472650Y-66059967D01*
X75472642Y-66059964D01*
X75269565Y-65990248D01*
X75269559Y-65990246D01*
X75264635Y-65988556D01*
X75259498Y-65987698D01*
X75259495Y-65987698D01*
X75047706Y-65952357D01*
X75047703Y-65952356D01*
X75042569Y-65951500D01*
X74817431Y-65951500D01*
X74812297Y-65952356D01*
X74812293Y-65952357D01*
X74600504Y-65987698D01*
X74600498Y-65987699D01*
X74595365Y-65988556D01*
X74590443Y-65990245D01*
X74590434Y-65990248D01*
X74387357Y-66059964D01*
X74387344Y-66059969D01*
X74382426Y-66061658D01*
X74377847Y-66064135D01*
X74377840Y-66064139D01*
X74189005Y-66166331D01*
X74188997Y-66166336D01*
X74184424Y-66168811D01*
X74180313Y-66172010D01*
X74180311Y-66172012D01*
X74010878Y-66303888D01*
X74010872Y-66303893D01*
X74006760Y-66307094D01*
X74003237Y-66310919D01*
X74003227Y-66310930D01*
X73857806Y-66468899D01*
X73857802Y-66468902D01*
X73854278Y-66472732D01*
X73851430Y-66477090D01*
X73851427Y-66477095D01*
X73765483Y-66608643D01*
X73719969Y-66650542D01*
X73660000Y-66665728D01*
X73600031Y-66650542D01*
X73554517Y-66608643D01*
X73508441Y-66538119D01*
X73465722Y-66472732D01*
X73364203Y-66362454D01*
X73316772Y-66310930D01*
X73316767Y-66310925D01*
X73313240Y-66307094D01*
X73135576Y-66168811D01*
X73130997Y-66166333D01*
X73130994Y-66166331D01*
X72942159Y-66064139D01*
X72942156Y-66064137D01*
X72937574Y-66061658D01*
X72932650Y-66059967D01*
X72932642Y-66059964D01*
X72729565Y-65990248D01*
X72729559Y-65990246D01*
X72724635Y-65988556D01*
X72719498Y-65987698D01*
X72719495Y-65987698D01*
X72507706Y-65952357D01*
X72507703Y-65952356D01*
X72502569Y-65951500D01*
X72277431Y-65951500D01*
X72272297Y-65952356D01*
X72272293Y-65952357D01*
X72060504Y-65987698D01*
X72060498Y-65987699D01*
X72055365Y-65988556D01*
X72050443Y-65990245D01*
X72050434Y-65990248D01*
X71847357Y-66059964D01*
X71847344Y-66059969D01*
X71842426Y-66061658D01*
X71837847Y-66064135D01*
X71837840Y-66064139D01*
X71649005Y-66166331D01*
X71648997Y-66166336D01*
X71644424Y-66168811D01*
X71640313Y-66172010D01*
X71640311Y-66172012D01*
X71470878Y-66303888D01*
X71470872Y-66303893D01*
X71466760Y-66307094D01*
X71463237Y-66310919D01*
X71463227Y-66310930D01*
X71317806Y-66468899D01*
X71317802Y-66468902D01*
X71314278Y-66472732D01*
X71311430Y-66477090D01*
X71311427Y-66477095D01*
X71193992Y-66656843D01*
X71191140Y-66661209D01*
X71189048Y-66665978D01*
X71189046Y-66665982D01*
X71107888Y-66851006D01*
X71064866Y-66903540D01*
X71000828Y-66926118D01*
X70934371Y-66912183D01*
X70884796Y-66865783D01*
X70866500Y-66800393D01*
X70866500Y-65568638D01*
X128281500Y-65568638D01*
X128281859Y-65571985D01*
X128281860Y-65571988D01*
X128287168Y-65621367D01*
X128287169Y-65621373D01*
X128288011Y-65629201D01*
X128290762Y-65636578D01*
X128290763Y-65636580D01*
X128335962Y-65757763D01*
X128335964Y-65757766D01*
X128339111Y-65766204D01*
X128344508Y-65773414D01*
X128344510Y-65773417D01*
X128409999Y-65860899D01*
X128426739Y-65883261D01*
X128433950Y-65888659D01*
X128527303Y-65958543D01*
X128543796Y-65970889D01*
X128680799Y-66021989D01*
X128741362Y-66028500D01*
X130335269Y-66028500D01*
X130338638Y-66028500D01*
X130399201Y-66021989D01*
X130536204Y-65970889D01*
X130653261Y-65883261D01*
X130740889Y-65766204D01*
X130791989Y-65629201D01*
X130798500Y-65568638D01*
X130798500Y-65533577D01*
X130814298Y-65472491D01*
X130857730Y-65426723D01*
X130917905Y-65407750D01*
X130979734Y-65420329D01*
X131027713Y-65461306D01*
X131112251Y-65582038D01*
X131267962Y-65737749D01*
X131448346Y-65864056D01*
X131647924Y-65957120D01*
X131860629Y-66014115D01*
X132080000Y-66033307D01*
X132299371Y-66014115D01*
X132512076Y-65957120D01*
X132711654Y-65864056D01*
X132892038Y-65737749D01*
X133047749Y-65582038D01*
X133174056Y-65401654D01*
X133235804Y-65269232D01*
X133282300Y-65216214D01*
X133350000Y-65196481D01*
X133417700Y-65216214D01*
X133464195Y-65269232D01*
X133525944Y-65401654D01*
X133529097Y-65406157D01*
X133529100Y-65406162D01*
X133567713Y-65461306D01*
X133652251Y-65582038D01*
X133807962Y-65737749D01*
X133988346Y-65864056D01*
X134187924Y-65957120D01*
X134400629Y-66014115D01*
X134620000Y-66033307D01*
X134839371Y-66014115D01*
X135052076Y-65957120D01*
X135251654Y-65864056D01*
X135432038Y-65737749D01*
X135587749Y-65582038D01*
X135714056Y-65401654D01*
X135775804Y-65269232D01*
X135822300Y-65216214D01*
X135890000Y-65196481D01*
X135957700Y-65216214D01*
X136004195Y-65269232D01*
X136065944Y-65401654D01*
X136069097Y-65406157D01*
X136069100Y-65406162D01*
X136107713Y-65461306D01*
X136192251Y-65582038D01*
X136347962Y-65737749D01*
X136528346Y-65864056D01*
X136727924Y-65957120D01*
X136940629Y-66014115D01*
X137160000Y-66033307D01*
X137379371Y-66014115D01*
X137592076Y-65957120D01*
X137791654Y-65864056D01*
X137972038Y-65737749D01*
X138127749Y-65582038D01*
X138137132Y-65568638D01*
X146061500Y-65568638D01*
X146061859Y-65571985D01*
X146061860Y-65571988D01*
X146067168Y-65621367D01*
X146067169Y-65621373D01*
X146068011Y-65629201D01*
X146070762Y-65636578D01*
X146070763Y-65636580D01*
X146115962Y-65757763D01*
X146115964Y-65757766D01*
X146119111Y-65766204D01*
X146124508Y-65773414D01*
X146124510Y-65773417D01*
X146189999Y-65860899D01*
X146206739Y-65883261D01*
X146213950Y-65888659D01*
X146307303Y-65958543D01*
X146323796Y-65970889D01*
X146460799Y-66021989D01*
X146521362Y-66028500D01*
X148115269Y-66028500D01*
X148118638Y-66028500D01*
X148179201Y-66021989D01*
X148316204Y-65970889D01*
X148433261Y-65883261D01*
X148520889Y-65766204D01*
X148571989Y-65629201D01*
X148578500Y-65568638D01*
X148578500Y-65533577D01*
X148594298Y-65472491D01*
X148637730Y-65426723D01*
X148697905Y-65407750D01*
X148759734Y-65420329D01*
X148807713Y-65461306D01*
X148892251Y-65582038D01*
X149047962Y-65737749D01*
X149228346Y-65864056D01*
X149427924Y-65957120D01*
X149640629Y-66014115D01*
X149860000Y-66033307D01*
X150079371Y-66014115D01*
X150292076Y-65957120D01*
X150491654Y-65864056D01*
X150672038Y-65737749D01*
X150827749Y-65582038D01*
X150954056Y-65401654D01*
X151015804Y-65269232D01*
X151062300Y-65216214D01*
X151130000Y-65196481D01*
X151197700Y-65216214D01*
X151244195Y-65269232D01*
X151305944Y-65401654D01*
X151309097Y-65406157D01*
X151309100Y-65406162D01*
X151347713Y-65461306D01*
X151432251Y-65582038D01*
X151587962Y-65737749D01*
X151768346Y-65864056D01*
X151967924Y-65957120D01*
X152180629Y-66014115D01*
X152400000Y-66033307D01*
X152619371Y-66014115D01*
X152832076Y-65957120D01*
X153031654Y-65864056D01*
X153212038Y-65737749D01*
X153367749Y-65582038D01*
X153494056Y-65401654D01*
X153555804Y-65269232D01*
X153602300Y-65216214D01*
X153670000Y-65196481D01*
X153737700Y-65216214D01*
X153784195Y-65269232D01*
X153845944Y-65401654D01*
X153849097Y-65406157D01*
X153849100Y-65406162D01*
X153887713Y-65461306D01*
X153972251Y-65582038D01*
X154127962Y-65737749D01*
X154308346Y-65864056D01*
X154507924Y-65957120D01*
X154720629Y-66014115D01*
X154940000Y-66033307D01*
X155159371Y-66014115D01*
X155372076Y-65957120D01*
X155571654Y-65864056D01*
X155752038Y-65737749D01*
X155907749Y-65582038D01*
X156034056Y-65401654D01*
X156127120Y-65202076D01*
X156184115Y-64989371D01*
X156203307Y-64770000D01*
X156184115Y-64550629D01*
X156127120Y-64337924D01*
X156034056Y-64138347D01*
X156016502Y-64113278D01*
X155941682Y-64006424D01*
X155907749Y-63957962D01*
X155752038Y-63802251D01*
X155680591Y-63752223D01*
X155576162Y-63679100D01*
X155576157Y-63679097D01*
X155571654Y-63675944D01*
X155545933Y-63663950D01*
X155377061Y-63585204D01*
X155377055Y-63585202D01*
X155372076Y-63582880D01*
X155366770Y-63581458D01*
X155366764Y-63581456D01*
X155164680Y-63527307D01*
X155164673Y-63527305D01*
X155159371Y-63525885D01*
X155153903Y-63525406D01*
X155153894Y-63525405D01*
X154945475Y-63507172D01*
X154940000Y-63506693D01*
X154934525Y-63507172D01*
X154726105Y-63525405D01*
X154726094Y-63525406D01*
X154720629Y-63525885D01*
X154715328Y-63527305D01*
X154715319Y-63527307D01*
X154513235Y-63581456D01*
X154513225Y-63581459D01*
X154507924Y-63582880D01*
X154502947Y-63585200D01*
X154502938Y-63585204D01*
X154313334Y-63673618D01*
X154313329Y-63673620D01*
X154308347Y-63675944D01*
X154303848Y-63679094D01*
X154303838Y-63679100D01*
X154132473Y-63799092D01*
X154132470Y-63799094D01*
X154127962Y-63802251D01*
X154124070Y-63806142D01*
X154124064Y-63806148D01*
X153976148Y-63954064D01*
X153976142Y-63954070D01*
X153972251Y-63957962D01*
X153969094Y-63962470D01*
X153969092Y-63962473D01*
X153849100Y-64133838D01*
X153849094Y-64133848D01*
X153845944Y-64138347D01*
X153843620Y-64143329D01*
X153843618Y-64143334D01*
X153784195Y-64270768D01*
X153737700Y-64323785D01*
X153670000Y-64343518D01*
X153602300Y-64323785D01*
X153555805Y-64270768D01*
X153496381Y-64143334D01*
X153494056Y-64138347D01*
X153476502Y-64113278D01*
X153401682Y-64006424D01*
X153367749Y-63957962D01*
X153212038Y-63802251D01*
X153140591Y-63752223D01*
X153036162Y-63679100D01*
X153036157Y-63679097D01*
X153031654Y-63675944D01*
X153005933Y-63663950D01*
X152837061Y-63585204D01*
X152837055Y-63585202D01*
X152832076Y-63582880D01*
X152826770Y-63581458D01*
X152826764Y-63581456D01*
X152624680Y-63527307D01*
X152624673Y-63527305D01*
X152619371Y-63525885D01*
X152613903Y-63525406D01*
X152613894Y-63525405D01*
X152405475Y-63507172D01*
X152400000Y-63506693D01*
X152394525Y-63507172D01*
X152186105Y-63525405D01*
X152186094Y-63525406D01*
X152180629Y-63525885D01*
X152175328Y-63527305D01*
X152175319Y-63527307D01*
X151973235Y-63581456D01*
X151973225Y-63581459D01*
X151967924Y-63582880D01*
X151962947Y-63585200D01*
X151962938Y-63585204D01*
X151773334Y-63673618D01*
X151773329Y-63673620D01*
X151768347Y-63675944D01*
X151763848Y-63679094D01*
X151763838Y-63679100D01*
X151592473Y-63799092D01*
X151592470Y-63799094D01*
X151587962Y-63802251D01*
X151584070Y-63806142D01*
X151584064Y-63806148D01*
X151436148Y-63954064D01*
X151436142Y-63954070D01*
X151432251Y-63957962D01*
X151429094Y-63962470D01*
X151429092Y-63962473D01*
X151309100Y-64133838D01*
X151309094Y-64133848D01*
X151305944Y-64138347D01*
X151303620Y-64143329D01*
X151303618Y-64143334D01*
X151244195Y-64270768D01*
X151197700Y-64323785D01*
X151130000Y-64343518D01*
X151062300Y-64323785D01*
X151015805Y-64270768D01*
X150956381Y-64143334D01*
X150954056Y-64138347D01*
X150936502Y-64113278D01*
X150861682Y-64006424D01*
X150827749Y-63957962D01*
X150672038Y-63802251D01*
X150600591Y-63752223D01*
X150496162Y-63679100D01*
X150496157Y-63679097D01*
X150491654Y-63675944D01*
X150465933Y-63663950D01*
X150297061Y-63585204D01*
X150297055Y-63585202D01*
X150292076Y-63582880D01*
X150286770Y-63581458D01*
X150286764Y-63581456D01*
X150084680Y-63527307D01*
X150084673Y-63527305D01*
X150079371Y-63525885D01*
X150073903Y-63525406D01*
X150073894Y-63525405D01*
X149865475Y-63507172D01*
X149860000Y-63506693D01*
X149854525Y-63507172D01*
X149646105Y-63525405D01*
X149646094Y-63525406D01*
X149640629Y-63525885D01*
X149635328Y-63527305D01*
X149635319Y-63527307D01*
X149433235Y-63581456D01*
X149433225Y-63581459D01*
X149427924Y-63582880D01*
X149422947Y-63585200D01*
X149422938Y-63585204D01*
X149233334Y-63673618D01*
X149233329Y-63673620D01*
X149228347Y-63675944D01*
X149223848Y-63679094D01*
X149223838Y-63679100D01*
X149052473Y-63799092D01*
X149052470Y-63799094D01*
X149047962Y-63802251D01*
X149044070Y-63806142D01*
X149044064Y-63806148D01*
X148896148Y-63954064D01*
X148896142Y-63954070D01*
X148892251Y-63957962D01*
X148889094Y-63962470D01*
X148889092Y-63962473D01*
X148807713Y-64078695D01*
X148759735Y-64119672D01*
X148697906Y-64132251D01*
X148637730Y-64113278D01*
X148594298Y-64067510D01*
X148578500Y-64006424D01*
X148578500Y-63974731D01*
X148578500Y-63971362D01*
X148571989Y-63910799D01*
X148520889Y-63773796D01*
X148433261Y-63656739D01*
X148337702Y-63585204D01*
X148323417Y-63574510D01*
X148323414Y-63574508D01*
X148316204Y-63569111D01*
X148307766Y-63565964D01*
X148307763Y-63565962D01*
X148186580Y-63520763D01*
X148186578Y-63520762D01*
X148179201Y-63518011D01*
X148171373Y-63517169D01*
X148171367Y-63517168D01*
X148121988Y-63511860D01*
X148121985Y-63511859D01*
X148118638Y-63511500D01*
X146521362Y-63511500D01*
X146518015Y-63511859D01*
X146518011Y-63511860D01*
X146468632Y-63517168D01*
X146468625Y-63517169D01*
X146460799Y-63518011D01*
X146453423Y-63520761D01*
X146453419Y-63520763D01*
X146332236Y-63565962D01*
X146332230Y-63565965D01*
X146323796Y-63569111D01*
X146316588Y-63574506D01*
X146316582Y-63574510D01*
X146213950Y-63651340D01*
X146213946Y-63651343D01*
X146206739Y-63656739D01*
X146201343Y-63663946D01*
X146201340Y-63663950D01*
X146124510Y-63766582D01*
X146124506Y-63766588D01*
X146119111Y-63773796D01*
X146115965Y-63782230D01*
X146115962Y-63782236D01*
X146070763Y-63903419D01*
X146070761Y-63903423D01*
X146068011Y-63910799D01*
X146067169Y-63918625D01*
X146067168Y-63918632D01*
X146061860Y-63968011D01*
X146061500Y-63971362D01*
X146061500Y-65568638D01*
X138137132Y-65568638D01*
X138254056Y-65401654D01*
X138347120Y-65202076D01*
X138404115Y-64989371D01*
X138423307Y-64770000D01*
X138404115Y-64550629D01*
X138347120Y-64337924D01*
X138254056Y-64138347D01*
X138236502Y-64113278D01*
X138161682Y-64006424D01*
X138127749Y-63957962D01*
X137972038Y-63802251D01*
X137900591Y-63752223D01*
X137796162Y-63679100D01*
X137796157Y-63679097D01*
X137791654Y-63675944D01*
X137765933Y-63663950D01*
X137597061Y-63585204D01*
X137597055Y-63585202D01*
X137592076Y-63582880D01*
X137586770Y-63581458D01*
X137586764Y-63581456D01*
X137384680Y-63527307D01*
X137384673Y-63527305D01*
X137379371Y-63525885D01*
X137373903Y-63525406D01*
X137373894Y-63525405D01*
X137165475Y-63507172D01*
X137160000Y-63506693D01*
X137154525Y-63507172D01*
X136946105Y-63525405D01*
X136946094Y-63525406D01*
X136940629Y-63525885D01*
X136935328Y-63527305D01*
X136935319Y-63527307D01*
X136733235Y-63581456D01*
X136733225Y-63581459D01*
X136727924Y-63582880D01*
X136722947Y-63585200D01*
X136722938Y-63585204D01*
X136533334Y-63673618D01*
X136533329Y-63673620D01*
X136528347Y-63675944D01*
X136523848Y-63679094D01*
X136523838Y-63679100D01*
X136352473Y-63799092D01*
X136352470Y-63799094D01*
X136347962Y-63802251D01*
X136344070Y-63806142D01*
X136344064Y-63806148D01*
X136196148Y-63954064D01*
X136196142Y-63954070D01*
X136192251Y-63957962D01*
X136189094Y-63962470D01*
X136189092Y-63962473D01*
X136069100Y-64133838D01*
X136069094Y-64133848D01*
X136065944Y-64138347D01*
X136063620Y-64143329D01*
X136063618Y-64143334D01*
X136004195Y-64270768D01*
X135957700Y-64323785D01*
X135890000Y-64343518D01*
X135822300Y-64323785D01*
X135775805Y-64270768D01*
X135716381Y-64143334D01*
X135714056Y-64138347D01*
X135696502Y-64113278D01*
X135621682Y-64006424D01*
X135587749Y-63957962D01*
X135432038Y-63802251D01*
X135360591Y-63752223D01*
X135256162Y-63679100D01*
X135256157Y-63679097D01*
X135251654Y-63675944D01*
X135225933Y-63663950D01*
X135057061Y-63585204D01*
X135057055Y-63585202D01*
X135052076Y-63582880D01*
X135046770Y-63581458D01*
X135046764Y-63581456D01*
X134844680Y-63527307D01*
X134844673Y-63527305D01*
X134839371Y-63525885D01*
X134833903Y-63525406D01*
X134833894Y-63525405D01*
X134625475Y-63507172D01*
X134620000Y-63506693D01*
X134614525Y-63507172D01*
X134406105Y-63525405D01*
X134406094Y-63525406D01*
X134400629Y-63525885D01*
X134395328Y-63527305D01*
X134395319Y-63527307D01*
X134193235Y-63581456D01*
X134193225Y-63581459D01*
X134187924Y-63582880D01*
X134182947Y-63585200D01*
X134182938Y-63585204D01*
X133993334Y-63673618D01*
X133993329Y-63673620D01*
X133988347Y-63675944D01*
X133983848Y-63679094D01*
X133983838Y-63679100D01*
X133812473Y-63799092D01*
X133812470Y-63799094D01*
X133807962Y-63802251D01*
X133804070Y-63806142D01*
X133804064Y-63806148D01*
X133656148Y-63954064D01*
X133656142Y-63954070D01*
X133652251Y-63957962D01*
X133649094Y-63962470D01*
X133649092Y-63962473D01*
X133529100Y-64133838D01*
X133529094Y-64133848D01*
X133525944Y-64138347D01*
X133523620Y-64143329D01*
X133523618Y-64143334D01*
X133464195Y-64270768D01*
X133417700Y-64323785D01*
X133350000Y-64343518D01*
X133282300Y-64323785D01*
X133235805Y-64270768D01*
X133176381Y-64143334D01*
X133174056Y-64138347D01*
X133156502Y-64113278D01*
X133081682Y-64006424D01*
X133047749Y-63957962D01*
X132892038Y-63802251D01*
X132820591Y-63752223D01*
X132716162Y-63679100D01*
X132716157Y-63679097D01*
X132711654Y-63675944D01*
X132685933Y-63663950D01*
X132517061Y-63585204D01*
X132517055Y-63585202D01*
X132512076Y-63582880D01*
X132506770Y-63581458D01*
X132506764Y-63581456D01*
X132304680Y-63527307D01*
X132304673Y-63527305D01*
X132299371Y-63525885D01*
X132293903Y-63525406D01*
X132293894Y-63525405D01*
X132085475Y-63507172D01*
X132080000Y-63506693D01*
X132074525Y-63507172D01*
X131866105Y-63525405D01*
X131866094Y-63525406D01*
X131860629Y-63525885D01*
X131855328Y-63527305D01*
X131855319Y-63527307D01*
X131653235Y-63581456D01*
X131653225Y-63581459D01*
X131647924Y-63582880D01*
X131642947Y-63585200D01*
X131642938Y-63585204D01*
X131453334Y-63673618D01*
X131453329Y-63673620D01*
X131448347Y-63675944D01*
X131443848Y-63679094D01*
X131443838Y-63679100D01*
X131272473Y-63799092D01*
X131272470Y-63799094D01*
X131267962Y-63802251D01*
X131264070Y-63806142D01*
X131264064Y-63806148D01*
X131116148Y-63954064D01*
X131116142Y-63954070D01*
X131112251Y-63957962D01*
X131109094Y-63962470D01*
X131109092Y-63962473D01*
X131027713Y-64078695D01*
X130979735Y-64119672D01*
X130917906Y-64132251D01*
X130857730Y-64113278D01*
X130814298Y-64067510D01*
X130798500Y-64006424D01*
X130798500Y-63974731D01*
X130798500Y-63971362D01*
X130791989Y-63910799D01*
X130740889Y-63773796D01*
X130653261Y-63656739D01*
X130557702Y-63585204D01*
X130543417Y-63574510D01*
X130543414Y-63574508D01*
X130536204Y-63569111D01*
X130527766Y-63565964D01*
X130527763Y-63565962D01*
X130406580Y-63520763D01*
X130406578Y-63520762D01*
X130399201Y-63518011D01*
X130391373Y-63517169D01*
X130391367Y-63517168D01*
X130341988Y-63511860D01*
X130341985Y-63511859D01*
X130338638Y-63511500D01*
X128741362Y-63511500D01*
X128738015Y-63511859D01*
X128738011Y-63511860D01*
X128688632Y-63517168D01*
X128688625Y-63517169D01*
X128680799Y-63518011D01*
X128673423Y-63520761D01*
X128673419Y-63520763D01*
X128552236Y-63565962D01*
X128552230Y-63565965D01*
X128543796Y-63569111D01*
X128536588Y-63574506D01*
X128536582Y-63574510D01*
X128433950Y-63651340D01*
X128433946Y-63651343D01*
X128426739Y-63656739D01*
X128421343Y-63663946D01*
X128421340Y-63663950D01*
X128344510Y-63766582D01*
X128344506Y-63766588D01*
X128339111Y-63773796D01*
X128335965Y-63782230D01*
X128335962Y-63782236D01*
X128290763Y-63903419D01*
X128290761Y-63903423D01*
X128288011Y-63910799D01*
X128287169Y-63918625D01*
X128287168Y-63918632D01*
X128281860Y-63968011D01*
X128281500Y-63971362D01*
X128281500Y-65568638D01*
X70866500Y-65568638D01*
X70866500Y-62842588D01*
X169543786Y-62842588D01*
X169573318Y-63010070D01*
X169576222Y-63016804D01*
X169576224Y-63016808D01*
X169607844Y-63090110D01*
X169640677Y-63166226D01*
X169645058Y-63172111D01*
X169645060Y-63172114D01*
X169737854Y-63296758D01*
X169742233Y-63302640D01*
X169872511Y-63411956D01*
X170024486Y-63488281D01*
X170189967Y-63527500D01*
X170313706Y-63527500D01*
X170317376Y-63527500D01*
X170443915Y-63512710D01*
X170603724Y-63454544D01*
X170745812Y-63361092D01*
X170862518Y-63237391D01*
X170947550Y-63090110D01*
X170996325Y-62927189D01*
X171006214Y-62757412D01*
X170976682Y-62589930D01*
X170909323Y-62433774D01*
X170807767Y-62297360D01*
X170677489Y-62188044D01*
X170525514Y-62111719D01*
X170495148Y-62104522D01*
X170367171Y-62074191D01*
X170367165Y-62074190D01*
X170360033Y-62072500D01*
X170232624Y-62072500D01*
X170228981Y-62072925D01*
X170228977Y-62072926D01*
X170113377Y-62086437D01*
X170113371Y-62086438D01*
X170106085Y-62087290D01*
X170099186Y-62089800D01*
X170099186Y-62089801D01*
X169953174Y-62142945D01*
X169953171Y-62142946D01*
X169946276Y-62145456D01*
X169940147Y-62149486D01*
X169940143Y-62149489D01*
X169810322Y-62234873D01*
X169810318Y-62234875D01*
X169804188Y-62238908D01*
X169799152Y-62244245D01*
X169799147Y-62244250D01*
X169692520Y-62357268D01*
X169692516Y-62357272D01*
X169687482Y-62362609D01*
X169602450Y-62509890D01*
X169600345Y-62516919D01*
X169600344Y-62516923D01*
X169555779Y-62665780D01*
X169555777Y-62665787D01*
X169553675Y-62672811D01*
X169553248Y-62680134D01*
X169553248Y-62680137D01*
X169544212Y-62835261D01*
X169544212Y-62835267D01*
X169543786Y-62842588D01*
X70866500Y-62842588D01*
X70866500Y-60832500D01*
X70883381Y-60769500D01*
X70929500Y-60723381D01*
X70992500Y-60706500D01*
X171577500Y-60706500D01*
X171640500Y-60723381D01*
G37*
%TD.AperFunction*%
%TD*%
M02*
