%TF.GenerationSoftware,KiCad,Pcbnew,(7.0.0)*%
%TF.CreationDate,2023-03-11T15:32:13-08:00*%
%TF.ProjectId,pico_12vrgb_controller,7069636f-5f31-4327-9672-67625f636f6e,v1*%
%TF.SameCoordinates,Original*%
%TF.FileFunction,Soldermask,Top*%
%TF.FilePolarity,Negative*%
%FSLAX46Y46*%
G04 Gerber Fmt 4.6, Leading zero omitted, Abs format (unit mm)*
G04 Created by KiCad (PCBNEW (7.0.0)) date 2023-03-11 15:32:13*
%MOMM*%
%LPD*%
G01*
G04 APERTURE LIST*
G04 Aperture macros list*
%AMRoundRect*
0 Rectangle with rounded corners*
0 $1 Rounding radius*
0 $2 $3 $4 $5 $6 $7 $8 $9 X,Y pos of 4 corners*
0 Add a 4 corners polygon primitive as box body*
4,1,4,$2,$3,$4,$5,$6,$7,$8,$9,$2,$3,0*
0 Add four circle primitives for the rounded corners*
1,1,$1+$1,$2,$3*
1,1,$1+$1,$4,$5*
1,1,$1+$1,$6,$7*
1,1,$1+$1,$8,$9*
0 Add four rect primitives between the rounded corners*
20,1,$1+$1,$2,$3,$4,$5,0*
20,1,$1+$1,$4,$5,$6,$7,0*
20,1,$1+$1,$6,$7,$8,$9,0*
20,1,$1+$1,$8,$9,$2,$3,0*%
G04 Aperture macros list end*
%ADD10RoundRect,0.200800X0.587500X0.150000X-0.587500X0.150000X-0.587500X-0.150000X0.587500X-0.150000X0*%
%ADD11RoundRect,0.200800X0.150000X-0.587500X0.150000X0.587500X-0.150000X0.587500X-0.150000X-0.587500X0*%
%ADD12RoundRect,0.200800X-0.150000X0.587500X-0.150000X-0.587500X0.150000X-0.587500X0.150000X0.587500X0*%
%ADD13RoundRect,0.050800X0.750000X-0.750000X0.750000X0.750000X-0.750000X0.750000X-0.750000X-0.750000X0*%
%ADD14C,1.601600*%
%ADD15C,3.301600*%
%ADD16C,1.301600*%
%ADD17O,1.101600X1.101600*%
%ADD18O,1.901600X1.901600*%
%ADD19O,1.601600X1.601600*%
%ADD20RoundRect,0.050800X0.850000X-0.850000X0.850000X0.850000X-0.850000X0.850000X-0.850000X-0.850000X0*%
%ADD21RoundRect,0.050800X0.850000X-1.750000X0.850000X1.750000X-0.850000X1.750000X-0.850000X-1.750000X0*%
%ADD22O,1.801600X1.801600*%
%ADD23RoundRect,0.050800X1.750000X0.850000X-1.750000X0.850000X-1.750000X-0.850000X1.750000X-0.850000X0*%
G04 APERTURE END LIST*
D10*
%TO.C,U2*%
X84757500Y-63434000D03*
X84757500Y-61534000D03*
X82882500Y-62484000D03*
%TD*%
D11*
%TO.C,Q9*%
X138750000Y-70787500D03*
X140650000Y-70787500D03*
X139700000Y-68912500D03*
%TD*%
D12*
%TO.C,Q6*%
X155890000Y-81612500D03*
X153990000Y-81612500D03*
X154940000Y-83487500D03*
%TD*%
D13*
%TO.C,J4*%
X147320000Y-64770000D03*
D14*
X149860000Y-64770000D03*
X152400000Y-64770000D03*
X154940000Y-64770000D03*
%TD*%
D13*
%TO.C,J3*%
X129540000Y-64770000D03*
D14*
X132080000Y-64770000D03*
X134620000Y-64770000D03*
X137160000Y-64770000D03*
%TD*%
D12*
%TO.C,Q4*%
X145730000Y-81612500D03*
X143830000Y-81612500D03*
X144780000Y-83487500D03*
%TD*%
D13*
%TO.C,J2*%
X147320000Y-87630000D03*
D14*
X149860000Y-87630000D03*
X152400000Y-87630000D03*
X154940000Y-87630000D03*
%TD*%
D12*
%TO.C,Q5*%
X150810000Y-81612500D03*
X148910000Y-81612500D03*
X149860000Y-83487500D03*
%TD*%
%TO.C,Q3*%
X140650000Y-81612500D03*
X138750000Y-81612500D03*
X139700000Y-83487500D03*
%TD*%
D11*
%TO.C,Q8*%
X133670000Y-70787500D03*
X135570000Y-70787500D03*
X134620000Y-68912500D03*
%TD*%
D12*
%TO.C,Q1*%
X130490000Y-81612500D03*
X128590000Y-81612500D03*
X129540000Y-83487500D03*
%TD*%
D13*
%TO.C,J1*%
X129540000Y-87630000D03*
D14*
X132080000Y-87630000D03*
X134620000Y-87630000D03*
X137160000Y-87630000D03*
%TD*%
D15*
%TO.C,REF\u002A\u002A*%
X157797500Y-76200000D03*
%TD*%
D11*
%TO.C,Q11*%
X148910000Y-70787500D03*
X150810000Y-70787500D03*
X149860000Y-68912500D03*
%TD*%
%TO.C,Q12*%
X153990000Y-70787500D03*
X155890000Y-70787500D03*
X154940000Y-68912500D03*
%TD*%
%TO.C,Q10*%
X143830000Y-70742500D03*
X145730000Y-70742500D03*
X144780000Y-68867500D03*
%TD*%
D16*
%TO.C,J5*%
X170275000Y-89600000D03*
X170275000Y-62800000D03*
D17*
X163054999Y-84699999D03*
X163054999Y-83429999D03*
X163054999Y-82159999D03*
X163054999Y-80889999D03*
X163054999Y-79619999D03*
X163054999Y-78349999D03*
X163054999Y-77079999D03*
X163054999Y-75809999D03*
X163054999Y-74539999D03*
X163054999Y-73269999D03*
X163054999Y-71999999D03*
X163054999Y-70729999D03*
X163054999Y-69459999D03*
X163054999Y-68189999D03*
X163054999Y-66919999D03*
%TD*%
D11*
%TO.C,Q7*%
X128590000Y-70787500D03*
X130490000Y-70787500D03*
X129540000Y-68912500D03*
%TD*%
D18*
%TO.C,U1*%
X72519999Y-78924999D03*
D19*
X75549999Y-78624999D03*
X75549999Y-73774999D03*
D18*
X72519999Y-73474999D03*
D20*
X72390000Y-85090000D03*
D21*
X72390000Y-85990000D03*
D22*
X74929999Y-85089999D03*
D21*
X74930000Y-85990000D03*
D22*
X77469999Y-85089999D03*
D21*
X77470000Y-85990000D03*
D22*
X80009999Y-85089999D03*
D21*
X80010000Y-85990000D03*
D22*
X82549999Y-85089999D03*
D21*
X82550000Y-85990000D03*
D22*
X85089999Y-85089999D03*
D21*
X85090000Y-85990000D03*
D22*
X87629999Y-85089999D03*
D21*
X87630000Y-85990000D03*
D22*
X90169999Y-85089999D03*
D21*
X90170000Y-85990000D03*
D22*
X92709999Y-85089999D03*
D21*
X92710000Y-85990000D03*
D22*
X95249999Y-85089999D03*
D21*
X95250000Y-85990000D03*
D22*
X97789999Y-85089999D03*
D21*
X97790000Y-85990000D03*
D22*
X100329999Y-85089999D03*
D21*
X100330000Y-85990000D03*
D22*
X102869999Y-85089999D03*
D21*
X102870000Y-85990000D03*
D22*
X105409999Y-85089999D03*
D21*
X105410000Y-85990000D03*
D22*
X107949999Y-85089999D03*
D21*
X107950000Y-85990000D03*
D22*
X110489999Y-85089999D03*
D21*
X110490000Y-85990000D03*
D22*
X113029999Y-85089999D03*
D21*
X113030000Y-85990000D03*
D22*
X115569999Y-85089999D03*
D21*
X115570000Y-85990000D03*
D22*
X118109999Y-85089999D03*
D21*
X118110000Y-85990000D03*
D22*
X120649999Y-85089999D03*
D21*
X120650000Y-85990000D03*
D22*
X120649999Y-67309999D03*
D21*
X120650000Y-66410000D03*
D22*
X118109999Y-67309999D03*
D21*
X118110000Y-66410000D03*
D22*
X115569999Y-67309999D03*
D21*
X115570000Y-66410000D03*
D22*
X113029999Y-67309999D03*
D21*
X113030000Y-66410000D03*
D22*
X110489999Y-67309999D03*
D21*
X110490000Y-66410000D03*
D22*
X107949999Y-67309999D03*
D21*
X107950000Y-66410000D03*
D22*
X105409999Y-67309999D03*
D21*
X105410000Y-66410000D03*
D22*
X102869999Y-67309999D03*
D21*
X102870000Y-66410000D03*
D22*
X100329999Y-67309999D03*
D21*
X100330000Y-66410000D03*
D22*
X97789999Y-67309999D03*
D21*
X97790000Y-66410000D03*
D22*
X95249999Y-67309999D03*
D21*
X95250000Y-66410000D03*
D22*
X92709999Y-67309999D03*
D21*
X92710000Y-66410000D03*
D22*
X90169999Y-67309999D03*
D21*
X90170000Y-66410000D03*
D22*
X87629999Y-67309999D03*
D21*
X87630000Y-66410000D03*
D22*
X85089999Y-67309999D03*
D21*
X85090000Y-66410000D03*
D22*
X82549999Y-67309999D03*
D21*
X82550000Y-66410000D03*
D22*
X80009999Y-67309999D03*
D21*
X80010000Y-66410000D03*
D22*
X77469999Y-67309999D03*
D21*
X77470000Y-66410000D03*
D22*
X74929999Y-67309999D03*
D21*
X74930000Y-66410000D03*
D22*
X72389999Y-67309999D03*
D21*
X72390000Y-66410000D03*
D22*
X120419999Y-78739999D03*
D23*
X121320000Y-78740000D03*
D22*
X120419999Y-76199999D03*
D23*
X121320000Y-76200000D03*
D22*
X120419999Y-73659999D03*
D23*
X121320000Y-73660000D03*
%TD*%
D12*
%TO.C,Q2*%
X135570000Y-81612500D03*
X133670000Y-81612500D03*
X134620000Y-83487500D03*
%TD*%
M02*
