%TF.GenerationSoftware,KiCad,Pcbnew,(7.0.0)*%
%TF.CreationDate,2023-03-11T15:32:13-08:00*%
%TF.ProjectId,pico_12vrgb_controller,7069636f-5f31-4327-9672-67625f636f6e,v1*%
%TF.SameCoordinates,Original*%
%TF.FileFunction,Copper,L1,Top*%
%TF.FilePolarity,Positive*%
%FSLAX46Y46*%
G04 Gerber Fmt 4.6, Leading zero omitted, Abs format (unit mm)*
G04 Created by KiCad (PCBNEW (7.0.0)) date 2023-03-11 15:32:13*
%MOMM*%
%LPD*%
G01*
G04 APERTURE LIST*
G04 Aperture macros list*
%AMRoundRect*
0 Rectangle with rounded corners*
0 $1 Rounding radius*
0 $2 $3 $4 $5 $6 $7 $8 $9 X,Y pos of 4 corners*
0 Add a 4 corners polygon primitive as box body*
4,1,4,$2,$3,$4,$5,$6,$7,$8,$9,$2,$3,0*
0 Add four circle primitives for the rounded corners*
1,1,$1+$1,$2,$3*
1,1,$1+$1,$4,$5*
1,1,$1+$1,$6,$7*
1,1,$1+$1,$8,$9*
0 Add four rect primitives between the rounded corners*
20,1,$1+$1,$2,$3,$4,$5,0*
20,1,$1+$1,$4,$5,$6,$7,0*
20,1,$1+$1,$6,$7,$8,$9,0*
20,1,$1+$1,$8,$9,$2,$3,0*%
G04 Aperture macros list end*
%ADD10C,0.300000*%
%TA.AperFunction,NonConductor*%
%ADD11C,0.300000*%
%TD*%
%TA.AperFunction,SMDPad,CuDef*%
%ADD12RoundRect,0.150000X0.587500X0.150000X-0.587500X0.150000X-0.587500X-0.150000X0.587500X-0.150000X0*%
%TD*%
%TA.AperFunction,SMDPad,CuDef*%
%ADD13RoundRect,0.150000X0.150000X-0.587500X0.150000X0.587500X-0.150000X0.587500X-0.150000X-0.587500X0*%
%TD*%
%TA.AperFunction,SMDPad,CuDef*%
%ADD14RoundRect,0.150000X-0.150000X0.587500X-0.150000X-0.587500X0.150000X-0.587500X0.150000X0.587500X0*%
%TD*%
%TA.AperFunction,ComponentPad*%
%ADD15R,1.500000X1.500000*%
%TD*%
%TA.AperFunction,ComponentPad*%
%ADD16C,1.500000*%
%TD*%
%TA.AperFunction,ComponentPad*%
%ADD17O,1.000000X1.000000*%
%TD*%
%TA.AperFunction,ComponentPad*%
%ADD18R,1.700000X1.700000*%
%TD*%
%TA.AperFunction,SMDPad,CuDef*%
%ADD19R,1.700000X3.500000*%
%TD*%
%TA.AperFunction,ComponentPad*%
%ADD20O,1.700000X1.700000*%
%TD*%
%TA.AperFunction,SMDPad,CuDef*%
%ADD21R,3.500000X1.700000*%
%TD*%
%TA.AperFunction,ViaPad*%
%ADD22C,0.609600*%
%TD*%
%TA.AperFunction,Conductor*%
%ADD23C,0.609600*%
%TD*%
%TA.AperFunction,Conductor*%
%ADD24C,0.304800*%
%TD*%
G04 APERTURE END LIST*
D10*
D11*
X71969285Y-62173571D02*
X72326428Y-63173571D01*
X72326428Y-63173571D02*
X72683571Y-62173571D01*
X74040714Y-63173571D02*
X73183571Y-63173571D01*
X73612142Y-63173571D02*
X73612142Y-61673571D01*
X73612142Y-61673571D02*
X73469285Y-61887857D01*
X73469285Y-61887857D02*
X73326428Y-62030714D01*
X73326428Y-62030714D02*
X73183571Y-62102142D01*
D12*
%TO.P,U2,1,K*%
%TO.N,/ADC_VREF*%
X84757500Y-63434000D03*
%TO.P,U2,2,A*%
%TO.N,GND*%
X84757500Y-61534000D03*
%TO.P,U2,3*%
%TO.N,N/C*%
X82882500Y-62484000D03*
%TD*%
D13*
%TO.P,Q9,1,G*%
%TO.N,/L3_PWM_B*%
X138750000Y-70787500D03*
%TO.P,Q9,2,S*%
%TO.N,GND*%
X140650000Y-70787500D03*
%TO.P,Q9,3,D*%
%TO.N,/L3_B*%
X139700000Y-68912500D03*
%TD*%
D14*
%TO.P,Q6,1,G*%
%TO.N,/L2_PWM_B*%
X155890000Y-81612500D03*
%TO.P,Q6,2,S*%
%TO.N,GND*%
X153990000Y-81612500D03*
%TO.P,Q6,3,D*%
%TO.N,/L2_B*%
X154940000Y-83487500D03*
%TD*%
D15*
%TO.P,J4,1,Pin_1*%
%TO.N,+12V*%
X147319999Y-64769999D03*
D16*
%TO.P,J4,2,Pin_2*%
%TO.N,/L4_G*%
X149860000Y-64770000D03*
%TO.P,J4,3,Pin_3*%
%TO.N,/L4_R*%
X152400000Y-64770000D03*
%TO.P,J4,4,Pin_4*%
%TO.N,/L4_B*%
X154940000Y-64770000D03*
%TD*%
D15*
%TO.P,J3,1,Pin_1*%
%TO.N,+12V*%
X129539999Y-64769999D03*
D16*
%TO.P,J3,2,Pin_2*%
%TO.N,/L3_G*%
X132080000Y-64770000D03*
%TO.P,J3,3,Pin_3*%
%TO.N,/L3_R*%
X134620000Y-64770000D03*
%TO.P,J3,4,Pin_4*%
%TO.N,/L3_B*%
X137160000Y-64770000D03*
%TD*%
D14*
%TO.P,Q4,1,G*%
%TO.N,/L2_PWM_G*%
X145730000Y-81612500D03*
%TO.P,Q4,2,S*%
%TO.N,GND*%
X143830000Y-81612500D03*
%TO.P,Q4,3,D*%
%TO.N,/L2_G*%
X144780000Y-83487500D03*
%TD*%
D15*
%TO.P,J2,1,Pin_1*%
%TO.N,+12V*%
X147319999Y-87629999D03*
D16*
%TO.P,J2,2,Pin_2*%
%TO.N,/L2_G*%
X149860000Y-87630000D03*
%TO.P,J2,3,Pin_3*%
%TO.N,/L2_R*%
X152400000Y-87630000D03*
%TO.P,J2,4,Pin_4*%
%TO.N,/L2_B*%
X154940000Y-87630000D03*
%TD*%
D14*
%TO.P,Q5,1,G*%
%TO.N,/L2_PWM_R*%
X150810000Y-81612500D03*
%TO.P,Q5,2,S*%
%TO.N,GND*%
X148910000Y-81612500D03*
%TO.P,Q5,3,D*%
%TO.N,/L2_R*%
X149860000Y-83487500D03*
%TD*%
%TO.P,Q3,1,G*%
%TO.N,/L1_PWM_B*%
X140650000Y-81612500D03*
%TO.P,Q3,2,S*%
%TO.N,GND*%
X138750000Y-81612500D03*
%TO.P,Q3,3,D*%
%TO.N,/L1_B*%
X139700000Y-83487500D03*
%TD*%
D13*
%TO.P,Q8,1,G*%
%TO.N,/L3_PWM_R*%
X133670000Y-70787500D03*
%TO.P,Q8,2,S*%
%TO.N,GND*%
X135570000Y-70787500D03*
%TO.P,Q8,3,D*%
%TO.N,/L3_R*%
X134620000Y-68912500D03*
%TD*%
D14*
%TO.P,Q1,1,G*%
%TO.N,/L1_PWM_G*%
X130490000Y-81612500D03*
%TO.P,Q1,2,S*%
%TO.N,GND*%
X128590000Y-81612500D03*
%TO.P,Q1,3,D*%
%TO.N,/L1_G*%
X129540000Y-83487500D03*
%TD*%
D15*
%TO.P,J1,1,Pin_1*%
%TO.N,+12V*%
X129539999Y-87629999D03*
D16*
%TO.P,J1,2,Pin_2*%
%TO.N,/L1_G*%
X132080000Y-87630000D03*
%TO.P,J1,3,Pin_3*%
%TO.N,/L1_R*%
X134620000Y-87630000D03*
%TO.P,J1,4,Pin_4*%
%TO.N,/L1_B*%
X137160000Y-87630000D03*
%TD*%
D13*
%TO.P,Q11,1,G*%
%TO.N,/L4_PWM_R*%
X148910000Y-70787500D03*
%TO.P,Q11,2,S*%
%TO.N,GND*%
X150810000Y-70787500D03*
%TO.P,Q11,3,D*%
%TO.N,/L4_R*%
X149860000Y-68912500D03*
%TD*%
%TO.P,Q12,1,G*%
%TO.N,/L4_PWM_B*%
X153990000Y-70787500D03*
%TO.P,Q12,2,S*%
%TO.N,GND*%
X155890000Y-70787500D03*
%TO.P,Q12,3,D*%
%TO.N,/L4_B*%
X154940000Y-68912500D03*
%TD*%
%TO.P,Q10,1,G*%
%TO.N,/L4_PWM_G*%
X143830000Y-70742500D03*
%TO.P,Q10,2,S*%
%TO.N,GND*%
X145730000Y-70742500D03*
%TO.P,Q10,3,D*%
%TO.N,/L4_G*%
X144780000Y-68867500D03*
%TD*%
D17*
%TO.P,J5,1,3V3*%
%TO.N,unconnected-(J5-3V3-Pad1)*%
X163054999Y-84699999D03*
%TO.P,J5,2,3V3*%
%TO.N,unconnected-(J5-3V3-Pad2)*%
X163054999Y-83429999D03*
%TO.P,J5,3,3V3*%
%TO.N,unconnected-(J5-3V3-Pad3)*%
X163054999Y-82159999D03*
%TO.P,J5,4,COM*%
%TO.N,GND*%
X163054999Y-80889999D03*
%TO.P,J5,5,COM*%
X163054999Y-79619999D03*
%TO.P,J5,6,COM*%
X163054999Y-78349999D03*
%TO.P,J5,7,5V*%
%TO.N,unconnected-(J5-5V-Pad7)*%
X163054999Y-77079999D03*
%TO.P,J5,8,5V*%
%TO.N,unconnected-(J5-5V-Pad8)*%
X163054999Y-75809999D03*
%TO.P,J5,9,5V*%
%TO.N,unconnected-(J5-5V-Pad9)*%
X163054999Y-74539999D03*
%TO.P,J5,10,COM*%
%TO.N,GND*%
X163054999Y-73269999D03*
%TO.P,J5,11,COM*%
X163054999Y-71999999D03*
%TO.P,J5,12,COM*%
X163054999Y-70729999D03*
%TO.P,J5,13,12V*%
%TO.N,+12V*%
X163054999Y-69459999D03*
%TO.P,J5,14,12V*%
X163054999Y-68189999D03*
%TO.P,J5,15,12V*%
X163054999Y-66919999D03*
%TD*%
D13*
%TO.P,Q7,1,G*%
%TO.N,/L3_PWM_G*%
X128590000Y-70787500D03*
%TO.P,Q7,2,S*%
%TO.N,GND*%
X130490000Y-70787500D03*
%TO.P,Q7,3,D*%
%TO.N,/L3_G*%
X129540000Y-68912500D03*
%TD*%
D18*
%TO.P,U1,1,GPO*%
%TO.N,/UART_TX*%
X72389999Y-85089999D03*
D19*
X72389999Y-85989999D03*
D20*
%TO.P,U1,2,GP1*%
%TO.N,/UART_RX*%
X74929999Y-85089999D03*
D19*
X74929999Y-85989999D03*
D20*
%TO.P,U1,3,GND*%
%TO.N,GND*%
X77469999Y-85089999D03*
D19*
X77469999Y-85989999D03*
D20*
%TO.P,U1,4,GP2*%
%TO.N,unconnected-(U1-GP2-Pad4)*%
X80009999Y-85089999D03*
D19*
X80009999Y-85989999D03*
D20*
%TO.P,U1,5,GP3*%
%TO.N,unconnected-(U1-GP3-Pad5)*%
X82549999Y-85089999D03*
D19*
X82549999Y-85989999D03*
D20*
%TO.P,U1,6,GP4*%
%TO.N,unconnected-(U1-GP4-Pad6)*%
X85089999Y-85089999D03*
D19*
X85089999Y-85989999D03*
D20*
%TO.P,U1,7,GP5*%
%TO.N,unconnected-(U1-GP5-Pad7)*%
X87629999Y-85089999D03*
D19*
X87629999Y-85989999D03*
D20*
%TO.P,U1,8,GND*%
%TO.N,GND*%
X90169999Y-85089999D03*
D19*
X90169999Y-85989999D03*
D20*
%TO.P,U1,9,GP6*%
%TO.N,unconnected-(U1-GP6-Pad9)*%
X92709999Y-85089999D03*
D19*
X92709999Y-85989999D03*
D20*
%TO.P,U1,10,GP7*%
%TO.N,unconnected-(U1-GP7-Pad10)*%
X95249999Y-85089999D03*
D19*
X95249999Y-85989999D03*
D20*
%TO.P,U1,11,GP8*%
%TO.N,unconnected-(U1-GP8-Pad11)*%
X97789999Y-85089999D03*
D19*
X97789999Y-85989999D03*
D20*
%TO.P,U1,12,GP9*%
%TO.N,unconnected-(U1-GP9-Pad12)*%
X100329999Y-85089999D03*
D19*
X100329999Y-85989999D03*
D20*
%TO.P,U1,13,GND*%
%TO.N,GND*%
X102869999Y-85089999D03*
D19*
X102869999Y-85989999D03*
D20*
%TO.P,U1,14,GP10*%
%TO.N,/L1_PWM_G*%
X105409999Y-85089999D03*
D19*
X105409999Y-85989999D03*
D20*
%TO.P,U1,15,GP11*%
%TO.N,/L1_PWM_R*%
X107949999Y-85089999D03*
D19*
X107949999Y-85989999D03*
D20*
%TO.P,U1,16,GP12*%
%TO.N,/L1_PWM_B*%
X110489999Y-85089999D03*
D19*
X110489999Y-85989999D03*
D20*
%TO.P,U1,17,GP13*%
%TO.N,/L2_PWM_B*%
X113029999Y-85089999D03*
D19*
X113029999Y-85989999D03*
D20*
%TO.P,U1,18,GND*%
%TO.N,GND*%
X115569999Y-85089999D03*
D19*
X115569999Y-85989999D03*
D20*
%TO.P,U1,19,GP14*%
%TO.N,/L2_PWM_R*%
X118109999Y-85089999D03*
D19*
X118109999Y-85989999D03*
D20*
%TO.P,U1,20,GP15*%
%TO.N,/L2_PWM_G*%
X120649999Y-85089999D03*
D19*
X120649999Y-85989999D03*
D20*
%TO.P,U1,21,GP16*%
%TO.N,/L4_PWM_G*%
X120649999Y-67309999D03*
D19*
X120649999Y-66409999D03*
D20*
%TO.P,U1,22,GP17*%
%TO.N,/L4_PWM_R*%
X118109999Y-67309999D03*
D19*
X118109999Y-66409999D03*
D20*
%TO.P,U1,23,GND*%
%TO.N,GND*%
X115569999Y-67309999D03*
D19*
X115569999Y-66409999D03*
D20*
%TO.P,U1,24,GP18*%
%TO.N,/L4_PWM_B*%
X113029999Y-67309999D03*
D19*
X113029999Y-66409999D03*
D20*
%TO.P,U1,25,GP19*%
%TO.N,/L3_PWM_B*%
X110489999Y-67309999D03*
D19*
X110489999Y-66409999D03*
D20*
%TO.P,U1,26,GP20*%
%TO.N,/L3_PWM_R*%
X107949999Y-67309999D03*
D19*
X107949999Y-66409999D03*
D20*
%TO.P,U1,27,GP21*%
%TO.N,/L3_PWM_G*%
X105409999Y-67309999D03*
D19*
X105409999Y-66409999D03*
D20*
%TO.P,U1,28,GND*%
%TO.N,GND*%
X102869999Y-67309999D03*
D19*
X102869999Y-66409999D03*
D20*
%TO.P,U1,29,GP22*%
%TO.N,unconnected-(U1-GP22-Pad29)*%
X100329999Y-67309999D03*
D19*
X100329999Y-66409999D03*
D20*
%TO.P,U1,30,RUN*%
%TO.N,unconnected-(U1-RUN-Pad30)*%
X97789999Y-67309999D03*
D19*
X97789999Y-66409999D03*
D20*
%TO.P,U1,31,GP26*%
%TO.N,unconnected-(U1-GP26-Pad31)*%
X95249999Y-67309999D03*
D19*
X95249999Y-66409999D03*
D20*
%TO.P,U1,32,GP27*%
%TO.N,unconnected-(U1-GP27-Pad32)*%
X92709999Y-67309999D03*
D19*
X92709999Y-66409999D03*
D20*
%TO.P,U1,33,AGND*%
%TO.N,GND*%
X90169999Y-67309999D03*
D19*
X90169999Y-66409999D03*
D20*
%TO.P,U1,34,GP28*%
%TO.N,unconnected-(U1-GP28-Pad34)*%
X87629999Y-67309999D03*
D19*
X87629999Y-66409999D03*
D20*
%TO.P,U1,35,ADC_VREF*%
%TO.N,/ADC_VREF*%
X85089999Y-67309999D03*
D19*
X85089999Y-66409999D03*
D20*
%TO.P,U1,36,3V3*%
%TO.N,unconnected-(U1-3V3-Pad36)*%
X82549999Y-67309999D03*
D19*
X82549999Y-66409999D03*
D20*
%TO.P,U1,37,3V3_EN*%
%TO.N,unconnected-(U1-3V3_EN-Pad37)*%
X80009999Y-67309999D03*
D19*
X80009999Y-66409999D03*
D20*
%TO.P,U1,38,GND*%
%TO.N,GND*%
X77469999Y-67309999D03*
D19*
X77469999Y-66409999D03*
D20*
%TO.P,U1,39,VSYS*%
%TO.N,/VBUS*%
X74929999Y-67309999D03*
D19*
X74929999Y-66409999D03*
D20*
%TO.P,U1,40,VBUS*%
X72389999Y-67309999D03*
D19*
X72389999Y-66409999D03*
D20*
%TO.P,U1,41,SWCLK*%
%TO.N,/SWCLK*%
X120419999Y-78739999D03*
D21*
X121319999Y-78739999D03*
D20*
%TO.P,U1,42,GND*%
%TO.N,GND*%
X120419999Y-76199999D03*
D21*
X121319999Y-76199999D03*
D20*
%TO.P,U1,43,SWDIO*%
%TO.N,/SWDIO*%
X120419999Y-73659999D03*
D21*
X121319999Y-73659999D03*
%TD*%
D14*
%TO.P,Q2,1,G*%
%TO.N,/L1_PWM_R*%
X135570000Y-81612500D03*
%TO.P,Q2,2,S*%
%TO.N,GND*%
X133670000Y-81612500D03*
%TO.P,Q2,3,D*%
%TO.N,/L1_R*%
X134620000Y-83487500D03*
%TD*%
D22*
%TO.N,GND*%
X155575000Y-72390000D03*
X153670000Y-80010000D03*
X150495000Y-72390000D03*
X130048000Y-72136000D03*
X135255000Y-72390000D03*
X138430000Y-80010000D03*
X145415000Y-72390000D03*
X140335000Y-72390000D03*
X133096000Y-80264000D03*
X128016000Y-84328000D03*
X148590000Y-80010000D03*
X143510000Y-80010000D03*
%TD*%
D23*
%TO.N,+12V*%
X165595000Y-88900000D02*
X165595000Y-70104000D01*
X164325000Y-90170000D02*
X165595000Y-88900000D01*
X147320000Y-90170000D02*
X164325000Y-90170000D01*
X164325000Y-62230000D02*
X147320000Y-62230000D01*
X165595000Y-66294000D02*
X165595000Y-63500000D01*
X165595000Y-63500000D02*
X164325000Y-62230000D01*
X147320000Y-87630000D02*
X147320000Y-90170000D01*
X129540000Y-88900000D02*
X130810000Y-90170000D01*
X129540000Y-63500000D02*
X130810000Y-62230000D01*
X129540000Y-87630000D02*
X129540000Y-88900000D01*
X147320000Y-64770000D02*
X147320000Y-62230000D01*
X130810000Y-62230000D02*
X147320000Y-62230000D01*
X129540000Y-64770000D02*
X129540000Y-63500000D01*
X130810000Y-90170000D02*
X147320000Y-90170000D01*
%TO.N,/L1_G*%
X129540000Y-83487500D02*
X129540000Y-85090000D01*
X129540000Y-85090000D02*
X132080000Y-87630000D01*
%TO.N,/L1_R*%
X134620000Y-83487500D02*
X134620000Y-87630000D01*
%TO.N,/L1_B*%
X139700000Y-85090000D02*
X137160000Y-87630000D01*
X139700000Y-83487500D02*
X139700000Y-85090000D01*
%TO.N,/L2_G*%
X144780000Y-84455000D02*
X145415000Y-85090000D01*
X147320000Y-85090000D02*
X149860000Y-87630000D01*
X145415000Y-85090000D02*
X147320000Y-85090000D01*
X144780000Y-83487500D02*
X144780000Y-84455000D01*
%TO.N,/L2_R*%
X149860000Y-85090000D02*
X152400000Y-87630000D01*
X149860000Y-83487500D02*
X149860000Y-85090000D01*
%TO.N,/L2_B*%
X154940000Y-83487500D02*
X154940000Y-87630000D01*
%TO.N,/L3_G*%
X129540000Y-67310000D02*
X132080000Y-64770000D01*
X129540000Y-68912500D02*
X129540000Y-67310000D01*
%TO.N,/L3_R*%
X134620000Y-64770000D02*
X134620000Y-68912500D01*
%TO.N,/L3_B*%
X139700000Y-68912500D02*
X139700000Y-67310000D01*
X139700000Y-67310000D02*
X137160000Y-64770000D01*
%TO.N,/L4_G*%
X145415000Y-67310000D02*
X147320000Y-67310000D01*
X144780000Y-67945000D02*
X145415000Y-67310000D01*
X144780000Y-68867500D02*
X144780000Y-67945000D01*
X147320000Y-67310000D02*
X149860000Y-64770000D01*
%TO.N,/L4_R*%
X149860000Y-68912500D02*
X149860000Y-67310000D01*
X149860000Y-67310000D02*
X152400000Y-64770000D01*
%TO.N,/L4_B*%
X154940000Y-68912500D02*
X154940000Y-64770000D01*
%TO.N,GND*%
X155890000Y-70787500D02*
X155890000Y-72075000D01*
X140650000Y-72075000D02*
X140335000Y-72390000D01*
X153990000Y-81612500D02*
X153990000Y-80330000D01*
X128590000Y-83754000D02*
X128016000Y-84328000D01*
X133670000Y-80838000D02*
X133096000Y-80264000D01*
X133670000Y-81612500D02*
X133670000Y-80838000D01*
X148910000Y-81612500D02*
X148910000Y-80330000D01*
D24*
X88839000Y-61534000D02*
X90170000Y-62865000D01*
X90170000Y-62865000D02*
X90170000Y-67310000D01*
D23*
X138750000Y-81612500D02*
X138750000Y-80330000D01*
X143830000Y-81612500D02*
X143830000Y-80330000D01*
X135570000Y-72075000D02*
X135255000Y-72390000D01*
X150810000Y-72075000D02*
X150495000Y-72390000D01*
X155890000Y-72075000D02*
X155575000Y-72390000D01*
X128590000Y-81612500D02*
X128590000Y-83754000D01*
D24*
X84757500Y-61534000D02*
X88839000Y-61534000D01*
D23*
X150810000Y-70787500D02*
X150810000Y-72075000D01*
X130490000Y-71694000D02*
X130048000Y-72136000D01*
X148910000Y-80330000D02*
X148590000Y-80010000D01*
X140650000Y-70787500D02*
X140650000Y-72075000D01*
X153990000Y-80330000D02*
X153670000Y-80010000D01*
X145730000Y-70742500D02*
X145730000Y-72075000D01*
X145730000Y-72075000D02*
X145415000Y-72390000D01*
X135570000Y-70787500D02*
X135570000Y-72075000D01*
X143830000Y-80330000D02*
X143510000Y-80010000D01*
X130490000Y-70787500D02*
X130490000Y-71694000D01*
X138750000Y-80330000D02*
X138430000Y-80010000D01*
D24*
%TO.N,/L1_PWM_B*%
X121920000Y-88900000D02*
X111125000Y-88900000D01*
X111125000Y-88900000D02*
X110490000Y-88265000D01*
X110490000Y-88265000D02*
X110490000Y-85090000D01*
X139065000Y-78740000D02*
X126365000Y-78740000D01*
X125730000Y-79375000D02*
X125730000Y-85090000D01*
X125730000Y-85090000D02*
X121920000Y-88900000D01*
X140650000Y-80325000D02*
X139065000Y-78740000D01*
X126365000Y-78740000D02*
X125730000Y-79375000D01*
X140650000Y-81612500D02*
X140650000Y-80325000D01*
%TO.N,/L1_PWM_R*%
X135570000Y-81612500D02*
X135570000Y-80325000D01*
X134620000Y-79375000D02*
X127000000Y-79375000D01*
X127000000Y-79375000D02*
X126365000Y-80010000D01*
X135570000Y-80325000D02*
X134620000Y-79375000D01*
X126365000Y-85725000D02*
X122555000Y-89535000D01*
X107950000Y-88265000D02*
X107950000Y-85090000D01*
X109220000Y-89535000D02*
X107950000Y-88265000D01*
X122555000Y-89535000D02*
X109220000Y-89535000D01*
X126365000Y-80010000D02*
X126365000Y-85725000D01*
%TO.N,/L1_PWM_G*%
X127000000Y-80645000D02*
X127000000Y-86360000D01*
X105410000Y-88265000D02*
X105410000Y-85090000D01*
X123190000Y-90170000D02*
X107315000Y-90170000D01*
X130490000Y-81612500D02*
X130490000Y-80325000D01*
X130175000Y-80010000D02*
X127635000Y-80010000D01*
X107315000Y-90170000D02*
X105410000Y-88265000D01*
X127000000Y-86360000D02*
X123190000Y-90170000D01*
X130490000Y-80325000D02*
X130175000Y-80010000D01*
X127635000Y-80010000D02*
X127000000Y-80645000D01*
%TO.N,/L2_PWM_B*%
X123825000Y-80645000D02*
X122555000Y-81915000D01*
X152400000Y-76835000D02*
X124460000Y-76835000D01*
X155890000Y-81612500D02*
X155890000Y-80325000D01*
X155890000Y-80325000D02*
X152400000Y-76835000D01*
X124460000Y-76835000D02*
X123825000Y-77470000D01*
X114935000Y-81915000D02*
X113030000Y-83820000D01*
X123825000Y-77470000D02*
X123825000Y-80645000D01*
X113030000Y-83820000D02*
X113030000Y-85090000D01*
X122555000Y-81915000D02*
X114935000Y-81915000D01*
%TO.N,/L2_PWM_R*%
X150810000Y-81612500D02*
X150810000Y-80325000D01*
X150810000Y-80325000D02*
X147955000Y-77470000D01*
X147955000Y-77470000D02*
X125095000Y-77470000D01*
X123190000Y-82550000D02*
X119380000Y-82550000D01*
X124460000Y-78105000D02*
X124460000Y-81280000D01*
X125095000Y-77470000D02*
X124460000Y-78105000D01*
X118110000Y-83820000D02*
X118110000Y-85090000D01*
X119380000Y-82550000D02*
X118110000Y-83820000D01*
X124460000Y-81280000D02*
X123190000Y-82550000D01*
%TO.N,/L2_PWM_G*%
X123825000Y-83185000D02*
X121285000Y-83185000D01*
X125095000Y-81915000D02*
X123825000Y-83185000D01*
X145730000Y-81612500D02*
X145730000Y-80325000D01*
X125095000Y-78740000D02*
X125095000Y-81915000D01*
X121285000Y-83185000D02*
X120650000Y-83820000D01*
X143510000Y-78105000D02*
X125730000Y-78105000D01*
X145730000Y-80325000D02*
X143510000Y-78105000D01*
X120650000Y-83820000D02*
X120650000Y-85090000D01*
X125730000Y-78105000D02*
X125095000Y-78740000D01*
%TO.N,/L3_PWM_B*%
X125730000Y-73025000D02*
X125730000Y-67310000D01*
X137160000Y-73660000D02*
X126365000Y-73660000D01*
X126365000Y-73660000D02*
X125730000Y-73025000D01*
X125730000Y-67310000D02*
X121920000Y-63500000D01*
X138750000Y-70787500D02*
X138750000Y-72070000D01*
X121920000Y-63500000D02*
X111125000Y-63500000D01*
X110490000Y-64135000D02*
X110490000Y-67310000D01*
X111125000Y-63500000D02*
X110490000Y-64135000D01*
X138750000Y-72070000D02*
X137160000Y-73660000D01*
%TO.N,/L3_PWM_R*%
X109220000Y-62865000D02*
X107950000Y-64135000D01*
X122555000Y-62865000D02*
X109220000Y-62865000D01*
X126365000Y-72390000D02*
X126365000Y-66675000D01*
X127000000Y-73025000D02*
X126365000Y-72390000D01*
X107950000Y-64135000D02*
X107950000Y-67310000D01*
X133670000Y-72070000D02*
X132715000Y-73025000D01*
X126365000Y-66675000D02*
X122555000Y-62865000D01*
X133670000Y-70787500D02*
X133670000Y-72070000D01*
X132715000Y-73025000D02*
X127000000Y-73025000D01*
%TO.N,/L3_PWM_G*%
X128270000Y-72390000D02*
X127635000Y-72390000D01*
X105410000Y-64135000D02*
X105410000Y-67310000D01*
X128590000Y-72070000D02*
X128270000Y-72390000D01*
X127000000Y-66040000D02*
X123190000Y-62230000D01*
X123190000Y-62230000D02*
X107315000Y-62230000D01*
X107315000Y-62230000D02*
X105410000Y-64135000D01*
X128590000Y-70787500D02*
X128590000Y-72070000D01*
X127000000Y-71755000D02*
X127000000Y-66040000D01*
X127635000Y-72390000D02*
X127000000Y-71755000D01*
%TO.N,/L4_PWM_B*%
X150495000Y-75565000D02*
X124460000Y-75565000D01*
X113030000Y-68580000D02*
X113030000Y-67310000D01*
X123825000Y-71120000D02*
X123190000Y-70485000D01*
X124460000Y-75565000D02*
X123825000Y-74930000D01*
X123190000Y-70485000D02*
X114935000Y-70485000D01*
X153990000Y-70787500D02*
X153990000Y-72070000D01*
X123825000Y-74930000D02*
X123825000Y-71120000D01*
X114935000Y-70485000D02*
X113030000Y-68580000D01*
X153990000Y-72070000D02*
X150495000Y-75565000D01*
%TO.N,/L4_PWM_R*%
X124460000Y-74295000D02*
X124460000Y-70485000D01*
X123825000Y-69850000D02*
X119380000Y-69850000D01*
X118110000Y-68580000D02*
X118110000Y-67310000D01*
X146050000Y-74930000D02*
X125095000Y-74930000D01*
X148910000Y-70787500D02*
X148910000Y-72070000D01*
X148910000Y-72070000D02*
X146050000Y-74930000D01*
X125095000Y-74930000D02*
X124460000Y-74295000D01*
X124460000Y-70485000D02*
X123825000Y-69850000D01*
X119380000Y-69850000D02*
X118110000Y-68580000D01*
%TO.N,/L4_PWM_G*%
X125730000Y-74295000D02*
X125095000Y-73660000D01*
X120650000Y-68580000D02*
X120650000Y-67310000D01*
X141605000Y-74295000D02*
X125730000Y-74295000D01*
X121285000Y-69215000D02*
X120650000Y-68580000D01*
X143830000Y-72070000D02*
X141605000Y-74295000D01*
X143830000Y-70742500D02*
X143830000Y-72070000D01*
X125095000Y-73660000D02*
X125095000Y-69850000D01*
X124460000Y-69215000D02*
X121285000Y-69215000D01*
X125095000Y-69850000D02*
X124460000Y-69215000D01*
%TO.N,/ADC_VREF*%
X84757500Y-63434000D02*
X85090000Y-63766500D01*
X85090000Y-63766500D02*
X85090000Y-67310000D01*
D23*
%TO.N,/VBUS*%
X72390000Y-67310000D02*
X74930000Y-67310000D01*
%TD*%
%TA.AperFunction,Conductor*%
%TO.N,+12V*%
G36*
X165834088Y-65525596D02*
G01*
X165882133Y-65571895D01*
X165899800Y-65636237D01*
X165899800Y-70759289D01*
X165881990Y-70823872D01*
X165833594Y-70870198D01*
X165768294Y-70885169D01*
X165704551Y-70864553D01*
X164332672Y-69962047D01*
X164332671Y-69962046D01*
X164325000Y-69957000D01*
X164315821Y-69957000D01*
X163105715Y-69957000D01*
X163058668Y-69947887D01*
X163018426Y-69921866D01*
X162585711Y-69506187D01*
X162557081Y-69464705D01*
X162547000Y-69415321D01*
X162547000Y-66981190D01*
X162556591Y-66932972D01*
X162583905Y-66892095D01*
X163018095Y-66457905D01*
X163058972Y-66430591D01*
X163107190Y-66421000D01*
X164315959Y-66421000D01*
X164325000Y-66421000D01*
X165705492Y-65530360D01*
X165769136Y-65510323D01*
X165834088Y-65525596D01*
G37*
%TD.AperFunction*%
%TD*%
M02*
