%TF.GenerationSoftware,KiCad,Pcbnew,(7.0.0)*%
%TF.CreationDate,2023-03-11T15:12:13-08:00*%
%TF.ProjectId,pico_12vrgb_controller,7069636f-5f31-4327-9672-67625f636f6e,v1*%
%TF.SameCoordinates,Original*%
%TF.FileFunction,Legend,Bot*%
%TF.FilePolarity,Positive*%
%FSLAX46Y46*%
G04 Gerber Fmt 4.6, Leading zero omitted, Abs format (unit mm)*
G04 Created by KiCad (PCBNEW (7.0.0)) date 2023-03-11 15:12:13*
%MOMM*%
%LPD*%
G01*
G04 APERTURE LIST*
%ADD10C,0.150000*%
G04 APERTURE END LIST*
D10*
X117236904Y-89952380D02*
X117236904Y-88952380D01*
X116808333Y-89952380D02*
X116808333Y-89428571D01*
X116808333Y-89428571D02*
X116855952Y-89333333D01*
X116855952Y-89333333D02*
X116951190Y-89285714D01*
X116951190Y-89285714D02*
X117094047Y-89285714D01*
X117094047Y-89285714D02*
X117189285Y-89333333D01*
X117189285Y-89333333D02*
X117236904Y-89380952D01*
X116474999Y-89285714D02*
X116094047Y-89285714D01*
X116332142Y-88952380D02*
X116332142Y-89809523D01*
X116332142Y-89809523D02*
X116284523Y-89904761D01*
X116284523Y-89904761D02*
X116189285Y-89952380D01*
X116189285Y-89952380D02*
X116094047Y-89952380D01*
X115903570Y-89285714D02*
X115522618Y-89285714D01*
X115760713Y-88952380D02*
X115760713Y-89809523D01*
X115760713Y-89809523D02*
X115713094Y-89904761D01*
X115713094Y-89904761D02*
X115617856Y-89952380D01*
X115617856Y-89952380D02*
X115522618Y-89952380D01*
X115189284Y-89285714D02*
X115189284Y-90285714D01*
X115189284Y-89333333D02*
X115094046Y-89285714D01*
X115094046Y-89285714D02*
X114903570Y-89285714D01*
X114903570Y-89285714D02*
X114808332Y-89333333D01*
X114808332Y-89333333D02*
X114760713Y-89380952D01*
X114760713Y-89380952D02*
X114713094Y-89476190D01*
X114713094Y-89476190D02*
X114713094Y-89761904D01*
X114713094Y-89761904D02*
X114760713Y-89857142D01*
X114760713Y-89857142D02*
X114808332Y-89904761D01*
X114808332Y-89904761D02*
X114903570Y-89952380D01*
X114903570Y-89952380D02*
X115094046Y-89952380D01*
X115094046Y-89952380D02*
X115189284Y-89904761D01*
X114332141Y-89904761D02*
X114236903Y-89952380D01*
X114236903Y-89952380D02*
X114046427Y-89952380D01*
X114046427Y-89952380D02*
X113951189Y-89904761D01*
X113951189Y-89904761D02*
X113903570Y-89809523D01*
X113903570Y-89809523D02*
X113903570Y-89761904D01*
X113903570Y-89761904D02*
X113951189Y-89666666D01*
X113951189Y-89666666D02*
X114046427Y-89619047D01*
X114046427Y-89619047D02*
X114189284Y-89619047D01*
X114189284Y-89619047D02*
X114284522Y-89571428D01*
X114284522Y-89571428D02*
X114332141Y-89476190D01*
X114332141Y-89476190D02*
X114332141Y-89428571D01*
X114332141Y-89428571D02*
X114284522Y-89333333D01*
X114284522Y-89333333D02*
X114189284Y-89285714D01*
X114189284Y-89285714D02*
X114046427Y-89285714D01*
X114046427Y-89285714D02*
X113951189Y-89333333D01*
X113474998Y-89857142D02*
X113427379Y-89904761D01*
X113427379Y-89904761D02*
X113474998Y-89952380D01*
X113474998Y-89952380D02*
X113522617Y-89904761D01*
X113522617Y-89904761D02*
X113474998Y-89857142D01*
X113474998Y-89857142D02*
X113474998Y-89952380D01*
X113474998Y-89333333D02*
X113427379Y-89380952D01*
X113427379Y-89380952D02*
X113474998Y-89428571D01*
X113474998Y-89428571D02*
X113522617Y-89380952D01*
X113522617Y-89380952D02*
X113474998Y-89333333D01*
X113474998Y-89333333D02*
X113474998Y-89428571D01*
X112284523Y-88904761D02*
X113141665Y-90190476D01*
X111236904Y-88904761D02*
X112094046Y-90190476D01*
X110474999Y-89285714D02*
X110474999Y-90095238D01*
X110474999Y-90095238D02*
X110522618Y-90190476D01*
X110522618Y-90190476D02*
X110570237Y-90238095D01*
X110570237Y-90238095D02*
X110665475Y-90285714D01*
X110665475Y-90285714D02*
X110808332Y-90285714D01*
X110808332Y-90285714D02*
X110903570Y-90238095D01*
X110474999Y-89904761D02*
X110570237Y-89952380D01*
X110570237Y-89952380D02*
X110760713Y-89952380D01*
X110760713Y-89952380D02*
X110855951Y-89904761D01*
X110855951Y-89904761D02*
X110903570Y-89857142D01*
X110903570Y-89857142D02*
X110951189Y-89761904D01*
X110951189Y-89761904D02*
X110951189Y-89476190D01*
X110951189Y-89476190D02*
X110903570Y-89380952D01*
X110903570Y-89380952D02*
X110855951Y-89333333D01*
X110855951Y-89333333D02*
X110760713Y-89285714D01*
X110760713Y-89285714D02*
X110570237Y-89285714D01*
X110570237Y-89285714D02*
X110474999Y-89333333D01*
X109998808Y-89952380D02*
X109998808Y-89285714D01*
X109998808Y-88952380D02*
X110046427Y-89000000D01*
X110046427Y-89000000D02*
X109998808Y-89047619D01*
X109998808Y-89047619D02*
X109951189Y-89000000D01*
X109951189Y-89000000D02*
X109998808Y-88952380D01*
X109998808Y-88952380D02*
X109998808Y-89047619D01*
X109665475Y-89285714D02*
X109284523Y-89285714D01*
X109522618Y-88952380D02*
X109522618Y-89809523D01*
X109522618Y-89809523D02*
X109474999Y-89904761D01*
X109474999Y-89904761D02*
X109379761Y-89952380D01*
X109379761Y-89952380D02*
X109284523Y-89952380D01*
X108951189Y-89952380D02*
X108951189Y-88952380D01*
X108522618Y-89952380D02*
X108522618Y-89428571D01*
X108522618Y-89428571D02*
X108570237Y-89333333D01*
X108570237Y-89333333D02*
X108665475Y-89285714D01*
X108665475Y-89285714D02*
X108808332Y-89285714D01*
X108808332Y-89285714D02*
X108903570Y-89333333D01*
X108903570Y-89333333D02*
X108951189Y-89380952D01*
X107617856Y-89285714D02*
X107617856Y-89952380D01*
X108046427Y-89285714D02*
X108046427Y-89809523D01*
X108046427Y-89809523D02*
X107998808Y-89904761D01*
X107998808Y-89904761D02*
X107903570Y-89952380D01*
X107903570Y-89952380D02*
X107760713Y-89952380D01*
X107760713Y-89952380D02*
X107665475Y-89904761D01*
X107665475Y-89904761D02*
X107617856Y-89857142D01*
X107141665Y-89952380D02*
X107141665Y-88952380D01*
X107141665Y-89333333D02*
X107046427Y-89285714D01*
X107046427Y-89285714D02*
X106855951Y-89285714D01*
X106855951Y-89285714D02*
X106760713Y-89333333D01*
X106760713Y-89333333D02*
X106713094Y-89380952D01*
X106713094Y-89380952D02*
X106665475Y-89476190D01*
X106665475Y-89476190D02*
X106665475Y-89761904D01*
X106665475Y-89761904D02*
X106713094Y-89857142D01*
X106713094Y-89857142D02*
X106760713Y-89904761D01*
X106760713Y-89904761D02*
X106855951Y-89952380D01*
X106855951Y-89952380D02*
X107046427Y-89952380D01*
X107046427Y-89952380D02*
X107141665Y-89904761D01*
X106236903Y-89857142D02*
X106189284Y-89904761D01*
X106189284Y-89904761D02*
X106236903Y-89952380D01*
X106236903Y-89952380D02*
X106284522Y-89904761D01*
X106284522Y-89904761D02*
X106236903Y-89857142D01*
X106236903Y-89857142D02*
X106236903Y-89952380D01*
X105332142Y-89904761D02*
X105427380Y-89952380D01*
X105427380Y-89952380D02*
X105617856Y-89952380D01*
X105617856Y-89952380D02*
X105713094Y-89904761D01*
X105713094Y-89904761D02*
X105760713Y-89857142D01*
X105760713Y-89857142D02*
X105808332Y-89761904D01*
X105808332Y-89761904D02*
X105808332Y-89476190D01*
X105808332Y-89476190D02*
X105760713Y-89380952D01*
X105760713Y-89380952D02*
X105713094Y-89333333D01*
X105713094Y-89333333D02*
X105617856Y-89285714D01*
X105617856Y-89285714D02*
X105427380Y-89285714D01*
X105427380Y-89285714D02*
X105332142Y-89333333D01*
X104760713Y-89952380D02*
X104855951Y-89904761D01*
X104855951Y-89904761D02*
X104903570Y-89857142D01*
X104903570Y-89857142D02*
X104951189Y-89761904D01*
X104951189Y-89761904D02*
X104951189Y-89476190D01*
X104951189Y-89476190D02*
X104903570Y-89380952D01*
X104903570Y-89380952D02*
X104855951Y-89333333D01*
X104855951Y-89333333D02*
X104760713Y-89285714D01*
X104760713Y-89285714D02*
X104617856Y-89285714D01*
X104617856Y-89285714D02*
X104522618Y-89333333D01*
X104522618Y-89333333D02*
X104474999Y-89380952D01*
X104474999Y-89380952D02*
X104427380Y-89476190D01*
X104427380Y-89476190D02*
X104427380Y-89761904D01*
X104427380Y-89761904D02*
X104474999Y-89857142D01*
X104474999Y-89857142D02*
X104522618Y-89904761D01*
X104522618Y-89904761D02*
X104617856Y-89952380D01*
X104617856Y-89952380D02*
X104760713Y-89952380D01*
X103998808Y-89952380D02*
X103998808Y-89285714D01*
X103998808Y-89380952D02*
X103951189Y-89333333D01*
X103951189Y-89333333D02*
X103855951Y-89285714D01*
X103855951Y-89285714D02*
X103713094Y-89285714D01*
X103713094Y-89285714D02*
X103617856Y-89333333D01*
X103617856Y-89333333D02*
X103570237Y-89428571D01*
X103570237Y-89428571D02*
X103570237Y-89952380D01*
X103570237Y-89428571D02*
X103522618Y-89333333D01*
X103522618Y-89333333D02*
X103427380Y-89285714D01*
X103427380Y-89285714D02*
X103284523Y-89285714D01*
X103284523Y-89285714D02*
X103189284Y-89333333D01*
X103189284Y-89333333D02*
X103141665Y-89428571D01*
X103141665Y-89428571D02*
X103141665Y-89952380D01*
X101951190Y-88904761D02*
X102808332Y-90190476D01*
X101617856Y-89952380D02*
X101617856Y-88952380D01*
X101617856Y-89333333D02*
X101522618Y-89285714D01*
X101522618Y-89285714D02*
X101332142Y-89285714D01*
X101332142Y-89285714D02*
X101236904Y-89333333D01*
X101236904Y-89333333D02*
X101189285Y-89380952D01*
X101189285Y-89380952D02*
X101141666Y-89476190D01*
X101141666Y-89476190D02*
X101141666Y-89761904D01*
X101141666Y-89761904D02*
X101189285Y-89857142D01*
X101189285Y-89857142D02*
X101236904Y-89904761D01*
X101236904Y-89904761D02*
X101332142Y-89952380D01*
X101332142Y-89952380D02*
X101522618Y-89952380D01*
X101522618Y-89952380D02*
X101617856Y-89904761D01*
X100570237Y-89952380D02*
X100665475Y-89904761D01*
X100665475Y-89904761D02*
X100713094Y-89809523D01*
X100713094Y-89809523D02*
X100713094Y-88952380D01*
X99760713Y-89285714D02*
X99760713Y-89952380D01*
X100189284Y-89285714D02*
X100189284Y-89809523D01*
X100189284Y-89809523D02*
X100141665Y-89904761D01*
X100141665Y-89904761D02*
X100046427Y-89952380D01*
X100046427Y-89952380D02*
X99903570Y-89952380D01*
X99903570Y-89952380D02*
X99808332Y-89904761D01*
X99808332Y-89904761D02*
X99760713Y-89857142D01*
X98903570Y-89904761D02*
X98998808Y-89952380D01*
X98998808Y-89952380D02*
X99189284Y-89952380D01*
X99189284Y-89952380D02*
X99284522Y-89904761D01*
X99284522Y-89904761D02*
X99332141Y-89809523D01*
X99332141Y-89809523D02*
X99332141Y-89428571D01*
X99332141Y-89428571D02*
X99284522Y-89333333D01*
X99284522Y-89333333D02*
X99189284Y-89285714D01*
X99189284Y-89285714D02*
X98998808Y-89285714D01*
X98998808Y-89285714D02*
X98903570Y-89333333D01*
X98903570Y-89333333D02*
X98855951Y-89428571D01*
X98855951Y-89428571D02*
X98855951Y-89523809D01*
X98855951Y-89523809D02*
X99332141Y-89619047D01*
X98427379Y-89952380D02*
X98427379Y-88952380D01*
X98332141Y-89571428D02*
X98046427Y-89952380D01*
X98046427Y-89285714D02*
X98427379Y-89666666D01*
X97236903Y-89904761D02*
X97332141Y-89952380D01*
X97332141Y-89952380D02*
X97522617Y-89952380D01*
X97522617Y-89952380D02*
X97617855Y-89904761D01*
X97617855Y-89904761D02*
X97665474Y-89809523D01*
X97665474Y-89809523D02*
X97665474Y-89428571D01*
X97665474Y-89428571D02*
X97617855Y-89333333D01*
X97617855Y-89333333D02*
X97522617Y-89285714D01*
X97522617Y-89285714D02*
X97332141Y-89285714D01*
X97332141Y-89285714D02*
X97236903Y-89333333D01*
X97236903Y-89333333D02*
X97189284Y-89428571D01*
X97189284Y-89428571D02*
X97189284Y-89523809D01*
X97189284Y-89523809D02*
X97665474Y-89619047D01*
X96855950Y-89285714D02*
X96617855Y-89952380D01*
X96379760Y-89285714D02*
X96617855Y-89952380D01*
X96617855Y-89952380D02*
X96713093Y-90190476D01*
X96713093Y-90190476D02*
X96760712Y-90238095D01*
X96760712Y-90238095D02*
X96855950Y-90285714D01*
X95617855Y-89904761D02*
X95713093Y-89952380D01*
X95713093Y-89952380D02*
X95903569Y-89952380D01*
X95903569Y-89952380D02*
X95998807Y-89904761D01*
X95998807Y-89904761D02*
X96046426Y-89809523D01*
X96046426Y-89809523D02*
X96046426Y-89428571D01*
X96046426Y-89428571D02*
X95998807Y-89333333D01*
X95998807Y-89333333D02*
X95903569Y-89285714D01*
X95903569Y-89285714D02*
X95713093Y-89285714D01*
X95713093Y-89285714D02*
X95617855Y-89333333D01*
X95617855Y-89333333D02*
X95570236Y-89428571D01*
X95570236Y-89428571D02*
X95570236Y-89523809D01*
X95570236Y-89523809D02*
X96046426Y-89619047D01*
X95189283Y-89904761D02*
X95094045Y-89952380D01*
X95094045Y-89952380D02*
X94903569Y-89952380D01*
X94903569Y-89952380D02*
X94808331Y-89904761D01*
X94808331Y-89904761D02*
X94760712Y-89809523D01*
X94760712Y-89809523D02*
X94760712Y-89761904D01*
X94760712Y-89761904D02*
X94808331Y-89666666D01*
X94808331Y-89666666D02*
X94903569Y-89619047D01*
X94903569Y-89619047D02*
X95046426Y-89619047D01*
X95046426Y-89619047D02*
X95141664Y-89571428D01*
X95141664Y-89571428D02*
X95189283Y-89476190D01*
X95189283Y-89476190D02*
X95189283Y-89428571D01*
X95189283Y-89428571D02*
X95141664Y-89333333D01*
X95141664Y-89333333D02*
X95046426Y-89285714D01*
X95046426Y-89285714D02*
X94903569Y-89285714D01*
X94903569Y-89285714D02*
X94808331Y-89333333D01*
X93617855Y-88904761D02*
X94474997Y-90190476D01*
X93284521Y-89285714D02*
X93284521Y-90285714D01*
X93284521Y-89333333D02*
X93189283Y-89285714D01*
X93189283Y-89285714D02*
X92998807Y-89285714D01*
X92998807Y-89285714D02*
X92903569Y-89333333D01*
X92903569Y-89333333D02*
X92855950Y-89380952D01*
X92855950Y-89380952D02*
X92808331Y-89476190D01*
X92808331Y-89476190D02*
X92808331Y-89761904D01*
X92808331Y-89761904D02*
X92855950Y-89857142D01*
X92855950Y-89857142D02*
X92903569Y-89904761D01*
X92903569Y-89904761D02*
X92998807Y-89952380D01*
X92998807Y-89952380D02*
X93189283Y-89952380D01*
X93189283Y-89952380D02*
X93284521Y-89904761D01*
X92379759Y-89952380D02*
X92379759Y-89285714D01*
X92379759Y-88952380D02*
X92427378Y-89000000D01*
X92427378Y-89000000D02*
X92379759Y-89047619D01*
X92379759Y-89047619D02*
X92332140Y-89000000D01*
X92332140Y-89000000D02*
X92379759Y-88952380D01*
X92379759Y-88952380D02*
X92379759Y-89047619D01*
X91474998Y-89904761D02*
X91570236Y-89952380D01*
X91570236Y-89952380D02*
X91760712Y-89952380D01*
X91760712Y-89952380D02*
X91855950Y-89904761D01*
X91855950Y-89904761D02*
X91903569Y-89857142D01*
X91903569Y-89857142D02*
X91951188Y-89761904D01*
X91951188Y-89761904D02*
X91951188Y-89476190D01*
X91951188Y-89476190D02*
X91903569Y-89380952D01*
X91903569Y-89380952D02*
X91855950Y-89333333D01*
X91855950Y-89333333D02*
X91760712Y-89285714D01*
X91760712Y-89285714D02*
X91570236Y-89285714D01*
X91570236Y-89285714D02*
X91474998Y-89333333D01*
X90903569Y-89952380D02*
X90998807Y-89904761D01*
X90998807Y-89904761D02*
X91046426Y-89857142D01*
X91046426Y-89857142D02*
X91094045Y-89761904D01*
X91094045Y-89761904D02*
X91094045Y-89476190D01*
X91094045Y-89476190D02*
X91046426Y-89380952D01*
X91046426Y-89380952D02*
X90998807Y-89333333D01*
X90998807Y-89333333D02*
X90903569Y-89285714D01*
X90903569Y-89285714D02*
X90760712Y-89285714D01*
X90760712Y-89285714D02*
X90665474Y-89333333D01*
X90665474Y-89333333D02*
X90617855Y-89380952D01*
X90617855Y-89380952D02*
X90570236Y-89476190D01*
X90570236Y-89476190D02*
X90570236Y-89761904D01*
X90570236Y-89761904D02*
X90617855Y-89857142D01*
X90617855Y-89857142D02*
X90665474Y-89904761D01*
X90665474Y-89904761D02*
X90760712Y-89952380D01*
X90760712Y-89952380D02*
X90903569Y-89952380D01*
X90141664Y-89571428D02*
X89379760Y-89571428D01*
X88379760Y-89952380D02*
X88951188Y-89952380D01*
X88665474Y-89952380D02*
X88665474Y-88952380D01*
X88665474Y-88952380D02*
X88760712Y-89095238D01*
X88760712Y-89095238D02*
X88855950Y-89190476D01*
X88855950Y-89190476D02*
X88951188Y-89238095D01*
X87998807Y-89047619D02*
X87951188Y-89000000D01*
X87951188Y-89000000D02*
X87855950Y-88952380D01*
X87855950Y-88952380D02*
X87617855Y-88952380D01*
X87617855Y-88952380D02*
X87522617Y-89000000D01*
X87522617Y-89000000D02*
X87474998Y-89047619D01*
X87474998Y-89047619D02*
X87427379Y-89142857D01*
X87427379Y-89142857D02*
X87427379Y-89238095D01*
X87427379Y-89238095D02*
X87474998Y-89380952D01*
X87474998Y-89380952D02*
X88046426Y-89952380D01*
X88046426Y-89952380D02*
X87427379Y-89952380D01*
X87094045Y-89285714D02*
X86855950Y-89952380D01*
X86855950Y-89952380D02*
X86617855Y-89285714D01*
X86236902Y-89952380D02*
X86236902Y-89285714D01*
X86236902Y-89476190D02*
X86189283Y-89380952D01*
X86189283Y-89380952D02*
X86141664Y-89333333D01*
X86141664Y-89333333D02*
X86046426Y-89285714D01*
X86046426Y-89285714D02*
X85951188Y-89285714D01*
X85189283Y-89285714D02*
X85189283Y-90095238D01*
X85189283Y-90095238D02*
X85236902Y-90190476D01*
X85236902Y-90190476D02*
X85284521Y-90238095D01*
X85284521Y-90238095D02*
X85379759Y-90285714D01*
X85379759Y-90285714D02*
X85522616Y-90285714D01*
X85522616Y-90285714D02*
X85617854Y-90238095D01*
X85189283Y-89904761D02*
X85284521Y-89952380D01*
X85284521Y-89952380D02*
X85474997Y-89952380D01*
X85474997Y-89952380D02*
X85570235Y-89904761D01*
X85570235Y-89904761D02*
X85617854Y-89857142D01*
X85617854Y-89857142D02*
X85665473Y-89761904D01*
X85665473Y-89761904D02*
X85665473Y-89476190D01*
X85665473Y-89476190D02*
X85617854Y-89380952D01*
X85617854Y-89380952D02*
X85570235Y-89333333D01*
X85570235Y-89333333D02*
X85474997Y-89285714D01*
X85474997Y-89285714D02*
X85284521Y-89285714D01*
X85284521Y-89285714D02*
X85189283Y-89333333D01*
X84713092Y-89952380D02*
X84713092Y-88952380D01*
X84713092Y-89333333D02*
X84617854Y-89285714D01*
X84617854Y-89285714D02*
X84427378Y-89285714D01*
X84427378Y-89285714D02*
X84332140Y-89333333D01*
X84332140Y-89333333D02*
X84284521Y-89380952D01*
X84284521Y-89380952D02*
X84236902Y-89476190D01*
X84236902Y-89476190D02*
X84236902Y-89761904D01*
X84236902Y-89761904D02*
X84284521Y-89857142D01*
X84284521Y-89857142D02*
X84332140Y-89904761D01*
X84332140Y-89904761D02*
X84427378Y-89952380D01*
X84427378Y-89952380D02*
X84617854Y-89952380D01*
X84617854Y-89952380D02*
X84713092Y-89904761D01*
X83808330Y-89571428D02*
X83046426Y-89571428D01*
X82570235Y-89952380D02*
X82570235Y-88952380D01*
X82141664Y-89952380D02*
X82141664Y-89428571D01*
X82141664Y-89428571D02*
X82189283Y-89333333D01*
X82189283Y-89333333D02*
X82284521Y-89285714D01*
X82284521Y-89285714D02*
X82427378Y-89285714D01*
X82427378Y-89285714D02*
X82522616Y-89333333D01*
X82522616Y-89333333D02*
X82570235Y-89380952D01*
X81665473Y-89952380D02*
X81665473Y-89285714D01*
X81665473Y-88952380D02*
X81713092Y-89000000D01*
X81713092Y-89000000D02*
X81665473Y-89047619D01*
X81665473Y-89047619D02*
X81617854Y-89000000D01*
X81617854Y-89000000D02*
X81665473Y-88952380D01*
X81665473Y-88952380D02*
X81665473Y-89047619D01*
X80760712Y-89952380D02*
X80760712Y-88952380D01*
X80760712Y-89904761D02*
X80855950Y-89952380D01*
X80855950Y-89952380D02*
X81046426Y-89952380D01*
X81046426Y-89952380D02*
X81141664Y-89904761D01*
X81141664Y-89904761D02*
X81189283Y-89857142D01*
X81189283Y-89857142D02*
X81236902Y-89761904D01*
X81236902Y-89761904D02*
X81236902Y-89476190D01*
X81236902Y-89476190D02*
X81189283Y-89380952D01*
X81189283Y-89380952D02*
X81141664Y-89333333D01*
X81141664Y-89333333D02*
X81046426Y-89285714D01*
X81046426Y-89285714D02*
X80855950Y-89285714D01*
X80855950Y-89285714D02*
X80760712Y-89333333D01*
X80284521Y-89571428D02*
X79522617Y-89571428D01*
X78617855Y-89904761D02*
X78713093Y-89952380D01*
X78713093Y-89952380D02*
X78903569Y-89952380D01*
X78903569Y-89952380D02*
X78998807Y-89904761D01*
X78998807Y-89904761D02*
X79046426Y-89857142D01*
X79046426Y-89857142D02*
X79094045Y-89761904D01*
X79094045Y-89761904D02*
X79094045Y-89476190D01*
X79094045Y-89476190D02*
X79046426Y-89380952D01*
X79046426Y-89380952D02*
X78998807Y-89333333D01*
X78998807Y-89333333D02*
X78903569Y-89285714D01*
X78903569Y-89285714D02*
X78713093Y-89285714D01*
X78713093Y-89285714D02*
X78617855Y-89333333D01*
X78046426Y-89952380D02*
X78141664Y-89904761D01*
X78141664Y-89904761D02*
X78189283Y-89857142D01*
X78189283Y-89857142D02*
X78236902Y-89761904D01*
X78236902Y-89761904D02*
X78236902Y-89476190D01*
X78236902Y-89476190D02*
X78189283Y-89380952D01*
X78189283Y-89380952D02*
X78141664Y-89333333D01*
X78141664Y-89333333D02*
X78046426Y-89285714D01*
X78046426Y-89285714D02*
X77903569Y-89285714D01*
X77903569Y-89285714D02*
X77808331Y-89333333D01*
X77808331Y-89333333D02*
X77760712Y-89380952D01*
X77760712Y-89380952D02*
X77713093Y-89476190D01*
X77713093Y-89476190D02*
X77713093Y-89761904D01*
X77713093Y-89761904D02*
X77760712Y-89857142D01*
X77760712Y-89857142D02*
X77808331Y-89904761D01*
X77808331Y-89904761D02*
X77903569Y-89952380D01*
X77903569Y-89952380D02*
X78046426Y-89952380D01*
X77284521Y-89285714D02*
X77284521Y-89952380D01*
X77284521Y-89380952D02*
X77236902Y-89333333D01*
X77236902Y-89333333D02*
X77141664Y-89285714D01*
X77141664Y-89285714D02*
X76998807Y-89285714D01*
X76998807Y-89285714D02*
X76903569Y-89333333D01*
X76903569Y-89333333D02*
X76855950Y-89428571D01*
X76855950Y-89428571D02*
X76855950Y-89952380D01*
X76522616Y-89285714D02*
X76141664Y-89285714D01*
X76379759Y-88952380D02*
X76379759Y-89809523D01*
X76379759Y-89809523D02*
X76332140Y-89904761D01*
X76332140Y-89904761D02*
X76236902Y-89952380D01*
X76236902Y-89952380D02*
X76141664Y-89952380D01*
X75808330Y-89952380D02*
X75808330Y-89285714D01*
X75808330Y-89476190D02*
X75760711Y-89380952D01*
X75760711Y-89380952D02*
X75713092Y-89333333D01*
X75713092Y-89333333D02*
X75617854Y-89285714D01*
X75617854Y-89285714D02*
X75522616Y-89285714D01*
X75046425Y-89952380D02*
X75141663Y-89904761D01*
X75141663Y-89904761D02*
X75189282Y-89857142D01*
X75189282Y-89857142D02*
X75236901Y-89761904D01*
X75236901Y-89761904D02*
X75236901Y-89476190D01*
X75236901Y-89476190D02*
X75189282Y-89380952D01*
X75189282Y-89380952D02*
X75141663Y-89333333D01*
X75141663Y-89333333D02*
X75046425Y-89285714D01*
X75046425Y-89285714D02*
X74903568Y-89285714D01*
X74903568Y-89285714D02*
X74808330Y-89333333D01*
X74808330Y-89333333D02*
X74760711Y-89380952D01*
X74760711Y-89380952D02*
X74713092Y-89476190D01*
X74713092Y-89476190D02*
X74713092Y-89761904D01*
X74713092Y-89761904D02*
X74760711Y-89857142D01*
X74760711Y-89857142D02*
X74808330Y-89904761D01*
X74808330Y-89904761D02*
X74903568Y-89952380D01*
X74903568Y-89952380D02*
X75046425Y-89952380D01*
X74141663Y-89952380D02*
X74236901Y-89904761D01*
X74236901Y-89904761D02*
X74284520Y-89809523D01*
X74284520Y-89809523D02*
X74284520Y-88952380D01*
X73617853Y-89952380D02*
X73713091Y-89904761D01*
X73713091Y-89904761D02*
X73760710Y-89809523D01*
X73760710Y-89809523D02*
X73760710Y-88952380D01*
X72855948Y-89904761D02*
X72951186Y-89952380D01*
X72951186Y-89952380D02*
X73141662Y-89952380D01*
X73141662Y-89952380D02*
X73236900Y-89904761D01*
X73236900Y-89904761D02*
X73284519Y-89809523D01*
X73284519Y-89809523D02*
X73284519Y-89428571D01*
X73284519Y-89428571D02*
X73236900Y-89333333D01*
X73236900Y-89333333D02*
X73141662Y-89285714D01*
X73141662Y-89285714D02*
X72951186Y-89285714D01*
X72951186Y-89285714D02*
X72855948Y-89333333D01*
X72855948Y-89333333D02*
X72808329Y-89428571D01*
X72808329Y-89428571D02*
X72808329Y-89523809D01*
X72808329Y-89523809D02*
X73284519Y-89619047D01*
X72379757Y-89952380D02*
X72379757Y-89285714D01*
X72379757Y-89476190D02*
X72332138Y-89380952D01*
X72332138Y-89380952D02*
X72284519Y-89333333D01*
X72284519Y-89333333D02*
X72189281Y-89285714D01*
X72189281Y-89285714D02*
X72094043Y-89285714D01*
M02*
